<?xml version="1.0" encoding="UTF-8"?>
<!DOCTYPE svg PUBLIC "-//W3C//DTD SVG 1.1//EN" "http://www.w3.org/Graphics/SVG/1.1/DTD/svg11.dtd">
<svg xmlns="http://www.w3.org/2000/svg" version="1.1" width="1024px" height="1129px" style="shape-rendering:geometricPrecision; text-rendering:geometricPrecision; image-rendering:optimizeQuality; fill-rule:evenodd; clip-rule:evenodd" xmlns:xlink="http://www.w3.org/1999/xlink">
<g><path style="opacity:1" fill="#fefefe" d="M -0.5,-0.5 C 340.833,-0.5 682.167,-0.5 1023.5,-0.5C 1023.5,375.833 1023.5,752.167 1023.5,1128.5C 682.167,1128.5 340.833,1128.5 -0.5,1128.5C -0.5,752.167 -0.5,375.833 -0.5,-0.5 Z"/></g>
<g><path style="opacity:1" fill="#0e0f0f" d="M 701.5,9.5 C 704.352,9.35239 706.019,10.6857 706.5,13.5C 700.37,33.223 694.037,52.8897 687.5,72.5C 695.412,71.8481 703.079,73.3481 710.5,77C 720.096,84.6488 721.429,93.3155 714.5,103C 702.32,108.934 691.487,107.1 682,97.5C 678.719,91.2097 677.719,84.543 679,77.5C 683.603,63.1918 688.103,48.8584 692.5,34.5C 683.259,33.0709 674.759,35.0709 667,40.5C 663.947,47.0357 663.78,53.7024 666.5,60.5C 666.631,64.1657 665.131,65.1657 662,63.5C 657.539,54.167 656.539,44.5003 659,34.5C 662.921,29.5862 667.754,25.7528 673.5,23C 682.072,20.2539 690.406,16.9206 698.5,13C 699.71,11.9609 700.71,10.7942 701.5,9.5 Z"/></g>
<g><path style="opacity:1" fill="#0f100f" d="M 796.5,103.5 C 795.596,104.209 795.263,105.209 795.5,106.5C 797.833,106.5 800.167,106.5 802.5,106.5C 815.44,108.578 820.607,115.911 818,128.5C 808.553,136.86 799.553,136.193 791,126.5C 787.966,121.194 786.966,115.527 788,109.5C 792.74,92.6111 797.074,75.6111 801,58.5C 801.26,56.3825 802.26,54.7158 804,53.5C 820.052,62.3596 836.386,70.6929 853,78.5C 852.321,85.2306 850.987,91.8973 849,98.5C 846.214,109.818 843.047,120.985 839.5,132C 850.588,132.12 858.755,136.953 864,146.5C 865.52,158.314 860.353,163.48 848.5,162C 835.203,157.585 830.036,148.419 833,134.5C 837.408,119.366 841.574,104.2 845.5,89C 832.042,82.4373 818.708,75.604 805.5,68.5C 802.035,80.0261 799.035,91.6927 796.5,103.5 Z"/></g>
<g><path style="opacity:1" fill="#929191" d="M 796.5,103.5 C 798.156,105.06 800.156,106.06 802.5,106.5C 800.167,106.5 797.833,106.5 795.5,106.5C 795.263,105.209 795.596,104.209 796.5,103.5 Z"/></g>
<g><path style="opacity:1" fill="#10100f" d="M 528.5,71.5 C 530.467,71.2606 532.301,71.5939 534,72.5C 534.677,92.1743 535.51,111.841 536.5,131.5C 543.854,127.442 551.187,127.609 558.5,132C 564.788,138.355 565.121,145.021 559.5,152C 547.958,158.421 538.458,156.255 531,145.5C 529.906,128.534 529.073,111.534 528.5,94.5C 509.116,102.042 505.116,114.708 516.5,132.5C 514.45,133.663 512.45,133.496 510.5,132C 503.659,122.758 501.826,112.591 505,101.5C 506.738,97.7587 509.238,94.592 512.5,92C 519.667,88.8333 524.833,83.6667 528,76.5C 528.494,74.8659 528.66,73.1992 528.5,71.5 Z"/></g>
<g><path style="opacity:1" fill="#101010" d="M 118.5,107.5 C 121.243,107.077 122.576,108.244 122.5,111C 121.848,127.678 121.181,144.344 120.5,161C 120.833,161.5 121.167,162 121.5,162.5C 130.779,158.862 138.945,160.529 146,167.5C 148.243,176.96 144.41,182.46 134.5,184C 125.164,184.342 118.664,180.176 115,171.5C 114.667,158.833 114.333,146.167 114,133.5C 108.203,136.65 102.536,139.984 97,143.5C 95.7428,145.513 94.9095,147.679 94.5,150C 95.3439,154.042 96.3439,158.042 97.5,162C 97.0305,165.822 95.5305,166.322 93,163.5C 84.3207,149.591 85.8207,137.091 97.5,126C 102.167,123 106.833,120 111.5,117C 114.823,114.517 117.157,111.351 118.5,107.5 Z"/></g>
<g><path style="opacity:1" fill="#101110" d="M 265.5,22.5 C 290.502,22.3334 315.502,22.5 340.5,23C 345.333,26.5 349.5,30.6667 353,35.5C 423.02,128.377 492.187,221.877 560.5,316C 561.449,316.617 562.282,316.451 563,315.5C 564.3,312.705 565.8,310.039 567.5,307.5C 556.071,287.708 550.905,266.374 552,243.5C 555.702,226.636 566.202,218.636 583.5,219.5C 587.881,200.072 595.048,181.739 605,164.5C 610.167,155.333 617.333,148.167 626.5,143C 631.572,142.249 636.572,142.582 641.5,144C 651.37,149.033 659.87,155.866 667,164.5C 672.358,171.024 677.525,177.69 682.5,184.5C 685.654,179.061 689.654,174.228 694.5,170C 704.98,163.975 715.314,164.309 725.5,171C 742.21,184.896 753.544,202.396 759.5,223.5C 780.44,226.087 800.774,231.087 820.5,238.5C 840.571,221.455 862.905,207.955 887.5,198C 903.242,191.584 919.575,188.918 936.5,190C 938.624,191.122 940.457,192.622 942,194.5C 957.175,220.03 965.508,247.697 967,277.5C 967.777,292.193 967.444,306.859 966,321.5C 963.522,336.912 960.022,352.078 955.5,367C 958.256,379.445 960.756,391.945 963,404.5C 967.306,434.098 965.973,463.432 959,492.5C 958.418,506.603 965.251,514.77 979.5,517C 980.574,517.739 981.241,518.739 981.5,520C 979.945,523.561 977.612,526.561 974.5,529C 969.816,532.344 964.816,535.177 959.5,537.5C 960.818,539.912 960.651,542.246 959,544.5C 938.764,563.703 915.597,578.537 889.5,589C 863.894,599.149 837.561,606.316 810.5,610.5C 813.609,617.051 816.442,623.718 819,630.5C 824.002,646.511 829.002,662.511 834,678.5C 844.274,700.715 854.274,723.048 864,745.5C 869.803,761.316 872.469,777.649 872,794.5C 886.493,783.371 892.159,768.704 889,750.5C 886.29,738.328 882.957,726.328 879,714.5C 873.189,694.285 874.522,674.618 883,655.5C 898.753,630.546 921.253,620.713 950.5,626C 978.199,632.331 991.365,649.498 990,677.5C 986.283,688.886 978.45,694.386 966.5,694C 962.047,692.274 957.714,690.274 953.5,688C 945.391,684.39 939.558,686.557 936,694.5C 935.333,699.167 935.333,703.833 936,708.5C 939.865,719.76 943.531,731.094 947,742.5C 950.774,763.077 948.108,782.744 939,801.5C 936.833,804.5 934.667,807.5 932.5,810.5C 938.526,813.427 944.859,815.594 951.5,817C 958.219,819.052 962.052,823.552 963,830.5C 963.667,841.833 963.667,853.167 963,864.5C 962,866.5 961,868.5 960,870.5C 955.952,874.216 951.618,877.55 947,880.5C 946.667,925.833 946.333,971.167 946,1016.5C 941.532,1023.08 935.365,1025.25 927.5,1023C 924.452,1022.39 921.952,1020.89 920,1018.5C 916.091,979.744 911.591,941.077 906.5,902.5C 872.244,922.546 837.744,942.213 803,961.5C 800.303,1011.16 797.637,1060.83 795,1110.5C 794.214,1113.58 792.381,1115.75 789.5,1117C 782.135,1119.47 775.135,1118.8 768.5,1115C 767.299,1114.1 766.465,1112.93 766,1111.5C 763.207,1075.8 760.207,1040.13 757,1004.5C 756.5,1005.67 755.667,1006.5 754.5,1007C 746.839,1009.97 740.006,1008.8 734,1003.5C 731.751,989.596 730.251,975.596 729.5,961.5C 701.162,955.581 672.662,950.248 644,945.5C 642.674,945.755 641.674,946.422 641,947.5C 636.787,991.178 632.454,1034.84 628,1078.5C 623.532,1085.08 617.365,1087.25 609.5,1085C 605.726,1083.7 602.559,1081.53 600,1078.5C 598.029,1031.52 596.862,984.522 596.5,937.5C 587.917,936.543 582.584,931.876 580.5,923.5C 568.48,924.395 557.147,921.895 546.5,916C 531.2,902.47 528.367,886.637 538,868.5C 548.172,857.937 560.672,852.937 575.5,853.5C 576.299,831.289 582.799,810.956 595,792.5C 597.63,788.868 600.63,785.535 604,782.5C 603.556,768.834 602.723,755.167 601.5,741.5C 601.551,738.777 601.884,736.11 602.5,733.5C 590.494,729.331 578.827,724.331 567.5,718.5C 537.051,731.225 506.717,744.225 476.5,757.5C 474.181,808.47 473.181,859.47 473.5,910.5C 481.25,911.693 488.417,914.36 495,918.5C 496.082,926.336 496.915,934.17 497.5,942C 504.846,942.907 512.179,943.907 519.5,945C 527.193,947.426 529.693,952.592 527,960.5C 523.531,965.491 518.697,968.324 512.5,969C 508.476,969.497 504.476,969.331 500.5,968.5C 499.94,978.384 494.607,983.05 484.5,982.5C 479.329,982.116 474.329,981.283 469.5,980C 475.214,986.011 474.548,991.345 467.5,996C 460.391,999.275 453.391,998.942 446.5,995C 441.414,992.04 436.247,989.206 431,986.5C 423.324,990.184 415.657,993.851 408,997.5C 398.228,994.132 388.395,990.965 378.5,988C 377.333,986.833 376.167,985.667 375,984.5C 374.333,973.833 374.333,963.167 375,952.5C 375.374,951.584 375.874,950.75 376.5,950C 382.288,947.023 388.121,944.189 394,941.5C 394.667,934.833 394.667,928.167 394,921.5C 377.725,878.676 361.059,836.009 344,793.5C 343.167,792.667 342.333,791.833 341.5,791C 335.554,789.342 329.554,788.342 323.5,788C 318.381,790.785 314.214,794.618 311,799.5C 309.019,807.384 307.686,815.384 307,823.5C 300.22,880.982 297.22,938.648 298,996.5C 298.56,1002.33 299.06,1008.16 299.5,1014C 297.908,1025.48 296.408,1036.98 295,1048.5C 291.481,1055 285.981,1058.83 278.5,1060C 269.973,1061.57 261.973,1060.24 254.5,1056C 252.932,1053.7 251.765,1051.2 251,1048.5C 249,1039.83 247,1031.17 245,1022.5C 244.882,1009.82 245.382,997.151 246.5,984.5C 246.332,975.149 245.832,965.816 245,956.5C 238.511,905.929 233.011,855.262 228.5,804.5C 226.61,804.703 225.11,804.037 224,802.5C 216.894,785.061 204.727,772.561 187.5,765C 179.526,762.539 171.526,760.206 163.5,758C 162.106,757.044 161.439,755.711 161.5,754C 162.536,751.592 162.536,749.259 161.5,747C 153.874,745.543 146.374,743.71 139,741.5C 137.312,781.48 136.312,821.48 136,861.5C 135.118,873.912 132.451,885.912 128,897.5C 122.251,902.981 115.418,904.814 107.5,903C 103.336,902.177 100.169,900.01 98,896.5C 94.5996,887.101 93.2663,877.434 94,867.5C 96.2304,863.038 97.8971,858.372 99,853.5C 99.6667,843.833 99.6667,834.167 99,824.5C 94.5709,792.687 89.2375,761.02 83,729.5C 80.5388,712.555 78.5388,695.555 77,678.5C 68.2626,674.577 59.7626,670.077 51.5,665C 41.6847,657.537 35.8513,647.704 34,635.5C 33.5495,577.494 33.2162,519.494 33,461.5C 35.3026,454.861 39.4693,449.694 45.5,446C 58.4344,438.908 72.101,433.575 86.5,430C 120.399,422.377 154.733,418.377 189.5,418C 152.663,395.501 121.163,367.001 95,332.5C 78.8519,311.581 71.8519,287.914 74,261.5C 77.3269,244.846 86.1602,232.012 100.5,223C 118.179,212.547 136.846,204.214 156.5,198C 172.049,191.893 186.716,184.227 200.5,175C 220.784,159.813 227.284,139.979 220,115.5C 214.333,101.499 209.666,87.1659 206,72.5C 203.655,61.3159 204.322,50.3159 208,39.5C 211.722,32.5407 217.555,28.3741 225.5,27C 238.912,24.9093 252.246,23.4093 265.5,22.5 Z"/></g>
<g><path style="opacity:1" fill="#fdfdfd" d="M 691.5,604.5 C 728.459,610.908 765.625,613.242 803,611.5C 806.608,619.05 809.942,626.717 813,634.5C 817.537,650.984 822.537,667.317 828,683.5C 840.362,708.256 851.362,733.589 861,759.5C 871.778,808.782 853.945,842.949 807.5,862C 752.624,879.017 699.624,874.35 648.5,848C 646.833,847.333 645.167,847.333 643.5,848C 625.038,856.587 607.038,865.921 589.5,876C 587,878.5 584.5,881 582,883.5C 580.547,894.063 580.047,904.73 580.5,915.5C 570.252,917.785 560.586,916.285 551.5,911C 546.352,907.666 545.186,903.166 548,897.5C 550.205,894.96 552.705,892.793 555.5,891C 548.965,889.358 544.465,891.858 542,898.5C 536.219,882.925 541.719,874.759 558.5,874C 554.055,870.868 549.389,870.702 544.5,873.5C 544.167,873.333 543.833,873.167 543.5,873C 552.387,864.424 563.054,860.257 575.5,860.5C 575.351,863.607 575.851,866.607 577,869.5C 578,870.833 579,870.833 580,869.5C 581.487,851.065 585.154,833.065 591,815.5C 601.779,789.051 620.946,772.218 648.5,765C 662.425,762.392 676.425,761.892 690.5,763.5C 690.719,762.325 690.386,761.325 689.5,760.5C 677.398,756.661 665.065,755.661 652.5,757.5C 651.931,750.444 653.264,743.777 656.5,737.5C 690.882,731.334 720.049,715.667 744,690.5C 745.366,688.63 746.533,686.63 747.5,684.5C 746.965,682.899 745.965,682.399 744.5,683C 718.779,708.195 688.112,723.861 652.5,730C 631.859,732.115 611.859,729.449 592.5,722C 581.833,717.333 571.167,712.667 560.5,708C 548.629,706.591 536.962,704.258 525.5,701C 515.612,693.809 516.279,688.143 527.5,684C 530.471,683.206 533.471,682.539 536.5,682C 537.815,680.605 537.481,679.605 535.5,679C 530,678.238 525,679.572 520.5,683C 519.299,683.903 518.465,685.069 518,686.5C 514.908,669.262 522.074,662.429 539.5,666C 540.833,665.333 540.833,664.667 539.5,664C 535.181,663.24 530.848,662.573 526.5,662C 530.119,658.525 534.452,656.692 539.5,656.5C 547.121,656.696 554.788,656.863 562.5,657C 580.204,661.176 597.87,665.509 615.5,670C 625.75,671.269 635.75,670.269 645.5,667C 652.663,663.253 659.663,659.253 666.5,655C 682.873,641.057 700.707,629.223 720,619.5C 720.774,616.273 719.441,614.94 716,615.5C 711.985,616.06 708.152,617.227 704.5,619C 694.391,625.444 684.557,632.277 675,639.5C 675.7,635.401 677.033,631.401 679,627.5C 683.179,619.806 687.346,612.14 691.5,604.5 Z"/></g>
<g><path style="opacity:1" fill="#f7f7f7" d="M 575.5,602.5 C 589.273,606.822 603.273,610.322 617.5,613C 612.639,615.846 607.472,618.012 602,619.5C 591.401,616.142 580.567,613.975 569.5,613C 572.934,610.297 574.934,606.797 575.5,602.5 Z"/></g>
<g><path style="opacity:1" fill="#f7f7f7" d="M 662.5,601.5 C 663.5,601.5 664.5,601.5 665.5,601.5C 665.785,606.897 665.451,612.23 664.5,617.5C 659.805,619.789 654.972,621.789 650,623.5C 649.741,617.82 650.074,612.154 651,606.5C 654.876,604.716 658.709,603.049 662.5,601.5 Z"/></g>
<g><path style="opacity:1" fill="#f7f7f7" d="M 669.5,600.5 C 674.101,600.401 678.435,601.401 682.5,603.5C 680.413,606.673 678.579,610.006 677,613.5C 674.557,614.593 672.057,615.593 669.5,616.5C 668.265,611.147 668.265,605.813 669.5,600.5 Z"/></g>
<g><path style="opacity:1" fill="#f3f3f3" d="M 502.5,600.5 C 504.857,600.337 507.19,600.503 509.5,601C 525.136,605.692 540.803,610.192 556.5,614.5C 553.17,617.059 549.503,618.226 545.5,618C 542.44,617.152 539.44,616.152 536.5,615C 535.716,612.418 534.049,610.751 531.5,610C 520.339,608.46 509.339,606.127 498.5,603C 499.858,602.066 501.192,601.232 502.5,600.5 Z"/></g>
<g><path style="opacity:1" fill="#e4e4e4" d="M 522.5,593.5 C 537.533,596.675 552.533,600.008 567.5,603.5C 564.19,604.349 560.856,604.182 557.5,603C 548.541,600.791 539.541,598.791 530.5,597C 527.325,596.507 524.659,595.34 522.5,593.5 Z"/></g>
<g><path style="opacity:1" fill="#f7f7f7" d="M 546.5,586.5 C 564.912,590.816 583.412,594.816 602,598.5C 605.296,597.937 608.462,596.937 611.5,595.5C 621.603,598.192 631.603,601.192 641.5,604.5C 634.664,608.505 627.33,610.338 619.5,610C 592.31,603.452 565.31,596.785 538.5,590C 541.122,588.525 543.788,587.359 546.5,586.5 Z"/></g>
<g><path style="opacity:1" fill="#e9e9e9" d="M 569.5,579.5 C 572.187,579.336 574.854,579.503 577.5,580C 588.709,583.302 600.042,585.969 611.5,588C 609.386,589.518 607.053,589.851 604.5,589C 593.486,586.564 582.486,584.064 571.5,581.5C 570.287,581.253 569.62,580.586 569.5,579.5 Z"/></g>
<g><path style="opacity:1" fill="#f6f6f6" d="M 595.5,571.5 C 597.199,571.34 598.866,571.506 600.5,572C 620.166,582.826 640.833,591.493 662.5,598C 658.274,599.798 653.94,601.298 649.5,602.5C 638.444,599.486 627.444,596.32 616.5,593C 619.122,589.465 619.122,585.965 616.5,582.5C 605.992,580.811 595.659,578.477 585.5,575.5C 589.007,574.337 592.341,573.004 595.5,571.5 Z"/></g>
<g><path style="opacity:1" fill="#fbfbfb" d="M 287.5,530.5 C 288.5,530.5 289.5,530.5 290.5,530.5C 291.473,542.158 291.973,553.824 292,565.5C 284.745,573.767 281.578,583.434 282.5,594.5C 282.726,612.747 287.893,629.414 298,644.5C 304.873,652.706 313.373,658.54 323.5,662C 338.522,665.241 353.522,668.574 368.5,672C 383.988,678.485 393.154,689.985 396,706.5C 396.833,720.512 396.666,734.512 395.5,748.5C 390.38,750.56 385.38,752.893 380.5,755.5C 379.894,738.477 379.06,721.477 378,704.5C 374.5,693 367,685.5 355.5,682C 342.469,678.794 329.469,675.46 316.5,672C 289.412,664.241 273.579,646.408 269,618.5C 264.836,602.77 265.836,587.437 272,572.5C 272.761,562.146 272.594,551.813 271.5,541.5C 271.57,540.228 271.903,539.062 272.5,538C 277.871,535.981 282.871,533.481 287.5,530.5 Z"/></g>
<g><path style="opacity:1" fill="#f1f2f1" d="M 157.5,508.5 C 189.092,513.066 220.758,517.233 252.5,521C 261.9,522.683 271.234,524.683 280.5,527C 277.257,528.47 273.924,529.636 270.5,530.5C 232.118,523.986 193.785,517.32 155.5,510.5C 156.167,509.833 156.833,509.167 157.5,508.5 Z"/></g>
<g><path style="opacity:1" fill="#fdfdfd" d="M 531.5,496.5 C 533.476,497.427 533.809,498.76 532.5,500.5C 527.046,502.727 521.713,505.227 516.5,508C 514.963,509.11 514.297,510.61 514.5,512.5C 522.234,510.471 529.901,508.137 537.5,505.5C 545.426,523.622 557.093,539.122 572.5,552C 578.5,556.667 584.5,561.333 590.5,566C 500.776,594.796 410.776,622.796 320.5,650C 318.5,650.667 316.5,650.667 314.5,650C 309.381,647.215 305.214,643.382 302,638.5C 291.53,621.616 287.53,603.282 290,583.5C 291.365,577.769 294.031,572.769 298,568.5C 298.771,565.81 299.604,563.144 300.5,560.5C 377.602,539.127 454.602,517.793 531.5,496.5 Z"/></g>
<g><path style="opacity:1" fill="#fefefe" d="M 157.5,508.5 C 156.833,509.167 156.167,509.833 155.5,510.5C 151.453,513.636 152.12,515.802 157.5,517C 193.427,524.013 229.427,530.513 265.5,536.5C 266.233,547.495 266.4,558.495 266,569.5C 262.348,577.61 260.181,586.11 259.5,595C 259.716,618.649 266.882,639.816 281,658.5C 290.6,668.22 302.1,674.72 315.5,678C 328.536,681.207 341.536,684.54 354.5,688C 365.511,692.011 371.677,699.845 373,711.5C 373.5,726.163 373.667,740.83 373.5,755.5C 350.817,751.53 328.151,747.364 305.5,743C 240.358,728.438 175.025,714.772 109.5,702C 108.572,701.612 107.905,700.945 107.5,700C 106.47,691.607 102.804,684.607 96.5,679C 84.9832,673.409 73.3166,668.076 61.5,663C 50.8707,657.045 44.0374,648.212 41,636.5C 40.831,583.263 40.331,530.096 39.5,477C 51.4206,484.551 64.4206,490.218 78.5,494C 104.503,500.701 130.837,505.534 157.5,508.5 Z"/></g>
<g><path style="opacity:1" fill="#fbfbfb" d="M 523.5,474.5 C 524.5,474.5 525.5,474.5 526.5,474.5C 527.446,479.783 528.779,484.95 530.5,490C 453.457,511.011 376.457,532.177 299.5,553.5C 297.841,546.606 297.174,539.606 297.5,532.5C 350.851,517.912 404.518,504.412 458.5,492C 480.405,486.609 502.072,480.776 523.5,474.5 Z"/></g>
<g><path style="opacity:1" fill="#fbfbfb" d="M 178.5,467.5 C 182.514,467.334 186.514,467.501 190.5,468C 185.297,480.469 179.631,492.636 173.5,504.5C 153.12,501.755 132.786,498.588 112.5,495C 100.623,492.759 88.9564,489.759 77.5,486C 90.3011,481.883 103.301,478.55 116.5,476C 137.246,472.659 157.912,469.825 178.5,467.5 Z"/></g>
<g><path style="opacity:1" fill="#f6f6f6" d="M 521.5,464.5 C 526.668,465.782 526.668,467.616 521.5,470C 458.102,485.079 394.769,500.413 331.5,516C 319.964,518.883 308.63,522.383 297.5,526.5C 295.117,522.542 291.784,521.542 287.5,523.5C 285.205,522.568 282.871,521.735 280.5,521C 360.776,501.346 441.109,482.512 521.5,464.5 Z"/></g>
<g><path style="opacity:1" fill="#fcfcfc" d="M 224.5,465.5 C 234.833,465.5 245.167,465.5 255.5,465.5C 257.226,481.702 254.393,497.035 247,511.5C 245.431,512.122 243.764,512.456 242,512.5C 232.529,511.114 223.029,509.948 213.5,509C 212.692,508.692 212.025,508.192 211.5,507.5C 216.148,493.568 220.481,479.568 224.5,465.5 Z"/></g>
<g><path style="opacity:1" fill="#fbfbfb" d="M 237.5,424.5 C 239.074,424.937 240.241,425.937 241,427.5C 246.837,437.172 251.004,447.506 253.5,458.5C 244.833,458.5 236.167,458.5 227.5,458.5C 230.836,447.155 234.169,435.822 237.5,424.5 Z"/></g>
<g><path style="opacity:1" fill="#fdfdfd" d="M 190.5,424.5 C 195.511,424.334 200.511,424.501 205.5,425C 200.877,436.367 196.544,447.867 192.5,459.5C 166.394,462.18 140.394,465.68 114.5,470C 98.4376,473.355 82.6043,477.522 67,482.5C 56.8026,479.949 48.4692,474.616 42,466.5C 41.3333,464.167 41.3333,461.833 42,459.5C 53.2427,449.127 66.4093,442.294 81.5,439C 117.463,430.322 153.796,425.489 190.5,424.5 Z"/></g>
<g><path style="opacity:1" fill="#fbfbfb" d="M 245.5,378.5 C 246.376,378.369 247.043,378.702 247.5,379.5C 264.363,422.755 281.03,466.088 297.5,509.5C 288.09,512.228 278.59,514.561 269,516.5C 264.04,516.075 259.207,515.075 254.5,513.5C 265.41,490.2 266.243,466.534 257,442.5C 250.389,429.612 244.056,416.612 238,403.5C 237.333,399.167 237.333,394.833 238,390.5C 239.902,386.104 242.402,382.104 245.5,378.5 Z"/></g>
<g><path style="opacity:1" fill="#fbfbfb" d="M 237.5,355.5 C 240.058,360.289 242.392,365.289 244.5,370.5C 235.579,377.344 230.579,386.344 229.5,397.5C 231.011,404.503 232.177,411.503 233,418.5C 223.465,447.438 214.132,476.438 205,505.5C 203.991,506.658 202.658,507.325 201,507.5C 194.766,506.867 188.599,505.867 182.5,504.5C 201.684,455.135 220.017,405.468 237.5,355.5 Z"/></g>
<g><path style="opacity:1" fill="#fbfbfb" d="M 477.5,343.5 C 487.488,342.746 495.321,346.412 501,354.5C 504.238,370.691 508.238,386.691 513,402.5C 517.612,414.391 523.279,425.724 530,436.5C 530.429,444.219 528.595,451.386 524.5,458C 523.128,458.402 521.795,458.902 520.5,459.5C 504.951,421.733 489.951,383.733 475.5,345.5C 476.243,344.818 476.909,344.151 477.5,343.5 Z"/></g>
<g><path style="opacity:1" fill="#fcfcfc" d="M 298.5,318.5 C 317.036,317.604 335.369,319.104 353.5,323C 354.308,323.308 354.975,323.808 355.5,324.5C 377.151,376.488 397.151,428.822 415.5,481.5C 378.153,490.466 340.987,499.132 304,507.5C 282.417,450.413 260.25,393.58 237.5,337C 246.129,332.522 255.129,328.855 264.5,326C 275.838,322.902 287.171,320.402 298.5,318.5 Z"/></g>
<g><path style="opacity:1" fill="#121212" d="M 373.5,455.5 C 379.176,455.334 384.843,455.501 390.5,456C 391.337,457.011 391.67,458.178 391.5,459.5C 363.651,459.07 336.984,464.403 311.5,475.5C 308.921,474.112 308.921,472.612 311.5,471C 331.437,462.451 352.104,457.285 373.5,455.5 Z"/></g>
<g><path style="opacity:1" fill="#111212" d="M 360.5,415.5 C 362.213,416.635 362.88,418.302 362.5,420.5C 366.846,420.334 371.179,420.501 375.5,421C 376.727,422.587 376.394,423.921 374.5,425C 371.183,425.498 367.85,425.665 364.5,425.5C 365.139,430.226 366.472,434.726 368.5,439C 372.833,439.333 377.167,439.667 381.5,440C 381.957,440.414 382.291,440.914 382.5,441.5C 380.5,442.167 378.5,442.833 376.5,443.5C 379.38,450.784 377.047,452.95 369.5,450C 368.33,447.815 367.164,445.649 366,443.5C 352.428,445.347 338.928,447.847 325.5,451C 328.995,457.521 326.995,460.187 319.5,459C 317.936,457.356 316.27,455.856 314.5,454.5C 310.9,455.988 307.233,456.821 303.5,457C 302.289,456.107 302.289,455.274 303.5,454.5C 307.126,452.902 310.793,451.402 314.5,450C 311.846,445.536 310.512,440.703 310.5,435.5C 305.542,436.708 300.542,437.708 295.5,438.5C 295.137,436.089 296.137,434.589 298.5,434C 318.565,426.82 339.232,422.654 360.5,421.5C 360.5,419.5 360.5,417.5 360.5,415.5 Z"/></g>
<g><path style="opacity:1" fill="#fafafa" d="M 353.5,425.5 C 356.167,425.5 358.833,425.5 361.5,425.5C 362.025,430.6 363.025,435.6 364.5,440.5C 349.279,441.877 334.279,444.544 319.5,448.5C 316.464,445.949 314.631,442.616 314,438.5C 313.202,436.741 313.369,435.074 314.5,433.5C 327.389,429.635 340.389,426.968 353.5,425.5 Z"/></g>
<g><path style="opacity:1" fill="#fcfcfc" d="M 409.5,304.5 C 424.162,303.953 438.662,304.953 453,307.5C 473.444,358.054 493.61,408.721 513.5,459.5C 483.295,466.308 453.129,473.308 423,480.5C 402.99,427.636 382.49,374.97 361.5,322.5C 361.977,321.522 362.643,320.689 363.5,320C 378.182,312.495 393.515,307.329 409.5,304.5 Z"/></g>
<g><path style="opacity:1" fill="#141414" d="M 473.5,433.5 C 477.846,433.334 482.179,433.501 486.5,434C 488.481,434.605 488.815,435.605 487.5,437C 465.418,438.021 444.085,442.521 423.5,450.5C 420.149,450.012 419.816,448.845 422.5,447C 439.168,440.751 456.168,436.251 473.5,433.5 Z"/></g>
<g><path style="opacity:1" fill="#121212" d="M 462.5,400.5 C 466.119,401.18 469.786,401.68 473.5,402C 474.167,402.667 474.833,403.333 475.5,404C 472.722,405.392 469.722,405.892 466.5,405.5C 467.195,409.945 468.362,414.278 470,418.5C 472.405,418.964 474.905,419.131 477.5,419C 479.286,419.196 480.619,420.029 481.5,421.5C 480.095,423.655 478.762,425.821 477.5,428C 475.833,428.667 474.167,428.667 472.5,428C 470.47,425.766 468.137,423.933 465.5,422.5C 456.767,423.447 448.1,424.78 439.5,426.5C 439.684,429.321 438.351,430.988 435.5,431.5C 433.571,430.62 431.737,429.62 430,428.5C 424.963,430.679 419.797,432.346 414.5,433.5C 414.33,432.178 414.663,431.011 415.5,430C 419.732,428.05 424.066,426.383 428.5,425C 426.373,421.116 425.373,416.949 425.5,412.5C 419.485,414.178 413.485,415.845 407.5,417.5C 407.33,416.178 407.663,415.011 408.5,414C 426.091,406.935 444.091,402.435 462.5,400.5 Z"/></g>
<g><path style="opacity:1" fill="#f9f9f9" d="M 449.5,406.5 C 454.167,406.5 458.833,406.5 463.5,406.5C 463.871,410.649 464.871,414.649 466.5,418.5C 454.796,420.823 443.129,421.989 431.5,422C 429.583,418.413 428.583,414.58 428.5,410.5C 435.671,409.398 442.671,408.065 449.5,406.5 Z"/></g>
<g><path style="opacity:1" fill="#fcfcfc" d="M 650.5,237.5 C 666.824,237.822 675.824,246.155 677.5,262.5C 675.299,276.86 666.966,283.026 652.5,281C 642.271,276.914 636.938,269.248 636.5,258C 636.687,247.999 641.353,241.166 650.5,237.5 Z"/></g>
<g><path style="opacity:1" fill="#fdfdfd" d="M 573.5,227.5 C 595.505,227.385 614.505,234.718 630.5,249.5C 628.935,253.687 628.268,258.02 628.5,262.5C 621.412,263.095 614.412,264.261 607.5,266C 603.995,266.657 600.995,268.157 598.5,270.5C 600,270.833 601.5,271.167 603,271.5C 612.131,269.943 621.298,269.109 630.5,269C 633.487,275.822 637.821,281.656 643.5,286.5C 636.569,299.933 627.235,311.433 615.5,321C 609.985,325.616 603.652,327.616 596.5,327C 587.333,321.833 580.167,314.667 575,305.5C 565.676,289.029 560.509,271.362 559.5,252.5C 558.289,240.563 562.956,232.23 573.5,227.5 Z"/></g>
<g><path style="opacity:1" fill="#fdfdfd" d="M 918.5,197.5 C 923.844,197.334 929.177,197.501 934.5,198C 943.832,211.506 950.332,226.339 954,242.5C 962.301,274.736 962.634,307.069 955,339.5C 952.189,348.763 949.689,358.096 947.5,367.5C 954.11,391.047 957.777,415.047 958.5,439.5C 958.384,447.524 957.884,455.524 957,463.5C 955.003,474.485 953.17,485.485 951.5,496.5C 951.116,504.565 954.116,511.065 960.5,516C 964.007,518.254 967.673,520.254 971.5,522C 964.024,528.206 955.358,531.373 945.5,531.5C 941.795,530.537 938.128,530.537 934.5,531.5C 933.141,533.306 933.475,534.806 935.5,536C 940.973,538.398 946.64,540.065 952.5,541C 916.88,571.305 875.88,590.638 829.5,599C 760.556,610.302 693.556,603.302 628.5,578C 591.367,562.861 563.034,537.861 543.5,503C 550.994,500.568 558.661,498.901 566.5,498C 567.517,496.951 567.684,495.784 567,494.5C 565.262,493.873 563.429,493.54 561.5,493.5C 554.691,494.376 548.024,495.542 541.5,497C 536.829,487.993 533.996,478.493 533,468.5C 543.315,471.87 553.815,474.537 564.5,476.5C 565.035,473.762 564.035,471.928 561.5,471C 552.075,467.914 542.741,464.747 533.5,461.5C 536.576,454.016 539.076,446.35 541,438.5C 541.752,402.981 548.419,368.647 561,335.5C 563.915,328.072 567.582,321.072 572,314.5C 578.22,325.728 587.553,332.728 600,335.5C 608.472,334.013 615.972,330.513 622.5,325C 633.756,314.793 643.089,303.127 650.5,290C 664.039,291.22 674.706,286.387 682.5,275.5C 702.51,285.959 723.51,288.793 745.5,284C 753.929,280.571 759.096,274.404 761,265.5C 762.832,254.533 762.998,243.533 761.5,232.5C 779.781,233.821 797.448,237.821 814.5,244.5C 811.86,246.958 809.86,249.792 808.5,253C 808.261,255.259 809.261,256.426 811.5,256.5C 820.953,248.886 830.287,241.053 839.5,233C 863.394,215.65 889.727,203.817 918.5,197.5 Z"/></g>
<g><path style="opacity:1" fill="#111111" d="M 818.5,535.5 C 837.143,537.155 854.143,543.322 869.5,554C 870.76,555.814 870.76,557.647 869.5,559.5C 854.107,549.757 837.44,543.257 819.5,540C 818.62,538.644 818.286,537.144 818.5,535.5 Z"/></g>
<g><path style="opacity:1" fill="#0f1010" d="M 661.5,471.5 C 669.626,470.853 677.293,472.353 684.5,476C 689.232,481.035 689.732,486.535 686,492.5C 681.989,498.255 676.489,500.922 669.5,500.5C 669.402,510.445 672.235,519.445 678,527.5C 684.178,532.113 690.678,532.613 697.5,529C 703.884,525.786 709.217,521.286 713.5,515.5C 715.941,517.528 716.108,519.862 714,522.5C 705.709,533.232 694.875,537.732 681.5,536C 677.169,534.507 673.503,532.007 670.5,528.5C 656.305,533.998 645.471,529.998 638,516.5C 637.333,514.5 637.333,512.5 638,510.5C 638.414,510.043 638.914,509.709 639.5,509.5C 642.452,513.865 645.785,518.032 649.5,522C 654.747,525.895 660.247,526.395 666,523.5C 665.015,515.887 664.015,508.221 663,500.5C 653.646,495.462 649.98,487.795 652,477.5C 654.551,474.319 657.718,472.319 661.5,471.5 Z"/></g>
<g><path style="opacity:1" fill="#141514" d="M 846.5,508.5 C 858.214,508.139 869.881,508.639 881.5,510C 882.91,510.368 883.91,511.201 884.5,512.5C 870.846,513.333 857.179,513.833 843.5,514C 836.657,515.113 829.824,516.279 823,517.5C 819.398,517.279 818.898,516.112 821.5,514C 829.797,511.338 838.13,509.505 846.5,508.5 Z"/></g>
<g><path style="opacity:1" fill="#fafafa" d="M 662.5,477.5 C 668.814,477.079 674.814,478.246 680.5,481C 682.968,483.716 682.968,486.549 680.5,489.5C 674.818,495.002 668.485,495.835 661.5,492C 657.127,488.259 656.127,483.925 658.5,479C 660.058,478.79 661.391,478.29 662.5,477.5 Z"/></g>
<g><path style="opacity:1" fill="#101010" d="M 737.5,458.5 C 739.903,458.393 741.736,459.393 743,461.5C 749.754,474.218 760.421,480.551 775,480.5C 782.091,480.769 788.591,478.935 794.5,475C 799.451,470.244 804.285,465.411 809,460.5C 810.833,461 812,462.167 812.5,464C 811.119,467.557 809.953,471.057 809,474.5C 812.776,476.915 816.943,478.082 821.5,478C 822.576,482.263 820.743,484.096 816,483.5C 811.594,483.365 807.594,482.031 804,479.5C 801.926,481.452 799.759,483.285 797.5,485C 800.566,488.066 803.566,491.066 806.5,494C 805.942,496.058 804.609,497.225 802.5,497.5C 797.939,495.606 794.272,492.606 791.5,488.5C 772.997,496.234 756.497,493.234 742,479.5C 737.388,473.955 735.388,467.622 736,460.5C 736.717,459.956 737.217,459.289 737.5,458.5 Z"/></g>
<g><path style="opacity:1" fill="#101111" d="M 575.5,431.5 C 577.144,431.286 578.644,431.62 580,432.5C 584.494,451.962 596.661,459.795 616.5,456C 621.914,454.59 626.247,451.59 629.5,447C 634.667,445.5 636.5,447.333 635,452.5C 628.402,465.218 617.902,470.718 603.5,469C 597.554,467.744 592.221,465.244 587.5,461.5C 584.184,466.659 579.517,468.826 573.5,468C 572.446,466.612 572.28,465.112 573,463.5C 577.148,462.508 580.315,460.175 582.5,456.5C 581.399,452.858 579.233,451.858 576,453.5C 571.46,453.152 567.96,451.152 565.5,447.5C 566.115,445.616 567.448,444.616 569.5,444.5C 571.832,445.172 574.166,445.339 576.5,445C 574.468,440.593 574.135,436.093 575.5,431.5 Z"/></g>
<g><path style="opacity:1" fill="#121312" d="M 774.5,364.5 C 789.175,362.92 800.009,368.587 807,381.5C 807.667,382.833 807.667,384.167 807,385.5C 806.282,386.451 805.449,386.617 804.5,386C 796.95,372.099 785.617,367.266 770.5,371.5C 770.187,368.163 771.52,365.829 774.5,364.5 Z"/></g>
<g><path style="opacity:1" fill="#131312" d="M 608.5,348.5 C 615.451,347.428 621.285,349.428 626,354.5C 626.612,356.237 625.946,357.237 624,357.5C 614.72,351.422 606.554,352.755 599.5,361.5C 598.311,362.429 596.978,362.762 595.5,362.5C 597.048,355.284 601.381,350.617 608.5,348.5 Z"/></g>
<g><path style="opacity:1" fill="#101110" d="M 867.5,297.5 C 879.832,297.828 886.832,304.161 888.5,316.5C 895.994,311.387 903.66,311.22 911.5,316C 920.092,326.543 919.092,336.21 908.5,345C 916.514,351.527 918.681,359.694 915,369.5C 908.662,377.148 901.162,378.481 892.5,373.5C 892.144,384.179 886.81,390.513 876.5,392.5C 868.017,391.022 862.684,386.022 860.5,377.5C 847.592,382.716 839.925,378.549 837.5,365C 837.75,359.999 839.75,355.832 843.5,352.5C 829.767,344.52 828.101,334.687 838.5,323C 843.9,320.722 849.566,319.889 855.5,320.5C 854.54,310.082 858.54,302.415 867.5,297.5 Z"/></g>
<g><path style="opacity:1" fill="#f9faf9" d="M 845.5,326.5 C 852.774,326.553 858.941,329.219 864,334.5C 863.233,337.412 862.399,340.412 861.5,343.5C 863.099,354.115 869.099,358.448 879.5,356.5C 882.356,361.876 884.356,367.543 885.5,373.5C 885.397,383.461 880.731,386.961 871.5,384C 866.642,376.666 866.309,368.999 870.5,361C 870.387,359.72 869.72,358.887 868.5,358.5C 865.454,361.385 862.954,364.718 861,368.5C 856.449,374.232 851.282,374.898 845.5,370.5C 842.849,366.746 843.015,363.079 846,359.5C 849.21,355.813 853.044,352.979 857.5,351C 859.607,349.736 860.607,347.903 860.5,345.5C 855.871,346.481 851.204,346.648 846.5,346C 839.951,343.734 837.451,339.234 839,332.5C 840.494,329.686 842.66,327.686 845.5,326.5 Z"/></g>
<g><path style="opacity:1" fill="#fafafa" d="M 896.5,319.5 C 905.042,317.224 910.042,320.391 911.5,329C 910.875,332.584 909.208,335.584 906.5,338C 900.525,339.694 894.525,341.194 888.5,342.5C 893.589,345.292 898.922,347.792 904.5,350C 911.554,355.814 912.221,362.147 906.5,369C 905.127,369.875 903.627,370.375 902,370.5C 898.512,369.673 895.346,368.173 892.5,366C 889.133,362.297 885.466,358.964 881.5,356C 889.154,349.242 889.487,342.075 882.5,334.5C 885.157,327.513 889.824,322.513 896.5,319.5 Z"/></g>
<g><path style="opacity:1" fill="#f5f5f5" d="M 872.5,337.5 C 880.109,337.937 882.776,341.771 880.5,349C 876.549,351.101 872.716,350.934 869,348.5C 866.35,343.562 867.517,339.895 872.5,337.5 Z"/></g>
<g><path style="opacity:1" fill="#fafafa" d="M 868.5,304.5 C 874.858,303.782 879.024,306.449 881,312.5C 881.381,319.554 880.881,326.554 879.5,333.5C 875.328,331.863 871.328,332.196 867.5,334.5C 863.613,327.289 862.113,319.623 863,311.5C 863.967,308.379 865.8,306.046 868.5,304.5 Z"/></g>
<g><path style="opacity:1" fill="#111110" d="M 915.5,235.5 C 919.432,235.26 922.266,236.927 924,240.5C 929.681,254.937 932.514,269.937 932.5,285.5C 932.161,297.896 931.161,310.229 929.5,322.5C 928.5,322.5 927.5,322.5 926.5,322.5C 927.832,306.522 928.332,290.522 928,274.5C 927.386,262.259 924.553,250.592 919.5,239.5C 893.13,250.204 874.797,268.871 864.5,295.5C 862.461,296.359 861.128,295.526 860.5,293C 870.22,265.449 888.553,246.283 915.5,235.5 Z"/></g>
<g><path style="opacity:1" fill="#fdfdfd" d="M 703.5,173.5 C 715.785,173.56 725.618,178.56 733,188.5C 748.776,209.163 756.11,232.497 755,258.5C 753.947,267.214 749.447,273.381 741.5,277C 721.886,280.565 703.22,277.731 685.5,268.5C 684.459,261.505 683.959,254.505 684,247.5C 690.883,239.309 699.383,233.475 709.5,230C 710.833,229 710.833,228 709.5,227C 702.329,227.571 695.662,229.904 689.5,234C 685.989,236.847 682.489,239.68 679,242.5C 675.979,239.312 672.813,236.312 669.5,233.5C 676.04,215.371 684.206,198.038 694,181.5C 696.772,178.217 699.939,175.55 703.5,173.5 Z"/></g>
<g><path style="opacity:1" fill="#fcfcfc" d="M 628.5,150.5 C 636.49,150.159 643.49,152.659 649.5,158C 660.722,168.64 670.389,180.473 678.5,193.5C 672.985,204.547 668.151,215.88 664,227.5C 657.724,217.558 651.057,207.892 644,198.5C 638.927,192.756 633.26,187.756 627,183.5C 626.333,184.833 626.333,186.167 627,187.5C 638.629,200.096 648.795,213.763 657.5,228.5C 647.453,229.188 639.453,233.521 633.5,241.5C 621.068,231.618 607.068,224.951 591.5,221.5C 595.62,199.3 604.12,178.966 617,160.5C 620.435,156.555 624.268,153.222 628.5,150.5 Z"/></g>
<g><path style="opacity:1" fill="#fefefe" d="M 287.5,49.5 C 301.849,49.1674 316.182,49.5007 330.5,50.5C 402.119,147.398 474.953,243.398 549,338.5C 549.638,339.609 550.138,340.775 550.5,342C 541.611,370.494 536.111,399.66 534,429.5C 528.532,420.23 523.865,410.564 520,400.5C 515.031,383.981 510.697,367.314 507,350.5C 503.786,345.618 499.619,341.785 494.5,339C 486.933,337.268 479.266,336.101 471.5,335.5C 466.887,323.779 461.887,312.279 456.5,301C 420.728,293.186 387.062,298.352 355.5,316.5C 327.987,309.886 300.487,309.886 273,316.5C 272.5,316.167 272,315.833 271.5,315.5C 295.108,242.843 319.608,170.51 345,98.5C 345.695,88.6898 341.195,84.1898 331.5,85C 329.274,86.2273 327.774,88.0607 327,90.5C 297.685,169.627 268.518,248.794 239.5,328C 235.922,329.286 232.756,331.12 230,333.5C 229.333,335.5 229.333,337.5 230,339.5C 231.298,341.265 232.464,343.099 233.5,345C 224.898,369.693 215.898,394.193 206.5,418.5C 162.458,395.632 125.958,363.965 97,323.5C 88.92,311.259 83.5866,297.926 81,283.5C 77.7408,257.517 87.5741,238.35 110.5,226C 131.008,215.831 152.008,206.831 173.5,199C 190.504,191.921 205.338,181.755 218,168.5C 230.581,152.159 233.581,134.159 227,114.5C 222.799,102.897 218.799,91.2303 215,79.5C 213.235,72.9205 212.569,66.2538 213,59.5C 218.66,55.9464 224.826,53.7798 231.5,53C 250.304,51.4993 268.971,50.3326 287.5,49.5 Z"/></g>
<g><path style="opacity:1" fill="#161616" d="M 352.5,400.5 C 357.179,400.334 361.845,400.501 366.5,401C 367.91,401.368 368.91,402.201 369.5,403.5C 342.394,403.962 316.061,408.628 290.5,417.5C 289,417.547 288,416.881 287.5,415.5C 289.336,414.081 291.336,412.914 293.5,412C 312.825,405.699 332.492,401.865 352.5,400.5 Z"/></g>
<g><path style="opacity:1" fill="#101110" d="M 451.5,381.5 C 455.514,381.334 459.514,381.501 463.5,382C 464.833,383 464.833,384 463.5,385C 441.802,385.032 420.969,389.198 401,397.5C 399.72,397.387 398.887,396.72 398.5,395.5C 399.779,393.854 401.445,392.687 403.5,392C 419.148,386.251 435.148,382.751 451.5,381.5 Z"/></g>
<g><path style="opacity:1" fill="#101010" d="M 313.5,347.5 C 324.172,347.333 334.839,347.5 345.5,348C 346.38,349.356 346.714,350.856 346.5,352.5C 344.669,351.948 343.003,351.948 341.5,352.5C 343.668,355.498 344.668,358.831 344.5,362.5C 350.873,361.729 353.706,364.396 353,370.5C 350.035,372.509 347.202,372.009 344.5,369C 328.696,368.314 313.03,369.48 297.5,372.5C 298.292,376.211 299.292,379.878 300.5,383.5C 302.959,384.326 305.459,384.993 308,385.5C 325.274,381.491 342.774,379.991 360.5,381C 361.357,381.689 362.023,382.522 362.5,383.5C 344.667,383.759 327.001,385.593 309.5,389C 307.061,393.89 303.561,394.724 299,391.5C 293.569,393.399 288.069,395.066 282.5,396.5C 279.149,396.012 278.816,394.845 281.5,393C 286.586,390.582 291.919,389.082 297.5,388.5C 296.561,383.389 295.394,378.389 294,373.5C 287.642,375.674 281.142,377.341 274.5,378.5C 274.33,377.178 274.663,376.011 275.5,375C 296.896,367.742 318.896,364.242 341.5,364.5C 340.915,360.409 339.915,356.409 338.5,352.5C 314.284,350.798 290.784,354.131 268,362.5C 266.422,361.289 266.255,359.955 267.5,358.5C 282.536,353.031 297.87,349.364 313.5,347.5 Z"/></g>
<g><path style="opacity:1" fill="#131313" d="M 437.5,364.5 C 444.175,364.334 450.842,364.5 457.5,365C 459.125,365.853 459.458,366.853 458.5,368C 445.757,368.105 433.09,369.105 420.5,371C 411.03,373.547 401.697,376.38 392.5,379.5C 392.33,378.178 392.663,377.011 393.5,376C 407.665,369.807 422.331,365.974 437.5,364.5 Z"/></g>
<g><path style="opacity:1" fill="#131313" d="M 437.5,331.5 C 438.496,331.414 439.329,331.748 440,332.5C 441.638,336.722 442.805,341.055 443.5,345.5C 447.192,344.971 450.358,345.971 453,348.5C 454.033,351.217 453.2,353.051 450.5,354C 446.81,353.107 442.977,352.274 439,351.5C 421.605,352.515 404.939,356.515 389,363.5C 386.659,362.993 386.159,361.826 387.5,360C 397.271,354.973 407.604,351.64 418.5,350C 426.198,349.165 433.865,348.165 441.5,347C 439.958,343.666 438.958,340.166 438.5,336.5C 428.456,336.813 418.456,337.646 408.5,339C 398.88,341.153 389.546,343.987 380.5,347.5C 380.297,345.61 380.963,344.11 382.5,343C 400.236,335.716 418.57,331.882 437.5,331.5 Z"/></g>
<g><path style="opacity:1" fill="#0f100f" d="M 152.5,279.5 C 154.911,279.137 156.411,280.137 157,282.5C 158.573,295.807 159.907,309.141 161,322.5C 167.667,317.167 174.333,317.167 181,322.5C 185.369,333.168 181.703,339.168 170,340.5C 162.721,340.226 158.054,336.56 156,329.5C 154.667,318.166 153.333,306.832 152,295.5C 146.667,298.167 142.667,302.167 140,307.5C 140.021,313.262 140.855,318.928 142.5,324.5C 141.127,324.657 139.793,324.49 138.5,324C 132.656,315.416 132.156,306.582 137,297.5C 143.125,292.217 148.291,286.217 152.5,279.5 Z"/></g>
<g><path style="opacity:1" fill="#f8f8f8" d="M 332.5,92.5 C 338.067,91.7532 339.9,94.0866 338,99.5C 311.868,172.397 287.034,245.73 263.5,319.5C 258.525,320.737 253.691,322.404 249,324.5C 248.833,324.167 248.667,323.833 248.5,323.5C 276.507,246.476 304.507,169.476 332.5,92.5 Z"/></g>
<g><path style="opacity:1" fill="#fafafa" d="M 341.5,35.5 C 415.516,130.512 487.849,226.846 558.5,324.5C 556.726,327.715 555.226,331.048 554,334.5C 481.899,241.068 410.566,147.068 340,52.5C 335.179,46.4167 335.679,40.75 341.5,35.5 Z"/></g>
<g><path style="opacity:1" fill="#fafafa" d="M 278.5,30.5 C 297.214,30.0661 315.88,30.5661 334.5,32C 332.312,34.7096 330.645,37.7096 329.5,41C 300.879,42.7661 272.212,44.0994 243.5,45C 233.515,45.3474 223.848,47.1808 214.5,50.5C 214.075,44.1976 216.741,39.3643 222.5,36C 228.107,34.6765 233.774,33.6765 239.5,33C 252.657,32.1646 265.657,31.3313 278.5,30.5 Z"/></g>
<g><path style="opacity:1" fill="#f9f9f9" d="M 643.5,607.5 C 644.833,607.5 646.167,607.5 647.5,607.5C 647.193,613.205 646.527,618.871 645.5,624.5C 639.84,626.998 634.007,628.998 628,630.5C 626.188,630.507 624.688,629.84 623.5,628.5C 624.274,624.221 624.774,619.887 625,615.5C 631.209,612.716 637.376,610.049 643.5,607.5 Z"/></g>
<g><path style="opacity:1" fill="#e8e8e8" d="M 484.5,606.5 C 500.215,609.594 515.549,613.594 530.5,618.5C 529.833,618.833 529.167,619.167 528.5,619.5C 513.239,615.351 497.905,611.518 482.5,608C 483.416,607.722 484.082,607.222 484.5,606.5 Z"/></g>
<g><path style="opacity:1" fill="#f7f7f7" d="M 459.5,614.5 C 463.897,614.425 468.23,614.925 472.5,616C 489.747,620.812 507.081,625.312 524.5,629.5C 530.528,626.902 536.528,626.902 542.5,629.5C 541.257,633.769 540.257,638.102 539.5,642.5C 525.28,638.656 510.946,635.323 496.5,632.5C 496.683,630.064 496.016,627.897 494.5,626C 480.841,623.001 467.174,620.001 453.5,617C 455.611,616.155 457.611,615.322 459.5,614.5 Z"/></g>
<g><path style="opacity:1" fill="#f3f4f4" d="M 619.5,616.5 C 620.479,619.625 620.813,622.958 620.5,626.5C 616.002,625.589 611.668,624.089 607.5,622C 611.61,620.249 615.61,618.415 619.5,616.5 Z"/></g>
<g><path style="opacity:1" fill="#f2f3f3" d="M 536.5,618.5 C 539.5,619.167 542.5,619.833 545.5,620.5C 545.553,623.061 544.553,625.061 542.5,626.5C 540.111,625.82 537.778,624.986 535.5,624C 536.406,622.301 536.739,620.467 536.5,618.5 Z"/></g>
<g><path style="opacity:1" fill="#fbfbfb" d="M 562.5,620.5 C 572.31,619.927 581.977,620.76 591.5,623C 613.504,632.608 635.504,642.108 657.5,651.5C 642.234,663.452 625.234,666.619 606.5,661C 587.405,654.147 567.738,650.314 547.5,649.5C 547.334,645.154 547.501,640.821 548,636.5C 548.5,636 549,635.5 549.5,635C 555.753,633.796 562.086,633.129 568.5,633C 569.672,632.581 570.672,631.915 571.5,631C 564.495,629.546 557.495,629.046 550.5,629.5C 553.441,624.867 557.441,621.867 562.5,620.5 Z"/></g>
<g><path style="opacity:1" fill="#f8f8f8" d="M 671.5,620.5 C 672.376,620.369 673.043,620.702 673.5,621.5C 670.314,627.556 667.814,633.889 666,640.5C 665.519,642.478 664.353,643.811 662.5,644.5C 653.039,642.1 644.039,638.6 635.5,634C 647.638,629.569 659.638,625.069 671.5,620.5 Z"/></g>
<g><path style="opacity:1" fill="#ececec" d="M 433.5,622.5 C 452.599,623.403 471.599,626.403 490.5,631.5C 488.235,632.647 485.902,632.814 483.5,632C 466.832,628.766 450.166,625.6 433.5,622.5 Z"/></g>
<g><path style="opacity:1" fill="#f8f8f8" d="M 414.5,628.5 C 447.343,637.835 480.343,646.669 513.5,655C 507.242,657.975 500.742,660.142 494,661.5C 478.326,658.54 462.826,654.873 447.5,650.5C 447.425,646.403 445.758,643.237 442.5,641C 428.405,638.848 414.405,636.181 400.5,633C 405.373,631.763 410.04,630.263 414.5,628.5 Z"/></g>
<g><path style="opacity:1" fill="#fdfdfd" d="M 927.5,631.5 C 947.091,629.305 963.591,635.305 977,649.5C 983.467,658.668 985.134,668.668 982,679.5C 979.216,683.899 975.216,686.565 970,687.5C 964.734,686.284 959.901,684.117 955.5,681C 944.529,676.766 936.029,679.6 930,689.5C 928.038,694.005 927.371,698.672 928,703.5C 931.697,717.235 935.697,730.902 940,744.5C 946.855,792.968 926.355,822.135 878.5,832C 871.833,832.667 865.167,832.667 858.5,832C 863.422,824.075 867.089,815.575 869.5,806.5C 881.577,798.599 890.077,787.933 895,774.5C 896.464,765.88 896.798,757.213 896,748.5C 893.48,736.274 890.147,724.274 886,712.5C 879.283,690.866 881.949,670.532 894,651.5C 903.006,641.086 914.172,634.419 927.5,631.5 Z"/></g>
<g><path style="opacity:1" fill="#f7f7f7" d="M 495.5,636.5 C 510.888,639.244 526.221,642.244 541.5,645.5C 541.5,646.5 541.5,647.5 541.5,648.5C 534.498,649.047 527.665,650.38 521,652.5C 506.746,649.749 492.579,646.582 478.5,643C 483.279,641.272 488.279,640.272 493.5,640C 494.973,639.29 495.64,638.124 495.5,636.5 Z"/></g>
<g><path style="opacity:1" fill="#ececec" d="M 384.5,636.5 C 402.769,640.554 421.102,644.22 439.5,647.5C 439.5,648.833 439.5,650.167 439.5,651.5C 421.913,647.148 404.246,642.981 386.5,639C 385.244,638.583 384.577,637.75 384.5,636.5 Z"/></g>
<g><path style="opacity:1" fill="#f6f6f6" d="M 357.5,645.5 C 371.886,648.233 386.22,651.4 400.5,655C 422.249,661.937 444.249,667.937 466.5,673C 459.908,675.922 453.242,678.756 446.5,681.5C 433.654,677.497 420.654,673.997 407.5,671C 406.972,666.995 405.805,663.161 404,659.5C 402.581,658.54 401.081,657.707 399.5,657C 383.24,653.759 366.907,650.926 350.5,648.5C 353,647.641 355.333,646.641 357.5,645.5 Z"/></g>
<g><path style="opacity:1" fill="#eaeaea" d="M 333.5,654.5 C 336.304,653.362 339.304,653.195 342.5,654C 361.098,657.433 379.764,660.433 398.5,663C 399.38,664.356 399.714,665.856 399.5,667.5C 392.425,664.981 385.091,663.148 377.5,662C 362.764,659.66 348.097,657.16 333.5,654.5 Z"/></g>
<g><path style="opacity:1" fill="#f8f8f8" d="M 446.5,652.5 C 460.328,656.961 474.328,661.127 488.5,665C 483.109,667.285 477.609,669.118 472,670.5C 457.665,667.708 443.498,664.208 429.5,660C 430.167,659.333 430.833,658.667 431.5,658C 434.811,658.215 438.144,658.215 441.5,658C 444.079,656.924 445.746,655.091 446.5,652.5 Z"/></g>
<g><path style="opacity:1" fill="#f7f7f7" d="M 516.5,657.5 C 517.043,657.56 517.376,657.893 517.5,658.5C 512.564,664.96 509.564,672.294 508.5,680.5C 504.197,681.878 500.03,683.544 496,685.5C 496.666,678.825 496.499,672.158 495.5,665.5C 502.876,663.6 509.876,660.934 516.5,657.5 Z"/></g>
<g><path style="opacity:1" fill="#f7f6f6" d="M 490.5,667.5 C 491.805,669.397 492.471,671.731 492.5,674.5C 492.54,678.95 491.873,683.284 490.5,687.5C 484.812,689.429 479.312,691.762 474,694.5C 473.169,687.808 473.336,681.142 474.5,674.5C 480.1,672.532 485.434,670.198 490.5,667.5 Z"/></g>
<g><path style="opacity:1" fill="#f8f8f8" d="M 405.5,673.5 C 417.088,676.814 428.755,679.981 440.5,683C 433.908,685.922 427.242,688.756 420.5,691.5C 411.986,688.495 403.319,685.995 394.5,684C 392.167,681.667 389.833,679.333 387.5,677C 390.589,676.852 393.422,676.019 396,674.5C 398.787,675.517 401.62,675.684 404.5,675C 405.056,674.617 405.389,674.117 405.5,673.5 Z"/></g>
<g><path style="opacity:1" fill="#fafafa" d="M 467.5,676.5 C 468.818,679.258 469.485,682.424 469.5,686C 469.333,689.167 469.167,692.333 469,695.5C 462.572,698.296 456.072,700.963 449.5,703.5C 448.336,697.193 448.169,690.859 449,684.5C 455.374,682.105 461.541,679.438 467.5,676.5 Z"/></g>
<g><path style="opacity:1" fill="#fbfcfc" d="M 83.5,680.5 C 95.3928,685.242 101.726,694.076 102.5,707C 108.154,708.023 113.654,709.523 119,711.5C 119.645,720.232 120.645,728.898 122,737.5C 124.659,738.935 127.492,739.935 130.5,740.5C 131.921,781.514 131.754,822.514 130,863.5C 128.558,873.712 126.224,883.712 123,893.5C 117.433,896.824 111.599,897.324 105.5,895C 102.418,889.627 100.585,883.794 100,877.5C 99.3333,874.833 99.3333,872.167 100,869.5C 102.066,864.637 103.732,859.637 105,854.5C 105.679,842.142 105.346,829.809 104,817.5C 99.4322,788.093 94.4322,758.76 89,729.5C 86.9095,713.185 85.0761,696.852 83.5,680.5 Z"/></g>
<g><path style="opacity:1" fill="#fcfcfc" d="M 441.5,686.5 C 442.5,686.5 443.5,686.5 444.5,686.5C 444.83,692.868 444.496,699.202 443.5,705.5C 436.418,708.305 429.418,711.305 422.5,714.5C 421.167,707.833 421.167,701.167 422.5,694.5C 429.038,692.057 435.371,689.39 441.5,686.5 Z"/></g>
<g><path style="opacity:1" fill="#f9f9fa" d="M 507.5,686.5 C 508.5,686.5 509.5,686.5 510.5,686.5C 511.264,691.353 512.598,696.02 514.5,700.5C 477.105,714.966 439.772,729.633 402.5,744.5C 402.172,739.125 402.505,733.792 403.5,728.5C 438.482,715 473.148,701 507.5,686.5 Z"/></g>
<g><path style="opacity:1" fill="#f0f0f0" d="M 396.5,688.5 C 402.443,688.985 408.443,690.485 414.5,693C 410.316,694.837 406.15,696.671 402,698.5C 400.392,694.944 398.559,691.611 396.5,688.5 Z"/></g>
<g><path style="opacity:1" fill="#f9f9f9" d="M 415.5,696.5 C 416.82,699.428 417.486,702.761 417.5,706.5C 417.167,709.833 416.833,713.167 416.5,716.5C 411.95,718.572 407.283,720.238 402.5,721.5C 402.793,715.107 402.46,708.773 401.5,702.5C 406.248,700.453 410.914,698.453 415.5,696.5 Z"/></g>
<g><path style="opacity:1" fill="#fcfcfc" d="M 517.5,704.5 C 521.15,706.954 525.15,708.787 529.5,710C 538.927,711.515 548.26,713.348 557.5,715.5C 498.842,740.495 440.175,765.495 381.5,790.5C 380.167,780.833 380.167,771.167 381.5,761.5C 426.923,742.448 472.256,723.448 517.5,704.5 Z"/></g>
<g><path style="opacity:1" fill="#fcfcfc" d="M 125.5,712.5 C 177.742,722.115 229.742,732.949 281.5,745C 312.159,750.943 342.825,756.776 373.5,762.5C 373.789,772.169 374.122,781.835 374.5,791.5C 291.664,772.457 208.997,752.791 126.5,732.5C 126.167,725.833 125.833,719.167 125.5,712.5 Z"/></g>
<g><path style="opacity:1" fill="#fbfbfb" d="M 607.5,734.5 C 621.08,736.588 634.746,737.921 648.5,738.5C 646.072,744.971 644.406,751.637 643.5,758.5C 631.362,762.817 620.195,768.817 610,776.5C 608.436,762.555 607.603,748.555 607.5,734.5 Z"/></g>
<g><path style="opacity:1" fill="#fbfbfb" d="M 169.5,749.5 C 218.063,761.641 266.729,773.474 315.5,785C 302.634,790.347 290.468,796.847 279,804.5C 263.166,802.056 247.333,799.556 231.5,797C 229.671,796.727 228.171,795.893 227,794.5C 219.439,777.273 206.939,765.106 189.5,758C 183.057,755.445 176.39,753.778 169.5,753C 168.316,751.855 168.316,750.688 169.5,749.5 Z"/></g>
<g><path style="opacity:1" fill="#fcfcfc" d="M 465.5,761.5 C 466.5,761.5 467.5,761.5 468.5,761.5C 468,812.839 467.167,864.172 466,915.5C 460.222,919.601 454.055,920.268 447.5,917.5C 447.167,914 446.833,910.5 446.5,907C 446.987,897.005 447.32,887.005 447.5,877C 446.98,841.598 446.314,806.265 445.5,771C 452.278,767.916 458.944,764.749 465.5,761.5 Z"/></g>
<g><path style="opacity:1" fill="#f6f6f6" d="M 437.5,773.5 C 438.5,773.5 439.5,773.5 440.5,773.5C 441.533,821.835 441.533,870.168 440.5,918.5C 435.699,920.657 430.699,921.99 425.5,922.5C 425.333,874.832 425.5,827.166 426,779.5C 429.965,777.58 433.798,775.58 437.5,773.5 Z"/></g>
<g><path style="opacity:1" fill="#fdfdfd" d="M 418.5,781.5 C 419.665,833.998 419.832,886.665 419,939.5C 413.246,943.136 407.246,943.47 401,940.5C 400.493,890.166 399.993,839.833 399.5,789.5C 406.224,787.597 412.557,784.931 418.5,781.5 Z"/></g>
<g><path style="opacity:1" fill="#fcfcfc" d="M 351.5,793.5 C 359.785,795.32 368.118,796.987 376.5,798.5C 381.775,797.698 386.775,796.031 391.5,793.5C 393.154,829.842 393.987,866.175 394,902.5C 379.533,866.261 365.366,829.928 351.5,793.5 Z"/></g>
<g><path style="opacity:1" fill="#fbfbfb" d="M 303.5,797.5 C 297.563,845.386 293.396,893.719 291,942.5C 290.223,965.214 290.557,987.881 292,1010.5C 279.945,1022.91 266.612,1024.58 252,1015.5C 253.321,999.883 253.654,984.216 253,968.5C 246.104,913.939 240.271,859.273 235.5,804.5C 248.112,806.819 260.779,808.819 273.5,810.5C 270.817,876.502 270.983,942.502 274,1008.5C 275.049,1009.52 276.216,1009.68 277.5,1009C 278.156,1003.41 278.489,997.745 278.5,992C 276.683,948.848 276.183,905.682 277,862.5C 277.03,845.335 278.53,828.335 281.5,811.5C 288.606,806.378 295.939,801.711 303.5,797.5 Z"/></g>
<g><path style="opacity:1" fill="#fcfcfc" d="M 925.5,817.5 C 935.047,818.973 944.213,821.64 953,825.5C 953.617,826.449 953.451,827.282 952.5,828C 897.451,857.525 842.117,886.525 786.5,915C 781.167,915.667 775.833,915.667 770.5,915C 710.559,904.51 650.559,894.343 590.5,884.5C 593.109,881.856 596.109,879.689 599.5,878C 615.129,870.07 630.795,862.236 646.5,854.5C 698.753,882.155 753.086,886.988 809.5,869C 826.569,863.242 840.903,853.576 852.5,840C 874.116,841.544 894.449,837.211 913.5,827C 917.975,824.35 921.975,821.183 925.5,817.5 Z"/></g>
<g><path style="opacity:1" fill="#fdfdfd" d="M 955.5,832.5 C 956.166,837.489 956.499,842.656 956.5,848C 956.623,853.939 956.123,859.772 955,865.5C 945.926,872.289 936.426,878.456 926.5,884C 880.662,910.087 834.662,935.92 788.5,961.5C 787.014,951.215 786.014,940.881 785.5,930.5C 783.089,930.137 781.589,931.137 781,933.5C 781.148,943.15 781.314,952.817 781.5,962.5C 772.775,961.826 764.108,960.659 755.5,959C 700.86,948.782 646.193,938.782 591.5,929C 589.951,927.786 588.785,926.286 588,924.5C 587.333,912.833 587.333,901.167 588,889.5C 652.372,900.979 716.872,911.979 781.5,922.5C 783.867,922.158 786.2,921.658 788.5,921C 844.862,892.49 900.528,862.99 955.5,832.5 Z"/></g>
<g><path style="opacity:1" fill="#fdfdfd" d="M 939.5,883.5 C 940.665,927.331 940.831,971.331 940,1015.5C 934.757,1018.37 929.757,1018.03 925,1014.5C 921.396,976.808 917.562,939.141 913.5,901.5C 913.686,899.42 914.686,897.92 916.5,897C 924.559,892.978 932.225,888.478 939.5,883.5 Z"/></g>
<g><path style="opacity:1" fill="#f9f9f9" d="M 473.5,917.5 C 478.327,917.941 482.993,919.107 487.5,921C 460.966,932.265 435.632,945.598 411.5,961C 401.849,959.562 392.516,956.896 383.5,953C 387.5,951.333 391.5,949.667 395.5,948C 399.816,947.879 404.15,948.045 408.5,948.5C 421.542,949.458 427.542,943.458 426.5,930.5C 433.167,928.167 439.833,925.833 446.5,923.5C 454.855,926.442 462.855,925.609 470.5,921C 471.71,919.961 472.71,918.794 473.5,917.5 Z"/></g>
<g><path style="opacity:1" fill="#f8f8f8" d="M 487.5,926.5 C 488.5,926.5 489.5,926.5 490.5,926.5C 490.5,931.167 490.5,935.833 490.5,940.5C 479.058,938.04 472.058,942.373 469.5,953.5C 455.589,948.107 447.589,952.44 445.5,966.5C 429.942,961.736 422.609,967.402 423.5,983.5C 419.588,985.372 415.755,987.372 412,989.5C 411.333,982.167 411.333,974.833 412,967.5C 436.253,952.124 461.42,938.457 487.5,926.5 Z"/></g>
<g><path style="opacity:1" fill="#fcfcfc" d="M 603.5,938.5 C 613.711,940.702 624.045,942.368 634.5,943.5C 630.664,987.859 626.498,1032.19 622,1076.5C 616.193,1079.52 610.859,1078.86 606,1074.5C 604.51,1029.18 603.676,983.844 603.5,938.5 Z"/></g>
<g><path style="opacity:1" fill="#f8f8f8" d="M 480.5,947.5 C 493.585,948.232 506.585,949.732 519.5,952C 521.989,954.793 521.655,957.46 518.5,960C 512.007,962.952 505.34,963.285 498.5,961C 491.769,958.867 485.102,956.534 478.5,954C 476.933,951.094 477.6,948.928 480.5,947.5 Z"/></g>
<g><path style="opacity:1" fill="#fafafa" d="M 456.5,958.5 C 459.518,958.335 462.518,958.502 465.5,959C 475.038,962.179 484.538,965.346 494,968.5C 494.92,971.308 494.087,973.475 491.5,975C 487.167,975.667 482.833,975.667 478.5,975C 470.398,972.466 462.398,969.632 454.5,966.5C 453.015,963.248 453.682,960.581 456.5,958.5 Z"/></g>
<g><path style="opacity:1" fill="#fcfcfc" d="M 380.5,959.5 C 388.661,961.208 396.661,963.541 404.5,966.5C 405.833,974.167 405.833,981.833 404.5,989.5C 396.538,987.124 388.705,984.457 381,981.5C 380.5,974.174 380.334,966.841 380.5,959.5 Z"/></g>
<g><path style="opacity:1" fill="#fbfbfb" d="M 736.5,961.5 C 742.698,963.34 749.031,964.673 755.5,965.5C 755.33,977.214 754.497,988.881 753,1000.5C 748.921,1001.63 744.755,1001.8 740.5,1001C 740,1000.5 739.5,1000 739,999.5C 737.835,986.851 737.001,974.184 736.5,961.5 Z"/></g>
<g><path style="opacity:1" fill="#fcfcfc" d="M 794.5,965.5 C 795.165,968.984 795.499,972.651 795.5,976.5C 793.417,1020.5 791.25,1064.5 789,1108.5C 786.959,1110.97 784.292,1111.97 781,1111.5C 777.479,1111.92 774.479,1110.92 772,1108.5C 767.681,1061.57 764.514,1014.57 762.5,967.5C 768.846,967.978 775.18,968.644 781.5,969.5C 786.368,969.539 790.701,968.205 794.5,965.5 Z"/></g>
<g><path style="opacity:1" fill="#f8f8f8" d="M 434.5,970.5 C 446.493,972.995 457.327,977.995 467,985.5C 467.091,988.428 465.591,990.261 462.5,991C 459.833,991.667 457.167,991.667 454.5,991C 446.436,987.269 438.602,983.103 431,978.5C 429.78,974.707 430.947,972.04 434.5,970.5 Z"/></g>
<g><path style="opacity:1" fill="#fafafa" d="M 291.5,1017.5 C 292.124,1017.92 292.457,1018.58 292.5,1019.5C 290.784,1029.13 289.284,1038.8 288,1048.5C 279.014,1055.26 269.514,1056.09 259.5,1051C 256.054,1041.77 253.888,1032.27 253,1022.5C 263.364,1027.66 273.864,1027.82 284.5,1023C 287.266,1021.63 289.599,1019.8 291.5,1017.5 Z"/></g>
</svg>
