<?xml version="1.0" encoding="UTF-8"?>
<svg xmlns="http://www.w3.org/2000/svg" version="1.1" width="1024px" height="1024px" style="shape-rendering:geometricPrecision; text-rendering:geometricPrecision; image-rendering:optimizeQuality; fill-rule:evenodd; clip-rule:evenodd" xmlns:xlink="http://www.w3.org/1999/xlink">
  <g><path style="opacity:1" fill="#fefefe" d="M -0.5,-0.5 C 340.833,-0.5 682.167,-0.5 1023.5,-0.5C 1023.5,340.833 1023.5,682.167 1023.5,1023.5C 682.167,1023.5 340.833,1023.5 -0.5,1023.5C -0.5,682.167 -0.5,340.833 -0.5,-0.5 Z"/></g>
  <g><path style="opacity:1" fill="#090909" d="M 320.5,61.5 C 331.921,60.4381 342.254,63.2714 351.5,70C 367.63,82.463 382.13,96.6297 395,112.5C 402.393,122.384 409.559,132.384 416.5,142.5C 440.843,136.707 465.343,136.04 490,140.5C 491.167,140.167 492.333,139.833 493.5,139.5C 511.632,116.202 531.965,95.0354 554.5,76C 562.801,69.5093 572.134,65.8427 582.5,65C 589.698,66.858 595.198,71.0246 599,77.5C 608.935,94.296 615.935,112.296 620,131.5C 627.38,168.888 629.38,206.555 626,244.5C 630.757,254.442 634.924,264.609 638.5,275C 648.001,276.234 657.335,278.234 666.5,281C 667.701,281.903 668.535,283.069 669,284.5C 669.667,291.167 669.667,297.833 669,304.5C 668.047,306.455 666.713,308.122 665,309.5C 664.713,326.134 662.379,342.467 658,358.5C 656.023,363.434 653.857,368.268 651.5,373C 663.67,373.521 675.67,375.188 687.5,378C 689.09,380.48 688.59,382.313 686,383.5C 674.649,380.938 663.149,379.604 651.5,379.5C 650.205,387.512 648.205,395.346 645.5,403C 649.063,405.532 652.896,407.699 657,409.5C 661.731,403.542 667.898,399.708 675.5,398C 765.163,391.278 854.83,384.944 944.5,379C 953.268,380.812 961.602,383.812 969.5,388C 973.066,390.798 975.066,394.465 975.5,399C 965.37,485.209 954.87,571.375 944,657.5C 941.668,663.164 937.501,666.664 931.5,668C 915.293,671.875 898.96,675.041 882.5,677.5C 882.833,682.833 883.167,688.167 883.5,693.5C 906.044,698.761 928.544,704.095 951,709.5C 951.779,711.906 950.946,713.573 948.5,714.5C 926.974,709.666 905.641,704.999 884.5,700.5C 886.63,716.465 888.63,732.465 890.5,748.5C 899.764,751.311 908.764,754.811 917.5,759C 922.833,764 922.833,769 917.5,774C 911.048,776.928 904.382,779.262 897.5,781C 860.456,791.178 823.456,801.511 786.5,812C 781.833,812.667 777.167,812.667 772.5,812C 749.622,804.929 726.955,797.263 704.5,789C 698.274,783.955 696.107,777.455 698,769.5C 701.005,765.913 704.838,763.746 709.5,763C 735.275,755.223 761.275,748.39 787.5,742.5C 785.541,727.206 783.875,711.873 782.5,696.5C 763.774,699.677 745.107,703.177 726.5,707C 737.172,709.666 747.339,713.499 757,718.5C 758.586,725.057 758.92,731.724 758,738.5C 756.5,741.333 754.333,743.5 751.5,745C 659.397,766.387 567.397,788.221 475.5,810.5C 436.214,792.571 396.881,774.738 357.5,757C 355.667,755.833 354.167,754.333 353,752.5C 352.333,746.167 352.333,739.833 353,733.5C 353.5,733 354,732.5 354.5,732C 376.825,727.102 399.159,722.268 421.5,717.5C 409.147,713.577 396.481,710.243 383.5,707.5C 355.169,712 326.835,716.5 298.5,721C 295.571,721.777 292.737,721.61 290,720.5C 289.135,718.112 289.968,716.612 292.5,716C 319.472,711.48 346.472,707.147 373.5,703C 317.465,681.144 289.632,639.978 290,579.5C 291.733,577.398 293.733,577.065 296,578.5C 296.091,636.88 323.258,676.38 377.5,697C 392.481,702.579 407.815,706.912 423.5,710C 431.971,720.25 442.638,724.25 455.5,722C 461.437,717.189 463.604,711.022 462,703.5C 460.359,698.214 457.692,693.547 454,689.5C 453.389,685.912 454.889,684.746 458.5,686C 468.979,695.8 471.312,707.3 465.5,720.5C 483.123,724.717 491.623,717.717 491,699.5C 488.755,693.345 485.255,688.011 480.5,683.5C 481.427,681.054 483.094,680.221 485.5,681C 496.497,690.318 499.997,701.818 496,715.5C 504.707,712.452 509.207,706.286 509.5,697C 508.312,684.742 503.312,674.409 494.5,666C 488.822,662.159 482.822,658.826 476.5,656C 458.937,650.257 441.603,643.924 424.5,637C 396.576,620.667 383.076,596.167 384,563.5C 385.888,561.078 387.888,561.078 390,563.5C 389.93,597.712 405.43,621.545 436.5,635C 452.622,640.363 468.622,646.029 484.5,652C 495.706,657.099 504.706,664.766 511.5,675C 514.192,675.43 516.859,675.263 519.5,674.5C 520.182,665.159 521.016,655.826 522,646.5C 529.163,614.87 531.83,582.87 530,550.5C 529.402,546.943 528.569,543.443 527.5,540C 528.969,536.174 531.136,535.674 534,538.5C 536.917,549.29 538.084,560.29 537.5,571.5C 536.843,597.431 533.843,623.098 528.5,648.5C 528.406,650.912 529.406,652.745 531.5,654C 540.344,659.172 549.511,663.672 559,667.5C 559.925,666.953 560.758,666.287 561.5,665.5C 560.122,650.488 565.456,638.322 577.5,629C 587.585,621.642 598.918,617.975 611.5,618C 580.475,600.962 559.642,575.462 549,541.5C 543.688,524.566 538.188,507.733 532.5,491C 518.604,493.242 504.604,495.242 490.5,497C 479.196,498.388 467.863,498.721 456.5,498C 454.675,496.534 454.175,494.701 455,492.5C 492.251,492.208 528.418,485.708 563.5,473C 586.87,463.242 606.703,448.742 623,429.5C 632.956,416.26 639.622,401.594 643,385.5C 634.036,396.238 622.536,402.738 608.5,405C 592.556,407.776 576.89,406.776 561.5,402C 541.36,392.508 529.526,376.674 526,354.5C 525.03,345.801 523.864,337.135 522.5,328.5C 508.669,322.708 495.169,323.375 482,330.5C 476.104,392.058 442.604,417.891 381.5,408C 357.778,402.612 342.945,388.112 337,364.5C 333.223,349.069 331.223,333.402 331,317.5C 329.66,316.132 328.326,314.799 327,313.5C 303.643,317.904 280.476,323.071 257.5,329C 255.113,333.672 252.947,338.505 251,343.5C 248.528,345.298 246.861,347.632 246,350.5C 244.213,359.141 244.046,367.807 245.5,376.5C 263.587,376.314 281.587,377.481 299.5,380C 304.467,382.039 304.634,384.206 300,386.5C 282.326,383.16 264.492,381.827 246.5,382.5C 248.623,393.7 252.623,404.2 258.5,414C 271.809,411.238 285.142,408.238 298.5,405C 301.146,404.503 303.813,404.336 306.5,404.5C 306.5,406.167 306.5,407.833 306.5,409.5C 291.672,412.54 277.006,416.207 262.5,420.5C 282.592,444.89 307.592,462.39 337.5,473C 350.264,477.23 363.097,481.064 376,484.5C 377.24,487.906 376.073,489.573 372.5,489.5C 352.731,485.91 333.731,479.91 315.5,471.5C 290.731,508.358 269.565,547.358 252,588.5C 243.766,608.867 237.766,629.867 234,651.5C 230.828,654.388 228.661,653.722 227.5,649.5C 236.265,605.967 251.765,564.967 274,526.5C 285.752,507.332 297.252,487.999 308.5,468.5C 307.652,467.009 306.319,466.342 304.5,466.5C 289.593,468.838 274.593,470.338 259.5,471C 239.41,472.617 220.076,477.284 201.5,485C 173.278,498.911 158.778,521.744 158,553.5C 155.774,610.466 162.107,666.466 177,721.5C 178.113,725.508 179.613,729.341 181.5,733C 186.166,732.93 190.832,732.43 195.5,731.5C 197.955,731.112 199.288,732.112 199.5,734.5C 199.182,735.647 198.516,736.481 197.5,737C 155.193,744.884 112.86,752.217 70.5,759C 68.4732,757.604 68.1398,755.938 69.5,754C 78.1725,752.165 86.8392,750.332 95.5,748.5C 78.7444,728.071 70.411,704.571 70.5,678C 71.0795,656.511 77.5795,637.011 90,619.5C 101.325,605.903 115.492,601.07 132.5,605C 140.603,608.104 145.436,613.938 147,622.5C 147.667,626.833 147.667,631.167 147,635.5C 143.062,645.047 139.395,654.713 136,664.5C 129.039,692.948 136.539,716.782 158.5,736C 159.609,736.638 160.775,737.138 162,737.5C 166.185,736.563 170.352,735.563 174.5,734.5C 165.595,707.478 159.428,679.811 156,651.5C 151.673,618.967 150.007,586.3 151,553.5C 151.994,516.882 169.161,491.382 202.5,477C 212.218,473.07 222.218,470.07 232.5,468C 253.768,464.848 275.102,462.515 296.5,461C 280.457,450.627 266.624,437.793 255,422.5C 247.524,424.988 240.357,428.155 233.5,432C 227.804,433.323 226.471,431.656 229.5,427C 236.825,423.396 244.159,419.896 251.5,416.5C 245.518,406.206 241.518,395.206 239.5,383.5C 232.086,383.301 224.752,383.968 217.5,385.5C 214.483,384.62 213.816,382.786 215.5,380C 223.09,378.352 230.757,377.185 238.5,376.5C 237.374,370.218 237.207,363.885 238,357.5C 238.19,353.812 239.024,350.312 240.5,347C 237.819,344.806 236.319,341.973 236,338.5C 234.561,329.588 236.561,321.588 242,314.5C 245.04,295.334 250.707,277.001 259,259.5C 255.117,200.246 266.117,143.913 292,90.5C 297.367,79.804 304.867,70.9707 314.5,64C 316.723,63.4338 318.723,62.6005 320.5,61.5 Z"/></g>
  <g><path style="opacity:1" fill="#fdfdfd" d="M 324.5,67.5 C 332.458,68.0971 339.791,70.5971 346.5,75C 375.59,97.3713 398.423,124.871 415,157.5C 417.782,159.011 419.615,158.178 420.5,155C 419.932,153.128 419.265,151.295 418.5,149.5C 450.874,141.747 482.874,143.247 514.5,154C 517.593,155.026 519.927,154.193 521.5,151.5C 520.687,150.186 519.687,149.019 518.5,148C 512.494,146.165 506.494,144.332 500.5,142.5C 516.541,121.622 534.541,102.455 554.5,85C 560.642,80.2046 567.309,76.2046 574.5,73C 578.625,72.1462 582.625,72.4796 586.5,74C 593.238,80.7491 598.405,88.5824 602,97.5C 618,140.83 623.666,185.496 619,231.5C 614.747,223.321 609.747,215.654 604,208.5C 605.815,174.022 601.482,140.355 591,107.5C 589.266,102.516 586.433,98.3494 582.5,95C 580.5,94.3333 578.5,94.3333 576.5,95C 572.033,98.4651 567.867,102.298 564,106.5C 551.143,122.705 540.976,140.538 533.5,160C 533.759,161.261 534.426,162.261 535.5,163C 582.429,186.679 614.096,223.512 630.5,273.5C 613.293,273.381 595.96,273.547 578.5,274C 564.326,274.456 551.326,278.456 539.5,286C 533.511,291.654 528.677,298.154 525,305.5C 519.299,303.028 513.299,302.028 507,302.5C 498.675,302.332 490.509,303.332 482.5,305.5C 479.903,300.484 476.903,295.651 473.5,291C 462.462,283.152 450.129,278.819 436.5,278C 408.418,275.539 380.418,276.206 352.5,280C 340.959,282.608 329.959,286.608 319.5,292C 296.093,298.518 272.76,304.352 249.5,309.5C 253.172,292.149 258.839,275.482 266.5,259.5C 261.884,198.745 273.718,141.411 302,87.5C 306.914,77.7437 314.414,71.077 324.5,67.5 Z"/></g>
  <g><path style="opacity:1" fill="#131313" d="M 127.5,74.5 C 174.168,74.3333 220.835,74.5 267.5,75C 268.86,76.9376 268.527,78.6043 266.5,80C 219.833,80.3333 173.167,80.6667 126.5,81C 102.287,83.5517 88.1202,96.7183 84,120.5C 83.6667,196.833 83.3333,273.167 83,349.5C 81.3333,352.167 79.6667,352.167 78,349.5C 77.0178,271.803 77.3511,194.136 79,116.5C 81.5724,99.5063 90.7391,87.673 106.5,81C 113.472,78.3469 120.472,76.1802 127.5,74.5 Z"/></g>
  <g><path style="opacity:1" fill="#070707" d="M 642.5,74.5 C 727.167,74.3333 811.834,74.5 896.5,75C 925.069,78.2359 940.903,94.0693 944,122.5C 944.667,165.5 944.667,208.5 944,251.5C 942.333,252.833 940.667,252.833 939,251.5C 938.667,208.167 938.333,164.833 938,121.5C 936.357,102.876 926.857,90.376 909.5,84C 904.625,82.198 899.625,80.8647 894.5,80C 810.501,79.5 726.501,79.3333 642.5,79.5C 642.5,77.8333 642.5,76.1667 642.5,74.5 Z"/></g>
  <g><path style="opacity:1" fill="#070707" d="M 326.5,93.5 C 331.725,93.2975 336.392,94.7975 340.5,98C 363.641,116.786 379.974,140.286 389.5,168.5C 388.687,172.5 386.853,173.167 384,170.5C 377.318,151.457 367.318,134.457 354,119.5C 347.717,112.211 340.551,106.044 332.5,101C 327.94,100.194 324.774,102.027 323,106.5C 313.226,127.025 307.893,148.691 307,171.5C 306.087,186.213 306.42,200.88 308,215.5C 324.092,198.716 342.259,184.716 362.5,173.5C 358.59,169.71 353.924,167.21 348.5,166C 347.167,164.333 347.167,162.667 348.5,161C 358.47,161.652 366.47,165.986 372.5,174C 372.22,175.395 371.553,176.562 370.5,177.5C 346.888,188.646 326.555,204.146 309.5,224C 302.8,225.301 299.967,222.468 301,215.5C 299.143,187.929 300.81,160.596 306,133.5C 308.677,120.791 313.677,109.125 321,98.5C 322.73,96.5981 324.563,94.9314 326.5,93.5 Z"/></g>
  <g><path style="opacity:1" fill="#fcfcfc" d="M 578.5,100.5 C 579.496,100.414 580.329,100.748 581,101.5C 587.347,115.883 591.68,130.883 594,146.5C 597.129,164.379 598.129,182.379 597,200.5C 586.003,188.159 573.836,177.325 560.5,168C 562.654,164.512 565.488,161.679 569,159.5C 570.12,155.32 568.62,153.486 564.5,154C 560.607,157.39 557.273,161.223 554.5,165.5C 550.66,163.079 546.66,160.912 542.5,159C 541.978,158.439 541.645,157.772 541.5,157C 550.502,135.861 562.835,117.028 578.5,100.5 Z"/></g>
</svg>