<?xml version="1.0" encoding="UTF-8"?>
<!DOCTYPE svg PUBLIC "-//W3C//DTD SVG 1.1//EN" "http://www.w3.org/Graphics/SVG/1.1/DTD/svg11.dtd">
<svg xmlns="http://www.w3.org/2000/svg" version="1.1" width="339px" height="340px" style="shape-rendering:geometricPrecision; text-rendering:geometricPrecision; image-rendering:optimizeQuality; fill-rule:evenodd; clip-rule:evenodd" xmlns:xlink="http://www.w3.org/1999/xlink">
<g><path style="opacity:1" fill="#fefefe" d="M -0.5,-0.5 C 112.5,-0.5 225.5,-0.5 338.5,-0.5C 338.5,112.833 338.5,226.167 338.5,339.5C 225.5,339.5 112.5,339.5 -0.5,339.5C -0.5,226.167 -0.5,112.833 -0.5,-0.5 Z"/></g>
<g><path style="opacity:1" fill="#c3c3c3" d="M 181.5,26.5 C 180.047,27.8249 180.381,28.6582 182.5,29C 181.5,29.3333 180.5,29.6667 179.5,30C 181.285,31.1628 183.285,31.8295 185.5,32C 182.176,32.9428 178.843,33.7761 175.5,34.5C 176.6,33.4415 177.934,32.6082 179.5,32C 178.26,29.5274 176.593,29.0274 174.5,30.5C 176.336,28.412 178.669,27.0787 181.5,26.5 Z"/></g>
<g><path style="opacity:1" fill="#878787" d="M 176.5,23.5 C 178.674,23.7497 180.341,24.7497 181.5,26.5C 178.669,27.0787 176.336,28.412 174.5,30.5C 173.504,30.4142 172.671,30.7476 172,31.5C 172.42,27.6624 171.253,27.4957 168.5,31C 169.833,32 169.833,33 168.5,34C 170.167,33.6667 171.833,33.3333 173.5,33C 171.759,34.6196 169.925,36.1196 168,37.5C 166.113,33.7966 164.613,34.1299 163.5,38.5C 162.711,38.2172 162.044,37.7172 161.5,37C 163.394,35.8989 164.061,34.5655 163.5,33C 167.546,29.3231 171.879,26.1564 176.5,23.5 Z"/></g>
<g><path style="opacity:1" fill="#8d8d8d" d="M 181.5,26.5 C 185.234,29.2311 188.234,32.5644 190.5,36.5C 187.813,36.6641 185.146,36.4974 182.5,36C 184.5,35.6667 186.5,35.3333 188.5,35C 184.004,34.1477 179.67,34.6477 175.5,36.5C 174.537,36.0302 174.537,35.3635 175.5,34.5C 178.843,33.7761 182.176,32.9428 185.5,32C 183.285,31.8295 181.285,31.1628 179.5,30C 180.5,29.6667 181.5,29.3333 182.5,29C 180.381,28.6582 180.047,27.8249 181.5,26.5 Z"/></g>
<g><path style="opacity:1" fill="#a4a4a4" d="M 174.5,30.5 C 176.593,29.0274 178.26,29.5274 179.5,32C 177.934,32.6082 176.6,33.4415 175.5,34.5C 174.537,35.3635 174.537,36.0302 175.5,36.5C 179.67,34.6477 184.004,34.1477 188.5,35C 186.5,35.3333 184.5,35.6667 182.5,36C 185.146,36.4974 187.813,36.6641 190.5,36.5C 191.167,36.5 191.5,36.8333 191.5,37.5C 182.098,38.1924 172.764,38.5258 163.5,38.5C 164.613,34.1299 166.113,33.7966 168,37.5C 169.925,36.1196 171.759,34.6196 173.5,33C 171.833,33.3333 170.167,33.6667 168.5,34C 169.833,33 169.833,32 168.5,31C 171.253,27.4957 172.42,27.6624 172,31.5C 172.671,30.7476 173.504,30.4142 174.5,30.5 Z"/></g>
<g><path style="opacity:1" fill="#4e4e4e" d="M 142.5,37.5 C 143.097,37.7352 143.43,38.2352 143.5,39C 142.5,41.3333 141.5,43.6667 140.5,46C 141.34,49.475 140.673,52.6417 138.5,55.5C 138.851,53.1305 139.018,50.7972 139,48.5C 137.589,50.6504 136.755,52.9837 136.5,55.5C 135.733,54.828 135.066,53.9947 134.5,53C 136.219,51.1295 137.219,48.9628 137.5,46.5C 139.42,43.6612 141.087,40.6612 142.5,37.5 Z"/></g>
<g><path style="opacity:1" fill="#b0b0b0" d="M 191.5,40.5 C 193.509,42.3778 193.842,44.5444 192.5,47C 187.072,49.0477 181.739,50.2144 176.5,50.5C 174.703,49.2702 172.703,48.6036 170.5,48.5C 170.918,47.7784 171.584,47.2784 172.5,47C 170.777,43.5921 171.777,41.2587 175.5,40C 181.016,39.1826 186.35,39.3493 191.5,40.5 Z"/></g>
<g><path style="opacity:1" fill="#e2e2e2" d="M 168.5,48.5 C 167.5,48.5 166.5,48.5 165.5,48.5C 165.34,46.8008 165.506,45.1341 166,43.5C 166.92,43.0698 167.753,42.7365 168.5,42.5C 167.349,41.269 166.183,41.269 165,42.5C 163.956,44.7148 163.29,47.0481 163,49.5C 162.51,48.2068 162.343,46.8734 162.5,45.5C 162.963,41.1974 165.296,39.3641 169.5,40C 170.959,43.0705 170.626,45.9039 168.5,48.5 Z"/></g>
<g><path style="opacity:1" fill="#fbfbfb" d="M 170.5,48.5 C 172.703,48.6036 174.703,49.2702 176.5,50.5C 181.588,51.8616 186.588,51.5283 191.5,49.5C 192.613,50.9464 192.78,52.6131 192,54.5C 189.78,59.3844 186.78,63.7178 183,67.5C 182.503,70.146 182.336,72.8127 182.5,75.5C 181.127,75.3433 179.793,75.51 178.5,76C 175.79,79.017 172.79,81.517 169.5,83.5C 164.203,86.5296 160.537,85.0296 158.5,79C 161.362,69.6408 162.529,60.1408 162,50.5C 164.072,53.1537 165.739,52.8204 167,49.5C 167.823,56.1344 168.323,56.1344 168.5,49.5C 169.167,49.1667 169.833,48.8333 170.5,48.5 Z"/></g>
<g><path style="opacity:1" fill="#777777" d="M 191.5,37.5 C 195.447,42.6189 196.447,48.2856 194.5,54.5C 193.835,52.6309 193.169,50.6309 192.5,48.5C 191.893,48.6236 191.56,48.9569 191.5,49.5C 186.588,51.5283 181.588,51.8616 176.5,50.5C 181.739,50.2144 187.072,49.0477 192.5,47C 193.842,44.5444 193.509,42.3778 191.5,40.5C 186.35,39.3493 181.016,39.1826 175.5,40C 171.777,41.2587 170.777,43.5921 172.5,47C 171.584,47.2784 170.918,47.7784 170.5,48.5C 169.833,48.8333 169.167,49.1667 168.5,49.5C 168.5,49.1667 168.5,48.8333 168.5,48.5C 170.626,45.9039 170.959,43.0705 169.5,40C 165.296,39.3641 162.963,41.1974 162.5,45.5C 161.778,45.9175 161.278,46.5842 161,47.5C 160.617,46.944 160.117,46.6107 159.5,46.5C 160.399,43.605 161.733,40.9384 163.5,38.5C 172.764,38.5258 182.098,38.1924 191.5,37.5 Z"/></g>
<g><path style="opacity:1" fill="#dbdbdb" d="M 191.5,40.5 C 191.082,41.2216 190.416,41.7216 189.5,42C 192.167,42.6667 192.167,43.3333 189.5,44C 185.5,44.6667 181.5,44.6667 177.5,44C 181.167,43.6667 184.833,43.3333 188.5,43C 185.5,42.6667 182.5,42.3333 179.5,42C 183.528,41.6082 187.528,41.1082 191.5,40.5 Z"/></g>
<g><path style="opacity:1" fill="#a6a6a6" d="M 315.5,56.5 C 316.48,53.8839 317.98,51.5506 320,49.5C 319.546,52.386 318.046,54.7194 315.5,56.5 Z"/></g>
<g><path style="opacity:1" fill="#a8a8a8" d="M 315.5,56.5 C 312.89,61.7671 309.89,66.7671 306.5,71.5C 308.315,65.708 311.315,60.708 315.5,56.5 Z"/></g>
<g><path style="opacity:1" fill="#cbcbcb" d="M 138.5,55.5 C 136.862,59.8757 136.029,64.5424 136,69.5C 135.026,67.1224 134.359,67.4557 134,70.5C 133.762,66.7778 133.262,63.1111 132.5,59.5C 132.846,58.3044 133.346,58.3044 134,59.5C 134.333,60.5 134.667,61.5 135,62.5C 135.29,60.0796 135.79,57.7463 136.5,55.5C 136.755,52.9837 137.589,50.6504 139,48.5C 139.018,50.7972 138.851,53.1305 138.5,55.5 Z"/></g>
<g><path style="opacity:1" fill="#a2a2a2" d="M 191.5,49.5 C 191.56,48.9569 191.893,48.6236 192.5,48.5C 193.169,50.6309 193.835,52.6309 194.5,54.5C 193.907,62.1793 192.073,69.5126 189,76.5C 186.667,78.5 184.333,80.5 182,82.5C 181.809,84.7078 181.309,86.7078 180.5,88.5C 180.66,86.8008 180.494,85.1341 180,83.5C 179.641,86.5443 178.974,86.8776 178,84.5C 177.722,85.4158 177.222,86.0825 176.5,86.5C 174.883,87.5893 174.05,89.256 174,91.5C 173.027,89.6079 172.36,87.6079 172,85.5C 170.964,88.7527 170.297,92.086 170,95.5C 169.667,93.8333 169.333,92.1667 169,90.5C 168.505,93.5314 168.671,96.5314 169.5,99.5C 169.101,104.974 169.101,110.64 169.5,116.5C 168.5,116.5 167.5,116.5 166.5,116.5C 166.529,110.79 166.029,105.123 165,99.5C 163.915,98.2644 163.082,96.9311 162.5,95.5C 162.338,93.4727 162.505,91.4727 163,89.5C 163.333,90.1667 163.667,90.8333 164,91.5C 163.92,87.013 165.42,86.013 168.5,88.5C 169.452,86.9547 169.785,85.288 169.5,83.5C 172.79,81.517 175.79,79.017 178.5,76C 179.793,75.51 181.127,75.3433 182.5,75.5C 182.336,72.8127 182.503,70.146 183,67.5C 186.78,63.7178 189.78,59.3844 192,54.5C 192.78,52.6131 192.613,50.9464 191.5,49.5 Z"/></g>
<g><path style="opacity:1" fill="#eaeaea" d="M 157.5,89.5 C 157.5,90.8333 157.5,92.1667 157.5,93.5C 157.672,94.4916 157.338,95.1583 156.5,95.5C 155.85,93.5648 155.517,91.5648 155.5,89.5C 155.5,88.1667 155.5,86.8333 155.5,85.5C 154.326,75.3945 154.992,65.3945 157.5,55.5C 157.687,53.4357 158.187,51.4357 159,49.5C 158.608,54.8136 157.941,60.147 157,65.5C 156.177,73.6775 156.344,81.6775 157.5,89.5 Z"/></g>
<g><path style="opacity:1" fill="#efefef" d="M 143.5,82.5 C 143.167,80.5 142.833,78.5 142.5,76.5C 143.043,64.3249 146.376,52.9915 152.5,42.5C 153.458,42.0472 154.292,41.3805 155,40.5C 147.435,53.4234 143.601,67.4234 143.5,82.5 Z"/></g>
<g><path style="opacity:1" fill="#b3b3b3" d="M 176.5,23.5 C 171.879,26.1564 167.546,29.3231 163.5,33C 164.061,34.5655 163.394,35.8989 161.5,37C 162.044,37.7172 162.711,38.2172 163.5,38.5C 161.733,40.9384 160.399,43.605 159.5,46.5C 157.806,48.7156 156.473,51.2156 155.5,54C 155.836,55.0299 156.503,55.5299 157.5,55.5C 154.992,65.3945 154.326,75.3945 155.5,85.5C 154.778,85.9175 154.278,86.5842 154,87.5C 153.667,86.5 153.333,85.5 153,84.5C 152.399,86.1368 151.899,87.8034 151.5,89.5C 152.378,92.1298 153.045,94.7965 153.5,97.5C 152.5,96.1667 151.5,94.8333 150.5,93.5C 148.674,91.8525 147.34,89.8525 146.5,87.5C 148.092,88.6016 148.925,87.935 149,85.5C 149.799,89.4239 150.299,89.4239 150.5,85.5C 149.811,79.8529 149.311,74.1862 149,68.5C 148.667,73.8333 148.333,79.1667 148,84.5C 147.833,81.3333 147.667,78.1667 147.5,75C 147.701,67.6908 148.534,60.5241 150,53.5C 145.881,63.8708 144.715,74.5374 146.5,85.5C 145.167,84.8333 144.167,83.8333 143.5,82.5C 143.601,67.4234 147.435,53.4234 155,40.5C 154.292,41.3805 153.458,42.0472 152.5,42.5C 151.957,42.44 151.624,42.1067 151.5,41.5C 155.278,36.2196 159.611,31.3862 164.5,27C 163.944,26.6174 163.611,26.1174 163.5,25.5C 164.969,23.8947 164.635,23.3947 162.5,24C 153.965,30.3595 147.965,38.5262 144.5,48.5C 144.539,49.5832 144.873,50.5832 145.5,51.5C 145.154,52.6956 144.654,52.6956 144,51.5C 143.138,53.087 142.471,54.7536 142,56.5C 141.667,55.8333 141.333,55.1667 141,54.5C 140.399,56.1368 139.899,57.8034 139.5,59.5C 140.327,62.7831 140.66,66.1165 140.5,69.5C 140.665,72.8499 140.498,76.1832 140,79.5C 139.178,76.8832 138.678,74.2165 138.5,71.5C 137.296,66.189 137.296,60.8557 138.5,55.5C 140.673,52.6417 141.34,49.475 140.5,46C 141.5,43.6667 142.5,41.3333 143.5,39C 143.43,38.2352 143.097,37.7352 142.5,37.5C 145.923,29.5757 151.59,23.7423 159.5,20C 165.982,17.5569 171.649,18.7235 176.5,23.5 Z"/></g>
<g><path style="opacity:1" fill="#9d9d9d" d="M 163.5,25.5 C 163.611,26.1174 163.944,26.6174 164.5,27C 159.611,31.3862 155.278,36.2196 151.5,41.5C 151.624,42.1067 151.957,42.44 152.5,42.5C 146.376,52.9915 143.043,64.3249 142.5,76.5C 141.833,74.1667 141.167,71.8333 140.5,69.5C 140.66,66.1165 140.327,62.7831 139.5,59.5C 139.899,57.8034 140.399,56.1368 141,54.5C 141.333,55.1667 141.667,55.8333 142,56.5C 142.471,54.7536 143.138,53.087 144,51.5C 144.654,52.6956 145.154,52.6956 145.5,51.5C 144.873,50.5832 144.539,49.5832 144.5,48.5C 149.64,39.9122 155.973,32.2455 163.5,25.5 Z"/></g>
<g><path style="opacity:1" fill="#f0f0f0" d="M 163.5,25.5 C 155.973,32.2455 149.64,39.9122 144.5,48.5C 147.965,38.5262 153.965,30.3595 162.5,24C 164.635,23.3947 164.969,23.8947 163.5,25.5 Z"/></g>
<g><path style="opacity:1" fill="#989898" d="M 137.5,46.5 C 137.219,48.9628 136.219,51.1295 134.5,53C 135.066,53.9947 135.733,54.828 136.5,55.5C 135.79,57.7463 135.29,60.0796 135,62.5C 134.667,61.5 134.333,60.5 134,59.5C 133.346,58.3044 132.846,58.3044 132.5,59.5C 133.262,63.1111 133.762,66.7778 134,70.5C 134.359,67.4557 135.026,67.1224 136,69.5C 136.029,64.5424 136.862,59.8757 138.5,55.5C 137.296,60.8557 137.296,66.189 138.5,71.5C 137.868,74.6095 136.868,76.9428 135.5,78.5C 134.29,78.0679 133.29,77.4013 132.5,76.5C 128.738,76.3476 125.072,75.681 121.5,74.5C 120.482,75.1925 119.482,75.8592 118.5,76.5C 122.693,70.6368 127.027,64.8034 131.5,59C 131.167,58.6667 130.833,58.3333 130.5,58C 132.319,56.5847 132.985,55.0847 132.5,53.5C 133.786,50.883 135.453,48.5496 137.5,46.5 Z"/></g>
<g><path style="opacity:1" fill="#f3f3f3" d="M 132.5,76.5 C 129.656,75.3838 126.656,74.3838 123.5,73.5C 125.791,71.7122 127.957,69.7122 130,67.5C 131.247,70.3286 132.747,72.9952 134.5,75.5C 134.043,76.2975 133.376,76.6309 132.5,76.5 Z"/></g>
<g><path style="opacity:1" fill="#fdfdfd" d="M 132.5,76.5 C 133.29,77.4013 134.29,78.0679 135.5,78.5C 138.904,81.718 142.57,84.718 146.5,87.5C 147.34,89.8525 148.674,91.8525 150.5,93.5C 150.838,95.854 151.338,98.1873 152,100.5C 152.667,99.1667 153.333,99.1667 154,100.5C 154.483,101.448 154.649,102.448 154.5,103.5C 154.66,105.199 154.494,106.866 154,108.5C 153.667,106.167 153.333,103.833 153,101.5C 152.323,115.854 152.656,130.188 154,144.5C 155.247,147.329 156.747,149.995 158.5,152.5C 163.841,154.168 169.175,155.835 174.5,157.5C 177.833,157.833 181.167,158.167 184.5,158.5C 184.783,159.289 185.283,159.956 186,160.5C 186.499,165.155 186.666,169.821 186.5,174.5C 185.733,175.172 185.066,176.005 184.5,177C 173.5,177.667 162.5,177.667 151.5,177C 147.248,176.44 143.248,175.273 139.5,173.5C 138.921,170.669 137.588,168.336 135.5,166.5C 135.762,167.978 135.429,169.311 134.5,170.5C 127.045,167.719 119.378,165.719 111.5,164.5C 109.485,163.076 107.152,162.41 104.5,162.5C 100.301,161.029 95.9674,159.695 91.5,158.5C 91.3796,156.801 91.0463,155.135 90.5,153.5C 91.5103,150.817 92.5103,148.151 93.5,145.5C 95.7949,141.814 97.6282,137.814 99,133.5C 100.549,124.872 101.882,116.206 103,107.5C 104.288,101.464 106.455,95.7972 109.5,90.5C 111.102,86.9046 113.102,83.5712 115.5,80.5C 117.262,79.7377 118.262,78.4044 118.5,76.5C 119.482,75.8592 120.482,75.1925 121.5,74.5C 125.072,75.681 128.738,76.3476 132.5,76.5 Z"/></g>
<g><path style="opacity:1" fill="#575757" d="M 140.5,69.5 C 141.167,71.8333 141.833,74.1667 142.5,76.5C 142.833,78.5 143.167,80.5 143.5,82.5C 144.167,83.8333 145.167,84.8333 146.5,85.5C 146.5,86.1667 146.5,86.8333 146.5,87.5C 142.57,84.718 138.904,81.718 135.5,78.5C 136.868,76.9428 137.868,74.6095 138.5,71.5C 138.678,74.2165 139.178,76.8832 140,79.5C 140.498,76.1832 140.665,72.8499 140.5,69.5 Z"/></g>
<g><path style="opacity:1" fill="#cbcbcb" d="M 300.5,90.5 C 297.03,92.9162 296.697,92.2495 299.5,88.5C 298.5,88.5 297.5,88.5 296.5,88.5C 298.952,85.394 300.952,82.0607 302.5,78.5C 303.079,75.6689 304.412,73.3356 306.5,71.5C 306.775,73.8418 307.608,73.8418 309,71.5C 313.167,65.1667 317.333,58.8333 321.5,52.5C 321.833,52.6667 322.167,52.8333 322.5,53C 320.968,55.0344 319.635,57.2011 318.5,59.5C 319.5,59.5 320.5,59.5 321.5,59.5C 314.724,70.0721 307.724,80.4054 300.5,90.5 Z"/></g>
<g><path style="opacity:1" fill="#adadad" d="M 132.5,53.5 C 132.985,55.0847 132.319,56.5847 130.5,58C 130.833,58.3333 131.167,58.6667 131.5,59C 127.027,64.8034 122.693,70.6368 118.5,76.5C 118.262,78.4044 117.262,79.7377 115.5,80.5C 115.565,80.0618 115.399,79.7284 115,79.5C 112.658,82.1461 110.491,85.4795 108.5,89.5C 108.624,90.1067 108.957,90.44 109.5,90.5C 106.455,95.7972 104.288,101.464 103,107.5C 101.882,116.206 100.549,124.872 99,133.5C 97.6282,137.814 95.7949,141.814 93.5,145.5C 97.8202,133.923 100.32,121.923 101,109.5C 101.858,105.398 103.025,101.398 104.5,97.5C 103.144,94.1028 103.311,90.7694 105,87.5C 113.466,75.5473 122.633,64.214 132.5,53.5 Z"/></g>
<g><path style="opacity:1" fill="#ebebeb" d="M 146.5,87.5 C 146.5,86.8333 146.5,86.1667 146.5,85.5C 144.715,74.5374 145.881,63.8708 150,53.5C 148.534,60.5241 147.701,67.6908 147.5,75C 147.667,78.1667 147.833,81.3333 148,84.5C 148.333,79.1667 148.667,73.8333 149,68.5C 149.311,74.1862 149.811,79.8529 150.5,85.5C 150.299,89.4239 149.799,89.4239 149,85.5C 148.925,87.935 148.092,88.6016 146.5,87.5 Z"/></g>
<g><path style="opacity:1" fill="#929292" d="M 168.5,48.5 C 168.5,48.8333 168.5,49.1667 168.5,49.5C 168.323,56.1344 167.823,56.1344 167,49.5C 165.739,52.8204 164.072,53.1537 162,50.5C 162.529,60.1408 161.362,69.6408 158.5,79C 160.537,85.0296 164.203,86.5296 169.5,83.5C 169.785,85.288 169.452,86.9547 168.5,88.5C 165.42,86.013 163.92,87.013 164,91.5C 163.667,90.8333 163.333,90.1667 163,89.5C 162.505,91.4727 162.338,93.4727 162.5,95.5C 160.016,93.8802 158.516,91.5469 158,88.5C 157.601,88.7284 157.435,89.0618 157.5,89.5C 156.344,81.6775 156.177,73.6775 157,65.5C 157.941,60.147 158.608,54.8136 159,49.5C 158.187,51.4357 157.687,53.4357 157.5,55.5C 156.503,55.5299 155.836,55.0299 155.5,54C 156.473,51.2156 157.806,48.7156 159.5,46.5C 160.117,46.6107 160.617,46.944 161,47.5C 161.278,46.5842 161.778,45.9175 162.5,45.5C 162.343,46.8734 162.51,48.2068 163,49.5C 163.29,47.0481 163.956,44.7148 165,42.5C 166.183,41.269 167.349,41.269 168.5,42.5C 167.753,42.7365 166.92,43.0698 166,43.5C 165.506,45.1341 165.34,46.8008 165.5,48.5C 166.5,48.5 167.5,48.5 168.5,48.5 Z"/></g>
<g><path style="opacity:1" fill="#777777" d="M 115.5,80.5 C 113.102,83.5712 111.102,86.9046 109.5,90.5C 108.957,90.44 108.624,90.1067 108.5,89.5C 110.491,85.4795 112.658,82.1461 115,79.5C 115.399,79.7284 115.565,80.0618 115.5,80.5 Z"/></g>
<g><path style="opacity:1" fill="#e4e4e4" d="M 180.5,88.5 C 179.686,90.631 179.186,92.9644 179,95.5C 178.667,92.8333 178.333,90.1667 178,87.5C 177.667,93.1667 177.333,98.8333 177,104.5C 176.501,98.5092 176.334,92.5092 176.5,86.5C 177.222,86.0825 177.722,85.4158 178,84.5C 178.974,86.8776 179.641,86.5443 180,83.5C 180.494,85.1341 180.66,86.8008 180.5,88.5 Z"/></g>
<g><path style="opacity:1" fill="#6c6c6c" d="M 155.5,89.5 C 155.517,91.5648 155.85,93.5648 156.5,95.5C 157.909,97.3049 158.409,99.3049 158,101.5C 155.632,97.4021 154.299,93.0688 154,88.5C 154.383,89.056 154.883,89.3893 155.5,89.5 Z"/></g>
<g><path style="opacity:1" fill="#a3a3a3" d="M 302.5,78.5 C 300.952,82.0607 298.952,85.394 296.5,88.5C 297.5,88.5 298.5,88.5 299.5,88.5C 296.697,92.2495 297.03,92.9162 300.5,90.5C 300.297,92.0443 299.63,93.3777 298.5,94.5C 304.834,95.4265 311.168,95.5931 317.5,95C 310.977,96.1316 304.311,96.9649 297.5,97.5C 303.504,98.7495 309.504,98.7495 315.5,97.5C 318.063,97.737 318.063,98.237 315.5,99C 289.836,98.8075 264.169,98.8075 238.5,99C 244.405,100.073 250.072,101.573 255.5,103.5C 247.732,102.58 240.066,101.08 232.5,99C 227.167,98.3333 221.833,98.3333 216.5,99C 249.638,106.868 282.638,115.201 315.5,124C 281.414,116.479 247.414,108.312 213.5,99.5C 212.121,102.467 212.454,105.134 214.5,107.5C 213.07,107.579 211.736,107.246 210.5,106.5C 209.226,107.359 209.392,108.026 211,108.5C 215.11,109.816 219.276,110.816 223.5,111.5C 253.299,121.29 283.299,130.79 313.5,140C 315.595,140.556 315.762,141.056 314,141.5C 280.464,131.266 246.964,120.932 213.5,110.5C 212.438,111.425 212.438,112.425 213.5,113.5C 212.935,115.952 212.268,118.285 211.5,120.5C 211.407,115.973 210.407,111.64 208.5,107.5C 209.869,104.47 210.869,101.303 211.5,98C 239.853,97.2087 268.186,97.3753 296.5,98.5C 296.844,95.3799 296.177,92.5466 294.5,90C 296.321,85.5058 298.988,81.6725 302.5,78.5 Z"/></g>
<g><path style="opacity:1" fill="#b8b8b8" d="M 176.5,86.5 C 176.334,92.5092 176.501,98.5092 177,104.5C 177.333,98.8333 177.667,93.1667 178,87.5C 178.333,90.1667 178.667,92.8333 179,95.5C 179.186,92.9644 179.686,90.631 180.5,88.5C 180.666,94.5092 180.499,100.509 180,106.5C 179.434,108.723 178.6,110.723 177.5,112.5C 176.791,111.596 175.791,111.263 174.5,111.5C 174.833,114.5 173.5,115.833 170.5,115.5C 170.733,110.105 170.4,104.772 169.5,99.5C 168.671,96.5314 168.505,93.5314 169,90.5C 169.333,92.1667 169.667,93.8333 170,95.5C 170.297,92.086 170.964,88.7527 172,85.5C 172.36,87.6079 173.027,89.6079 174,91.5C 174.05,89.256 174.883,87.5893 176.5,86.5 Z"/></g>
<g><path style="opacity:1" fill="#767676" d="M 150.5,93.5 C 151.5,94.8333 152.5,96.1667 153.5,97.5C 155.179,98.9997 156.512,100.833 157.5,103C 156.552,103.483 155.552,103.649 154.5,103.5C 154.649,102.448 154.483,101.448 154,100.5C 153.333,99.1667 152.667,99.1667 152,100.5C 151.338,98.1873 150.838,95.854 150.5,93.5 Z"/></g>
<g><path style="opacity:1" fill="#a3a3a3" d="M 155.5,85.5 C 155.5,86.8333 155.5,88.1667 155.5,89.5C 154.883,89.3893 154.383,89.056 154,88.5C 154.299,93.0688 155.632,97.4021 158,101.5C 158.409,99.3049 157.909,97.3049 156.5,95.5C 157.338,95.1583 157.672,94.4916 157.5,93.5C 163.398,98.6815 165.731,105.348 164.5,113.5C 163.674,116.807 161.674,119.141 158.5,120.5C 158.062,120.565 157.728,120.399 157.5,120C 160.639,116.765 161.805,112.931 161,108.5C 160.64,110.608 159.973,112.608 159,114.5C 158.667,111.5 158.333,108.5 158,105.5C 157.24,109.225 157.407,112.892 158.5,116.5C 157.807,117.518 157.141,118.518 156.5,119.5C 153.999,119.489 153.832,118.822 156,117.5C 156.667,113.833 156.667,110.167 156,106.5C 155.627,110.785 154.794,114.951 153.5,119C 156.316,126.662 156.983,134.495 155.5,142.5C 155.931,145.366 156.931,148.032 158.5,150.5C 162.918,152.352 167.418,154.019 172,155.5C 172.452,151.281 173.952,147.614 176.5,144.5C 176.792,145.874 177.125,147.207 177.5,148.5C 176.612,151.054 176.279,153.721 176.5,156.5C 175.075,154.969 174.409,155.302 174.5,157.5C 169.175,155.835 163.841,154.168 158.5,152.5C 156.747,149.995 155.247,147.329 154,144.5C 152.656,130.188 152.323,115.854 153,101.5C 153.333,103.833 153.667,106.167 154,108.5C 154.494,106.866 154.66,105.199 154.5,103.5C 155.552,103.649 156.552,103.483 157.5,103C 156.512,100.833 155.179,98.9997 153.5,97.5C 153.045,94.7965 152.378,92.1298 151.5,89.5C 151.899,87.8034 152.399,86.1368 153,84.5C 153.333,85.5 153.667,86.5 154,87.5C 154.278,86.5842 154.778,85.9175 155.5,85.5 Z"/></g>
<g><path style="opacity:1" fill="#efefef" d="M 214.5,107.5 C 217.5,108.833 220.5,110.167 223.5,111.5C 219.276,110.816 215.11,109.816 211,108.5C 209.392,108.026 209.226,107.359 210.5,106.5C 211.736,107.246 213.07,107.579 214.5,107.5 Z"/></g>
<g><path style="opacity:1" fill="#626262" d="M 162.5,95.5 C 163.082,96.9311 163.915,98.2644 165,99.5C 166.029,105.123 166.529,110.79 166.5,116.5C 167.5,116.5 168.5,116.5 169.5,116.5C 169.101,110.64 169.101,104.974 169.5,99.5C 170.4,104.772 170.733,110.105 170.5,115.5C 173.5,115.833 174.833,114.5 174.5,111.5C 175.791,111.263 176.791,111.596 177.5,112.5C 176.331,115.511 174.664,118.178 172.5,120.5C 171.707,119.645 172.04,118.811 173.5,118C 171.339,117.278 169.672,117.945 168.5,120C 167.167,120.667 165.833,120.667 164.5,120C 164.014,117.973 164.014,115.807 164.5,113.5C 165.731,105.348 163.398,98.6815 157.5,93.5C 157.5,92.1667 157.5,90.8333 157.5,89.5C 157.435,89.0618 157.601,88.7284 158,88.5C 158.516,91.5469 160.016,93.8802 162.5,95.5 Z"/></g>
<g><path style="opacity:1" fill="#a7a7a7" d="M 214.5,107.5 C 233.832,112.412 252.832,118.078 271.5,124.5C 255.5,120.167 239.5,115.833 223.5,111.5C 220.5,110.167 217.5,108.833 214.5,107.5 Z"/></g>
<g><path style="opacity:1" fill="#c8c8c8" d="M 158.5,120.5 C 157.377,121.757 156.711,121.424 156.5,119.5C 157.141,118.518 157.807,117.518 158.5,116.5C 157.407,112.892 157.24,109.225 158,105.5C 158.333,108.5 158.667,111.5 159,114.5C 159.973,112.608 160.64,110.608 161,108.5C 161.805,112.931 160.639,116.765 157.5,120C 157.728,120.399 158.062,120.565 158.5,120.5 Z"/></g>
<g><path style="opacity:1" fill="#adadad" d="M 255.5,103.5 C 263.268,104.42 270.935,105.92 278.5,108C 290.181,108.167 301.848,108.667 313.5,109.5C 306.858,110.331 300.191,110.831 293.5,111C 301.645,112.703 309.645,114.703 317.5,117C 296.609,113.243 275.942,108.743 255.5,103.5 Z"/></g>
<g><path style="opacity:1" fill="#a8a8a8" d="M 271.5,124.5 C 286.663,128.22 301.663,132.554 316.5,137.5C 316.167,137.833 315.833,138.167 315.5,138.5C 300.626,134.122 285.959,129.455 271.5,124.5 Z"/></g>
<g><path style="opacity:1" fill="#b7b7b7" d="M 213.5,113.5 C 214.888,122.644 213.055,131.311 208,139.5C 205.838,141.496 203.338,142.83 200.5,143.5C 200.082,142.778 199.416,142.278 198.5,142C 199.416,141.722 200.082,141.222 200.5,140.5C 207.268,135.639 210.934,128.972 211.5,120.5C 212.268,118.285 212.935,115.952 213.5,113.5 Z"/></g>
<g><path style="opacity:1" fill="#a8a8a8" d="M 135.5,166.5 C 130.094,152.115 125.594,137.448 122,122.5C 123.908,125.215 125.241,128.215 126,131.5C 129.278,143.162 132.445,154.829 135.5,166.5 Z"/></g>
<g><path style="opacity:1" fill="#919191" d="M 200.5,140.5 C 200.082,141.222 199.416,141.722 198.5,142C 199.416,142.278 200.082,142.778 200.5,143.5C 193.084,143.92 185.75,144.753 178.5,146C 179.044,146.717 179.711,147.217 180.5,147.5C 180.833,148.167 181.167,148.833 181.5,149.5C 181.842,150.338 182.508,150.672 183.5,150.5C 183.5,151.167 183.5,151.833 183.5,152.5C 184.376,152.369 185.043,152.702 185.5,153.5C 184.691,155.071 184.357,156.738 184.5,158.5C 181.167,158.167 177.833,157.833 174.5,157.5C 174.409,155.302 175.075,154.969 176.5,156.5C 178.378,155.126 179.378,153.126 179.5,150.5C 179.333,149.833 179.167,149.167 179,148.5C 178.31,147.262 177.81,147.262 177.5,148.5C 177.125,147.207 176.792,145.874 176.5,144.5C 184.448,143.072 192.448,141.738 200.5,140.5 Z"/></g>
<g><path style="opacity:1" fill="#f6f6f6" d="M 176.5,156.5 C 176.279,153.721 176.612,151.054 177.5,148.5C 177.81,147.262 178.31,147.262 179,148.5C 179.167,149.167 179.333,149.833 179.5,150.5C 179.378,153.126 178.378,155.126 176.5,156.5 Z"/></g>
<g><path style="opacity:1" fill="#cbcbcb" d="M 180.5,147.5 C 191.014,147.172 201.347,147.506 211.5,148.5C 203.981,148.175 196.648,148.508 189.5,149.5C 186.833,149.5 184.167,149.5 181.5,149.5C 181.167,148.833 180.833,148.167 180.5,147.5 Z"/></g>
<g><path style="opacity:1" fill="#9e9e9e" d="M 189.5,149.5 C 196.648,148.508 203.981,148.175 211.5,148.5C 212.833,149.833 214.167,151.167 215.5,152.5C 213.473,152.662 211.473,152.495 209.5,152C 209.957,151.586 210.291,151.086 210.5,150.5C 206.555,149.509 202.555,149.176 198.5,149.5C 195.5,149.5 192.5,149.5 189.5,149.5 Z"/></g>
<g><path style="opacity:1" fill="#f8f8f8" d="M 181.5,149.5 C 184.167,149.5 186.833,149.5 189.5,149.5C 192.5,149.5 195.5,149.5 198.5,149.5C 198.5,149.833 198.5,150.167 198.5,150.5C 194.566,151.36 190.566,151.693 186.5,151.5C 185.391,151.443 184.391,151.11 183.5,150.5C 182.508,150.672 181.842,150.338 181.5,149.5 Z"/></g>
<g><path style="opacity:1" fill="#eeeeee" d="M 183.5,152.5 C 183.785,154.288 183.452,155.955 182.5,157.5C 182.167,156.667 181.833,155.833 181.5,155C 181.684,153.624 182.351,152.791 183.5,152.5 Z"/></g>
<g><path style="opacity:1" fill="#bdbdbd" d="M 198.5,150.5 C 198.5,150.167 198.5,149.833 198.5,149.5C 202.555,149.176 206.555,149.509 210.5,150.5C 210.291,151.086 209.957,151.586 209.5,152C 211.473,152.495 213.473,152.662 215.5,152.5C 217.027,152.427 218.027,153.094 218.5,154.5C 212.903,156.733 207.237,156.733 201.5,154.5C 200.833,154.833 200.167,155.167 199.5,155.5C 200.588,156.934 201.922,157.934 203.5,158.5C 196.905,158.969 190.571,158.969 184.5,158.5C 184.357,156.738 184.691,155.071 185.5,153.5C 185.043,152.702 184.376,152.369 183.5,152.5C 183.5,151.833 183.5,151.167 183.5,150.5C 184.391,151.11 185.391,151.443 186.5,151.5C 189.305,152.319 192.305,152.819 195.5,153C 193.5,153.333 191.5,153.667 189.5,154C 193.594,154.767 197.594,154.434 201.5,153C 200.5,152.667 199.5,152.333 198.5,152C 199.738,151.31 199.738,150.81 198.5,150.5 Z"/></g>
<g><path style="opacity:1" fill="#888888" d="M 198.5,150.5 C 199.738,150.81 199.738,151.31 198.5,152C 199.5,152.333 200.5,152.667 201.5,153C 197.594,154.434 193.594,154.767 189.5,154C 191.5,153.667 193.5,153.333 195.5,153C 192.305,152.819 189.305,152.319 186.5,151.5C 190.566,151.693 194.566,151.36 198.5,150.5 Z"/></g>
<g><path style="opacity:1" fill="#7a7a7a" d="M 218.5,154.5 C 221.331,155.079 223.664,156.412 225.5,158.5C 219.357,157.281 213.357,157.281 207.5,158.5C 206.761,158.369 206.094,158.536 205.5,159C 207.495,159.924 207.828,161.09 206.5,162.5C 206.167,162.5 205.833,162.5 205.5,162.5C 204.833,162.5 204.167,162.5 203.5,162.5C 204.686,161.039 204.686,159.705 203.5,158.5C 201.922,157.934 200.588,156.934 199.5,155.5C 200.167,155.167 200.833,154.833 201.5,154.5C 207.237,156.733 212.903,156.733 218.5,154.5 Z"/></g>
<g><path style="opacity:1" fill="#fcfcfc" d="M 104.5,162.5 C 106.515,163.924 108.848,164.59 111.5,164.5C 120.839,167.175 130.173,170.175 139.5,173.5C 141.257,176.818 140.424,179.151 137,180.5C 121.472,177.54 105.972,174.54 90.5,171.5C 89.9094,170.849 89.2427,170.182 88.5,169.5C 89.5352,166.002 90.8686,162.669 92.5,159.5C 96.126,161.971 100.126,162.971 104.5,162.5 Z"/></g>
<g><path style="opacity:1" fill="#969696" d="M 203.5,158.5 C 204.686,159.705 204.686,161.039 203.5,162.5C 198.242,161.573 192.909,160.906 187.5,160.5C 187.942,162.972 188.275,165.472 188.5,168C 188.664,170.544 187.997,172.71 186.5,174.5C 186.666,169.821 186.499,165.155 186,160.5C 185.283,159.956 184.783,159.289 184.5,158.5C 190.571,158.969 196.905,158.969 203.5,158.5 Z"/></g>
<g><path style="opacity:1" fill="#a4a4a4" d="M 93.5,145.5 C 92.5103,148.151 91.5103,150.817 90.5,153.5C 91.0463,155.135 91.3796,156.801 91.5,158.5C 95.9674,159.695 100.301,161.029 104.5,162.5C 100.126,162.971 96.126,161.971 92.5,159.5C 90.8686,162.669 89.5352,166.002 88.5,169.5C 89.2427,170.182 89.9094,170.849 90.5,171.5C 89.5,171.5 88.5,171.5 87.5,171.5C 88.1018,166.925 89.1018,162.425 90.5,158C 88.6776,153.072 89.6776,148.905 93.5,145.5 Z"/></g>
<g><path style="opacity:1" fill="#fdfdfd" d="M 203.5,162.5 C 205.116,167.212 204.783,171.712 202.5,176C 199.833,176.167 197.167,176.333 194.5,176.5C 191.41,176.478 188.743,175.812 186.5,174.5C 187.997,172.71 188.664,170.544 188.5,168C 188.275,165.472 187.942,162.972 187.5,160.5C 192.909,160.906 198.242,161.573 203.5,162.5 Z"/></g>
<g><path style="opacity:1" fill="#c4c4c4" d="M 207.5,158.5 C 213.357,157.281 219.357,157.281 225.5,158.5C 227.882,159.351 229.882,160.684 231.5,162.5C 231.082,163.222 230.416,163.722 229.5,164C 230.833,164.333 232.167,164.667 233.5,165C 225.5,165.667 225.5,166.333 233.5,167C 229.112,167.577 224.779,167.244 220.5,166C 221.833,165.667 223.167,165.333 224.5,165C 213.833,164.333 213.833,163.667 224.5,163C 220.5,162.667 216.5,162.333 212.5,162C 213.833,161.667 215.167,161.333 216.5,161C 208.833,160.187 209.166,159.521 217.5,159C 214.183,158.502 210.85,158.335 207.5,158.5 Z"/></g>
<g><path style="opacity:1" fill="#a0a0a0" d="M 104.5,162.5 C 107.152,162.41 109.485,163.076 111.5,164.5C 108.848,164.59 106.515,163.924 104.5,162.5 Z"/></g>
<g><path style="opacity:1" fill="#f9f9f9" d="M 205.5,162.5 C 205.833,162.5 206.167,162.5 206.5,162.5C 217.607,167.193 229.274,169.86 241.5,170.5C 237.651,171.372 233.651,171.539 229.5,171C 231.635,172.381 233.968,173.381 236.5,174C 234.754,174.471 233.087,175.138 231.5,176C 231.833,176.333 232.167,176.667 232.5,177C 236.609,177.944 240.609,178.778 244.5,179.5C 243.609,180.11 242.609,180.443 241.5,180.5C 241.167,180.5 240.833,180.5 240.5,180.5C 231.178,179.107 221.844,177.774 212.5,176.5C 211.329,175.655 209.995,174.989 208.5,174.5C 207.5,174.5 206.5,174.5 205.5,174.5C 205.5,170.5 205.5,166.5 205.5,162.5 Z"/></g>
<g><path style="opacity:1" fill="#939393" d="M 207.5,158.5 C 210.85,158.335 214.183,158.502 217.5,159C 209.166,159.521 208.833,160.187 216.5,161C 215.167,161.333 213.833,161.667 212.5,162C 216.5,162.333 220.5,162.667 224.5,163C 213.833,163.667 213.833,164.333 224.5,165C 223.167,165.333 221.833,165.667 220.5,166C 224.779,167.244 229.112,167.577 233.5,167C 225.5,166.333 225.5,165.667 233.5,165C 232.167,164.667 230.833,164.333 229.5,164C 230.416,163.722 231.082,163.222 231.5,162.5C 238.11,165.808 244.444,169.642 250.5,174C 252.134,174.494 253.801,174.66 255.5,174.5C 255.721,176.664 256.721,178.33 258.5,179.5C 253.25,179.084 248.416,180.084 244,182.5C 243.005,181.934 242.172,181.267 241.5,180.5C 242.609,180.443 243.609,180.11 244.5,179.5C 245.167,179.167 245.833,178.833 246.5,178.5C 249.157,178.838 251.49,178.171 253.5,176.5C 252.675,175.614 251.675,175.281 250.5,175.5C 248.821,175.108 247.154,174.608 245.5,174C 244.468,172.373 243.134,171.207 241.5,170.5C 229.274,169.86 217.607,167.193 206.5,162.5C 207.828,161.09 207.495,159.924 205.5,159C 206.094,158.536 206.761,158.369 207.5,158.5 Z"/></g>
<g><path style="opacity:1" fill="#a9a9a9" d="M 111.5,164.5 C 119.378,165.719 127.045,167.719 134.5,170.5C 135.429,169.311 135.762,167.978 135.5,166.5C 137.588,168.336 138.921,170.669 139.5,173.5C 130.173,170.175 120.839,167.175 111.5,164.5 Z"/></g>
<g><path style="opacity:1" fill="#cfcfcf" d="M 87.5,171.5 C 88.5,171.5 89.5,171.5 90.5,171.5C 90.1667,172.833 89.8333,174.167 89.5,175.5C 89.2624,177.404 88.2624,178.738 86.5,179.5C 86.6495,178.448 86.4828,177.448 86,176.5C 85.2917,177.381 84.4584,178.047 83.5,178.5C 84.0787,175.669 85.412,173.336 87.5,171.5 Z"/></g>
<g><path style="opacity:1" fill="#b3b3b3" d="M 241.5,170.5 C 243.134,171.207 244.468,172.373 245.5,174C 247.154,174.608 248.821,175.108 250.5,175.5C 249.048,176.302 247.382,176.802 245.5,177C 246.056,177.383 246.389,177.883 246.5,178.5C 245.833,178.833 245.167,179.167 244.5,179.5C 240.609,178.778 236.609,177.944 232.5,177C 232.167,176.667 231.833,176.333 231.5,176C 233.087,175.138 234.754,174.471 236.5,174C 233.968,173.381 231.635,172.381 229.5,171C 233.651,171.539 237.651,171.372 241.5,170.5 Z"/></g>
<g><path style="opacity:1" fill="#f3f3f3" d="M 250.5,175.5 C 251.675,175.281 252.675,175.614 253.5,176.5C 251.49,178.171 249.157,178.838 246.5,178.5C 246.389,177.883 246.056,177.383 245.5,177C 247.382,176.802 249.048,176.302 250.5,175.5 Z"/></g>
<g><path style="opacity:1" fill="#fafafa" d="M 208.5,179.5 C 211.46,182.645 214.793,185.312 218.5,187.5C 219.585,189.587 221.251,190.92 223.5,191.5C 224.585,193.587 226.251,194.92 228.5,195.5C 231.607,199.215 235.273,202.215 239.5,204.5C 239.833,205.5 240.5,206.167 241.5,206.5C 242.436,207.974 243.77,208.974 245.5,209.5C 248.355,212.592 249.188,216.259 248,220.5C 246.871,218.859 245.371,217.859 243.5,217.5C 241.761,214.757 239.427,212.757 236.5,211.5C 234.431,208.427 231.764,206.094 228.5,204.5C 226.761,201.757 224.427,199.757 221.5,198.5C 219.761,195.757 217.427,193.757 214.5,192.5C 212.761,189.757 210.427,187.757 207.5,186.5C 205.431,183.427 202.764,181.094 199.5,179.5C 199.389,178.883 199.056,178.383 198.5,178C 200.433,177.749 202.266,177.249 204,176.5C 205.129,178.141 206.629,179.141 208.5,179.5 Z"/></g>
<g><path style="opacity:1" fill="#a8a8a8" d="M 203.5,162.5 C 204.167,162.5 204.833,162.5 205.5,162.5C 205.5,166.5 205.5,170.5 205.5,174.5C 206.5,174.5 207.5,174.5 208.5,174.5C 208.5,176.167 208.5,177.833 208.5,179.5C 206.629,179.141 205.129,178.141 204,176.5C 202.266,177.249 200.433,177.749 198.5,178C 199.056,178.383 199.389,178.883 199.5,179.5C 197.844,178.854 196.177,178.187 194.5,177.5C 190.196,178.21 185.863,178.71 181.5,179C 189.368,186.344 196.368,193.844 202.5,201.5C 194.472,193.637 186.306,185.971 178,178.5C 166.374,179.993 154.874,179.326 143.5,176.5C 141.014,178.578 140.014,181.245 140.5,184.5C 137.9,181.662 134.567,180.495 130.5,181C 131.861,182.584 132.528,184.418 132.5,186.5C 131.067,184.481 129.733,182.314 128.5,180C 123.791,178.584 119.124,178.084 114.5,178.5C 112.762,183.355 111.595,188.355 111,193.5C 110.249,205.91 109.249,218.243 108,230.5C 107.015,215.044 108.015,199.711 111,184.5C 111.642,182.238 112.475,180.071 113.5,178C 108.412,176.568 103.246,175.401 98,174.5C 97.228,174.645 96.5613,174.978 96,175.5C 93.9207,173.048 91.754,173.048 89.5,175.5C 89.8333,174.167 90.1667,172.833 90.5,171.5C 105.972,174.54 121.472,177.54 137,180.5C 140.424,179.151 141.257,176.818 139.5,173.5C 143.248,175.273 147.248,176.44 151.5,177C 162.5,177.667 173.5,177.667 184.5,177C 185.066,176.005 185.733,175.172 186.5,174.5C 188.743,175.812 191.41,176.478 194.5,176.5C 197.167,176.333 199.833,176.167 202.5,176C 204.783,171.712 205.116,167.212 203.5,162.5 Z"/></g>
<g><path style="opacity:1" fill="#adadad" d="M 258.5,179.5 C 260.674,179.75 262.341,180.75 263.5,182.5C 258.384,183.806 253.051,184.473 247.5,184.5C 247.719,185.675 247.386,186.675 246.5,187.5C 246.5,185.833 246.5,184.167 246.5,182.5C 245.521,185.953 244.021,186.286 242,183.5C 241.283,184.044 240.783,184.711 240.5,185.5C 239.662,185.158 239.328,184.492 239.5,183.5C 240.404,182.791 240.737,181.791 240.5,180.5C 240.833,180.5 241.167,180.5 241.5,180.5C 242.172,181.267 243.005,181.934 244,182.5C 248.416,180.084 253.25,179.084 258.5,179.5 Z"/></g>
<g><path style="opacity:1" fill="#cacaca" d="M 208.5,174.5 C 209.995,174.989 211.329,175.655 212.5,176.5C 213.46,177.283 214.127,178.45 214.5,180C 214.167,180.833 213.833,181.667 213.5,182.5C 212.274,180.722 210.607,179.722 208.5,179.5C 208.5,177.833 208.5,176.167 208.5,174.5 Z"/></g>
<g><path style="opacity:1" fill="#a7a7a7" d="M 83.5,178.5 C 81.5156,181.164 78.8489,182.831 75.5,183.5C 77.822,181.336 80.4887,179.669 83.5,178.5 Z"/></g>
<g><path style="opacity:1" fill="#a6a6a6" d="M 86.5,179.5 C 85.9213,182.331 84.588,184.664 82.5,186.5C 83.0787,183.669 84.412,181.336 86.5,179.5 Z"/></g>
<g><path style="opacity:1" fill="#ababab" d="M 92.5,180.5 C 93.0967,180.735 93.4301,181.235 93.5,182C 90.034,192.331 87.2006,202.831 85,213.5C 83.9265,217.319 82.0932,220.652 79.5,223.5C 78.4544,219.604 79.1211,215.937 81.5,212.5C 81.8333,212.667 82.1667,212.833 82.5,213C 81.1577,215.015 80.6577,217.182 81,219.5C 84.7709,206.476 88.6043,193.476 92.5,180.5 Z"/></g>
<g><path style="opacity:1" fill="#a9a9a9" d="M 199.5,179.5 C 202.764,181.094 205.431,183.427 207.5,186.5C 204.236,184.906 201.569,182.573 199.5,179.5 Z"/></g>
<g><path style="opacity:1" fill="#919191" d="M 212.5,176.5 C 221.844,177.774 231.178,179.107 240.5,180.5C 240.737,181.791 240.404,182.791 239.5,183.5C 238.833,183.5 238.167,183.5 237.5,183.5C 237.196,182.85 236.863,182.183 236.5,181.5C 230.476,180.209 224.476,180.209 218.5,181.5C 215.598,179.197 214.764,180.197 216,184.5C 216.333,183.833 216.667,183.167 217,182.5C 217.352,184.247 217.852,185.914 218.5,187.5C 214.793,185.312 211.46,182.645 208.5,179.5C 210.607,179.722 212.274,180.722 213.5,182.5C 213.833,181.667 214.167,180.833 214.5,180C 214.127,178.45 213.46,177.283 212.5,176.5 Z"/></g>
<g><path style="opacity:1" fill="#acacac" d="M 303.5,187.5 C 305.795,184.703 308.295,182.036 311,179.5C 309.804,183.202 307.304,185.869 303.5,187.5 Z"/></g>
<g><path style="opacity:1" fill="#a5a5a5" d="M 75.5,183.5 C 74.4264,184.885 73.0931,186.051 71.5,187C 70.8333,187.667 70.1667,187.667 69.5,187C 71.0634,185.053 73.0634,183.886 75.5,183.5 Z"/></g>
<g><path style="opacity:1" fill="#bcbcbc" d="M 237.5,183.5 C 232.501,182.916 227.501,182.749 222.5,183C 224.167,183.333 225.833,183.667 227.5,184C 226.584,184.278 225.918,184.778 225.5,185.5C 225.975,188.082 225.308,190.082 223.5,191.5C 221.251,190.92 219.585,189.587 218.5,187.5C 217.852,185.914 217.352,184.247 217,182.5C 216.667,183.167 216.333,183.833 216,184.5C 214.764,180.197 215.598,179.197 218.5,181.5C 224.476,180.209 230.476,180.209 236.5,181.5C 236.863,182.183 237.196,182.85 237.5,183.5 Z"/></g>
<g><path style="opacity:1" fill="#a8a8a8" d="M 140.5,184.5 C 146.304,189.121 148.47,195.121 147,202.5C 146.655,195.752 144.488,189.752 140.5,184.5 Z"/></g>
<g><path style="opacity:1" fill="#868686" d="M 263.5,182.5 C 265.434,183.11 267.101,184.11 268.5,185.5C 271.511,186.669 274.178,188.336 276.5,190.5C 269.8,190.17 263.134,190.503 256.5,191.5C 257,191.833 257.5,192.167 258,192.5C 265.79,193.453 273.623,193.786 281.5,193.5C 281.833,193.5 282.167,193.5 282.5,193.5C 275.167,194.167 267.833,194.833 260.5,195.5C 258.784,195.629 257.117,195.962 255.5,196.5C 252.769,192.306 248.769,190.473 243.5,191C 244.833,190.667 246.167,190.333 247.5,190C 244.833,189.667 242.167,189.333 239.5,189C 245.723,188.897 246.057,187.73 240.5,185.5C 240.783,184.711 241.283,184.044 242,183.5C 244.021,186.286 245.521,185.953 246.5,182.5C 246.5,184.167 246.5,185.833 246.5,187.5C 247.386,186.675 247.719,185.675 247.5,184.5C 253.051,184.473 258.384,183.806 263.5,182.5 Z"/></g>
<g><path style="opacity:1" fill="#dbdbdb" d="M 268.5,185.5 C 268.611,186.117 268.944,186.617 269.5,187C 262.394,187.318 255.394,187.318 248.5,187C 254.988,185.542 261.655,185.042 268.5,185.5 Z"/></g>
<g><path style="opacity:1" fill="#a9a9a9" d="M 207.5,186.5 C 210.427,187.757 212.761,189.757 214.5,192.5C 211.573,191.243 209.239,189.243 207.5,186.5 Z"/></g>
<g><path style="opacity:1" fill="#a7a7a7" d="M 82.5,186.5 C 81.8717,189.09 80.705,191.423 79,193.5C 79.0846,190.664 80.2513,188.331 82.5,186.5 Z"/></g>
<g><path style="opacity:1" fill="#a6a6a6" d="M 303.5,187.5 C 300.753,190.207 297.42,191.873 293.5,192.5C 296.515,190.326 299.849,188.659 303.5,187.5 Z"/></g>
<g><path style="opacity:1" fill="#989898" d="M 225.5,185.5 C 228.187,185.336 230.854,185.503 233.5,186C 225.833,186.813 226.166,187.479 234.5,188C 229.492,188.869 229.825,189.536 235.5,190C 234.5,190.333 233.5,190.667 232.5,191C 235.5,191.333 238.5,191.667 241.5,192C 239.5,192.333 237.5,192.667 235.5,193C 237.382,193.198 239.048,193.698 240.5,194.5C 238.599,194.246 237.933,194.58 238.5,195.5C 238.5,195.833 238.5,196.167 238.5,196.5C 239.376,196.369 240.043,196.702 240.5,197.5C 239.626,199.747 239.292,202.08 239.5,204.5C 235.273,202.215 231.607,199.215 228.5,195.5C 226.251,194.92 224.585,193.587 223.5,191.5C 225.308,190.082 225.975,188.082 225.5,185.5 Z"/></g>
<g><path style="opacity:1" fill="#d2d2d2" d="M 228.5,195.5 C 227.74,194.107 227.074,192.607 226.5,191C 226.833,190.167 227.167,189.333 227.5,188.5C 230.823,190.694 231.156,193.027 228.5,195.5 Z"/></g>
<g><path style="opacity:1" fill="#b8b8b8" d="M 276.5,190.5 C 278.434,191.11 280.101,192.11 281.5,193.5C 273.623,193.786 265.79,193.453 258,192.5C 257.5,192.167 257,191.833 256.5,191.5C 263.134,190.503 269.8,190.17 276.5,190.5 Z"/></g>
<g><path style="opacity:1" fill="#cdcdcd" d="M 237.5,183.5 C 238.167,183.5 238.833,183.5 239.5,183.5C 239.328,184.492 239.662,185.158 240.5,185.5C 246.057,187.73 245.723,188.897 239.5,189C 242.167,189.333 244.833,189.667 247.5,190C 246.167,190.333 244.833,190.667 243.5,191C 248.769,190.473 252.769,192.306 255.5,196.5C 250.798,196.95 246.132,197.617 241.5,198.5C 241.975,201.082 241.308,203.082 239.5,204.5C 239.292,202.08 239.626,199.747 240.5,197.5C 240.043,196.702 239.376,196.369 238.5,196.5C 238.5,196.167 238.5,195.833 238.5,195.5C 242.877,195.423 247.21,194.923 251.5,194C 247.797,193.421 244.131,193.588 240.5,194.5C 239.048,193.698 237.382,193.198 235.5,193C 237.5,192.667 239.5,192.333 241.5,192C 238.5,191.667 235.5,191.333 232.5,191C 233.5,190.667 234.5,190.333 235.5,190C 229.825,189.536 229.492,188.869 234.5,188C 226.166,187.479 225.833,186.813 233.5,186C 230.854,185.503 228.187,185.336 225.5,185.5C 225.918,184.778 226.584,184.278 227.5,184C 225.833,183.667 224.167,183.333 222.5,183C 227.501,182.749 232.501,182.916 237.5,183.5 Z"/></g>
<g><path style="opacity:1" fill="#a7a7a7" d="M 59.5,200.5 C 60.0198,196.462 61.8531,193.128 65,190.5C 63.4741,193.875 61.6408,197.209 59.5,200.5 Z"/></g>
<g><path style="opacity:1" fill="#a8a8a8" d="M 214.5,192.5 C 217.427,193.757 219.761,195.757 221.5,198.5C 218.573,197.243 216.239,195.243 214.5,192.5 Z"/></g>
<g><path style="opacity:1" fill="#f9f9f9" d="M 238.5,195.5 C 237.933,194.58 238.599,194.246 240.5,194.5C 244.131,193.588 247.797,193.421 251.5,194C 247.21,194.923 242.877,195.423 238.5,195.5 Z"/></g>
<g><path style="opacity:1" fill="#c0c0c0" d="M 293.5,192.5 C 290.851,194.109 287.851,194.943 284.5,195C 276.507,195.5 268.507,195.666 260.5,195.5C 267.833,194.833 275.167,194.167 282.5,193.5C 286.198,193.448 289.865,193.114 293.5,192.5 Z"/></g>
<g><path style="opacity:1" fill="#a8a8a8" d="M 296.5,199.5 C 300.918,197.291 305.251,195.124 309.5,193C 305.954,196.773 301.62,198.94 296.5,199.5 Z"/></g>
<g><path style="opacity:1" fill="#f9f9f9" d="M 238.5,196.5 C 238.662,198.527 238.495,200.527 238,202.5C 235.858,200.121 236.024,198.121 238.5,196.5 Z"/></g>
<g><path style="opacity:1" fill="#d7d7d7" d="M 231.5,192.5 C 234.887,193.802 235.887,196.135 234.5,199.5C 232.248,197.703 231.248,195.37 231.5,192.5 Z"/></g>
<g><path style="opacity:1" fill="#989898" d="M 255.5,196.5 C 252.277,198.946 250.61,202.28 250.5,206.5C 247.277,205.662 246.944,204.328 249.5,202.5C 248.224,201.355 246.891,201.355 245.5,202.5C 244.522,202.023 243.689,201.357 243,200.5C 242.809,202.708 242.309,204.708 241.5,206.5C 240.5,206.167 239.833,205.5 239.5,204.5C 241.308,203.082 241.975,201.082 241.5,198.5C 246.132,197.617 250.798,196.95 255.5,196.5 Z"/></g>
<g><path style="opacity:1" fill="#efefef" d="M 246.5,198.5 C 252.824,198.447 252.991,199.114 247,200.5C 246.167,200.333 245.333,200.167 244.5,200C 245.416,199.722 246.082,199.222 246.5,198.5 Z"/></g>
<g><path style="opacity:1" fill="#999999" d="M 296.5,199.5 C 286.341,200.33 276.008,200.83 265.5,201C 262.94,201.384 260.606,202.217 258.5,203.5C 259.453,201.39 261.119,200.223 263.5,200C 274.495,199.5 285.495,199.333 296.5,199.5 Z"/></g>
<g><path style="opacity:1" fill="#a8a8a8" d="M 221.5,198.5 C 224.427,199.757 226.761,201.757 228.5,204.5C 225.573,203.243 223.239,201.243 221.5,198.5 Z"/></g>
<g><path style="opacity:1" fill="#c1c1c1" d="M 250.5,206.5 C 250.784,208.415 250.451,210.081 249.5,211.5C 248.395,210.4 247.062,209.733 245.5,209.5C 243.77,208.974 242.436,207.974 241.5,206.5C 242.309,204.708 242.809,202.708 243,200.5C 243.689,201.357 244.522,202.023 245.5,202.5C 246.891,201.355 248.224,201.355 249.5,202.5C 246.944,204.328 247.277,205.662 250.5,206.5 Z"/></g>
<g><path style="opacity:1" fill="#aaaaaa" d="M 165.5,210.5 C 161.196,208.782 156.863,206.948 152.5,205C 157.408,205.362 161.742,207.195 165.5,210.5 Z"/></g>
<g><path style="opacity:1" fill="#acacac" d="M 228.5,204.5 C 231.764,206.094 234.431,208.427 236.5,211.5C 233.19,209.854 230.523,207.52 228.5,204.5 Z"/></g>
<g><path style="opacity:1" fill="#a4a4a4" d="M 165.5,210.5 C 167.937,210.886 169.937,212.053 171.5,214C 170.833,214.667 170.167,214.667 169.5,214C 167.907,213.051 166.574,211.885 165.5,210.5 Z"/></g>
<g><path style="opacity:1" fill="#adadad" d="M 132.5,186.5 C 134.656,189.437 136.156,192.771 137,196.5C 138.258,205.532 140.758,214.198 144.5,222.5C 144.167,222.833 143.833,223.167 143.5,223.5C 140.769,221.054 138.769,218.054 137.5,214.5C 138.167,213.833 138.833,213.167 139.5,212.5C 137.374,203.703 135.041,195.037 132.5,186.5 Z"/></g>
<g><path style="opacity:1" fill="#a6a6a6" d="M 194.5,230.5 C 192.114,229.627 190.114,228.127 188.5,226C 191.121,226.427 193.121,227.927 194.5,230.5 Z"/></g>
<g><path style="opacity:1" fill="#a8a8a8" d="M 59.5,200.5 C 58.8283,204.188 57.9949,207.855 57,211.5C 54.1536,221.994 57.9869,228.16 68.5,230C 70.5852,231.041 72.2519,232.541 73.5,234.5C 73.3333,234.833 73.1667,235.167 73,235.5C 69.7261,231.642 65.5594,229.475 60.5,229C 56.4,225.763 54.4,221.596 54.5,216.5C 49.8215,216.334 45.1548,216.501 40.5,217C 34.6653,220.256 34.332,219.922 39.5,216C 44.5,215.667 49.5,215.333 54.5,215C 55.4891,209.848 57.1557,205.015 59.5,200.5 Z"/></g>
<g><path style="opacity:1" fill="#a8a8a8" d="M 74.5,238.5 C 74.56,237.957 74.8933,237.624 75.5,237.5C 77.1667,238.333 78.8333,239.167 80.5,240C 78.1599,240.748 76.1599,240.248 74.5,238.5 Z"/></g>
<g><path style="opacity:1" fill="#a6a6a6" d="M 243.5,217.5 C 245.371,217.859 246.871,218.859 248,220.5C 249.188,216.259 248.355,212.592 245.5,209.5C 247.062,209.733 248.395,210.4 249.5,211.5C 249.051,223.954 249.717,236.288 251.5,248.5C 247.288,245.801 243.455,242.468 240,238.5C 238.803,257.51 238.637,276.51 239.5,295.5C 243.827,295.984 247.827,295.318 251.5,293.5C 251.343,294.873 251.51,296.207 252,297.5C 254,300.833 256.667,303.5 260,305.5C 260.667,308.167 260.667,310.833 260,313.5C 255.967,314.755 251.801,315.422 247.5,315.5C 242.44,314.986 237.44,314.486 232.5,314C 233.914,319.737 235.581,325.404 237.5,331C 237.167,331.167 236.833,331.333 236.5,331.5C 233.076,321.383 230.409,311.05 228.5,300.5C 228.833,300.5 229.167,300.5 229.5,300.5C 230.542,301.791 231.708,301.791 233,300.5C 234.118,298.235 234.951,295.901 235.5,293.5C 234.883,293.389 234.383,293.056 234,292.5C 233.833,289.5 233.667,286.5 233.5,283.5C 234.524,266.508 234.69,249.508 234,232.5C 225.292,223.625 216.459,214.958 207.5,206.5C 208.002,205.479 208.668,205.312 209.5,206C 222.333,218.833 235.167,231.667 248,244.5C 248.667,237.167 248.667,229.833 248,222.5C 246.293,220.963 244.793,219.296 243.5,217.5 Z"/></g>
<g><path style="opacity:1" fill="#fbfbfb" d="M 235.5,293.5 C 235.727,288.456 235.394,283.456 234.5,278.5C 235.301,263.859 235.801,249.192 236,234.5C 236.833,235.333 237.667,236.167 238.5,237C 237.437,256.135 236.937,275.302 237,294.5C 236.617,293.944 236.117,293.611 235.5,293.5 Z"/></g>
<g><path style="opacity:1" fill="#a8a8a8" d="M 236.5,211.5 C 239.427,212.757 241.761,214.757 243.5,217.5C 240.573,216.243 238.239,214.243 236.5,211.5 Z"/></g>
<g><path style="opacity:1" fill="#fdfdfd" d="M 251.5,248.5 C 252.087,263.455 252.087,278.455 251.5,293.5C 247.827,295.318 243.827,295.984 239.5,295.5C 238.637,276.51 238.803,257.51 240,238.5C 243.455,242.468 247.288,245.801 251.5,248.5 Z"/></g>
<g><path style="opacity:1" fill="#a2a2a2" d="M 83.5,243.5 C 85.9779,242.836 88.6445,242.503 91.5,242.5C 104.101,244.316 116.767,245.483 129.5,246C 132.539,246.353 135.205,247.52 137.5,249.5C 137.333,249.833 137.167,250.167 137,250.5C 133.494,248.332 129.661,247.165 125.5,247C 111.499,245.766 97.4989,244.599 83.5,243.5 Z"/></g>
<g><path style="opacity:1" fill="#ababab" d="M 194.5,230.5 C 201.707,235.525 208.541,241.192 215,247.5C 220.304,265.049 225.137,282.716 229.5,300.5C 229.167,300.5 228.833,300.5 228.5,300.5C 223.911,285.101 219.744,269.434 216,253.5C 211.423,248.378 206.423,243.712 201,239.5C 201.046,242.633 200.046,245.3 198,247.5C 198.71,242.874 198.544,238.207 197.5,233.5C 196.145,232.812 195.145,231.812 194.5,230.5 Z"/></g>
<g><path style="opacity:1" fill="#a9a9a9" d="M 258.5,203.5 C 256.191,207.124 255.024,211.124 255,215.5C 254.728,227.168 254.895,238.834 255.5,250.5C 269.996,251.799 284.496,251.799 299,250.5C 301.167,250.667 303.333,250.833 305.5,251C 302.183,251.498 298.85,251.665 295.5,251.5C 294.897,278.159 294.231,304.826 293.5,331.5C 293.467,305.173 293.134,278.84 292.5,252.5C 291.075,278.811 290.075,305.144 289.5,331.5C 289.167,330.167 288.833,328.833 288.5,327.5C 289.244,302.504 289.911,277.504 290.5,252.5C 278.477,252.699 266.477,252.366 254.5,251.5C 254.307,265.714 253.307,279.714 251.5,293.5C 252.087,278.455 252.087,263.455 251.5,248.5C 253.318,235.872 254.152,222.872 254,209.5C 254.814,206.823 256.314,204.823 258.5,203.5 Z"/></g>
<g><path style="opacity:1" fill="#a5a5a5" d="M 188.5,254.5 C 190.27,253.236 191.937,251.736 193.5,250C 194.167,249.333 194.833,249.333 195.5,250C 193.772,252.582 191.439,254.082 188.5,254.5 Z"/></g>
<g><path style="opacity:1" fill="#a6a6a6" d="M 188.5,254.5 C 182.198,257.602 175.531,259.936 168.5,261.5C 174.82,258.392 181.486,256.059 188.5,254.5 Z"/></g>
<g><path style="opacity:1" fill="#acacac" d="M 145.5,256.5 C 148.831,256.018 151.497,257.018 153.5,259.5C 150.514,259.097 147.848,258.097 145.5,256.5 Z"/></g>
<g><path style="opacity:1" fill="#a8a8a8" d="M 153.5,259.5 C 156.041,260.688 158.541,262.022 161,263.5C 163.433,262.521 165.933,261.855 168.5,261.5C 167.571,262.315 166.571,263.148 165.5,264C 166.167,264.333 166.833,264.667 167.5,265C 173.815,266.055 180.148,267.055 186.5,268C 190.468,268.964 193.635,271.131 196,274.5C 198.461,292.549 204.127,309.549 213,325.5C 213.991,327.447 214.325,329.447 214,331.5C 207.79,318.674 202.29,305.674 197.5,292.5C 197.18,286.762 196.347,281.095 195,275.5C 191.47,270.391 186.803,268.391 181,269.5C 176.531,276.771 172.865,284.438 170,292.5C 168.578,302.873 166.912,313.206 165,323.5C 164.299,326.327 163.299,328.994 162,331.5C 164.658,316.916 167.325,302.25 170,287.5C 172.912,281.342 176.079,275.342 179.5,269.5C 173.99,268.112 168.49,266.445 163,264.5C 162.127,264.735 161.293,265.069 160.5,265.5C 157.909,263.719 155.575,261.719 153.5,259.5 Z"/></g>
<g><path style="opacity:1" fill="#9d9d9d" d="M 145.5,256.5 C 144.5,256.5 143.5,256.5 142.5,256.5C 143.412,260.131 143.579,263.797 143,267.5C 141.169,271.964 139.836,276.631 139,281.5C 136.2,282.125 133.366,282.792 130.5,283.5C 131.538,286.469 133.038,289.136 135,291.5C 135.833,304.846 135.666,318.179 134.5,331.5C 133.501,319.852 133.168,308.186 133.5,296.5C 130.5,296.5 127.5,296.5 124.5,296.5C 124.72,308.22 124.053,319.887 122.5,331.5C 121.507,326.88 121.173,322.214 121.5,317.5C 119.5,317.5 117.5,317.5 115.5,317.5C 114.833,336.167 114.167,336.167 113.5,317.5C 91.4831,317.302 69.4831,316.635 47.5,315.5C 47.1667,336.833 46.8333,336.833 46.5,315.5C 45.5,315.5 44.5,315.5 43.5,315.5C 43.666,320.844 43.4994,326.177 43,331.5C 42.5001,319.505 42.3335,307.505 42.5,295.5C 39.1667,295.5 35.8333,295.5 32.5,295.5C 32.5,304.5 32.5,313.5 32.5,322.5C 31.5067,313.682 31.1734,304.682 31.5,295.5C 31.2627,294.209 31.596,293.209 32.5,292.5C 33.2919,288.789 34.2919,285.122 35.5,281.5C 32.14,280.306 29.9734,277.972 29,274.5C 26.573,257.278 27.573,240.278 32,223.5C 32.6543,222.304 33.1543,222.304 33.5,223.5C 32.3657,226.07 31.5323,228.736 31,231.5C 29.2751,243.495 28.7751,255.495 29.5,267.5C 65.4808,269.332 101.481,270.832 137.5,272C 138.624,271.751 139.624,271.251 140.5,270.5C 141.4,268.068 142.066,265.568 142.5,263C 141.895,259.275 141.061,255.775 140,252.5C 141.5,254.469 143.333,255.802 145.5,256.5 Z"/></g>
<g><path style="opacity:1" fill="#f4f4f4" d="M 92.5,292.5 C 92.6107,293.117 92.944,293.617 93.5,294C 88.7961,294.163 84.4628,292.83 80.5,290C 82.5,289.333 84.5,289.333 86.5,290C 88.4068,291.122 90.4068,291.955 92.5,292.5 Z"/></g>
<g><path style="opacity:1" fill="#f3f3f3" d="M 76.5,293.5 C 73.9272,294.555 71.2605,294.722 68.5,294C 70.0931,293.051 71.4264,291.885 72.5,290.5C 74.9269,289.026 77.2602,289.193 79.5,291C 78.0577,291.377 77.0577,292.21 76.5,293.5 Z"/></g>
<g><path style="opacity:1" fill="#f3f3f3" d="M 126.5,286.5 C 126.5,285.5 126.5,284.5 126.5,283.5C 129.389,284.049 131.056,285.882 131.5,289C 131.167,289.5 130.833,290 130.5,290.5C 129.16,289.133 127.827,287.8 126.5,286.5 Z"/></g>
<g><path style="opacity:1" fill="#f4f4f4" d="M 126.5,286.5 C 126.539,287.583 126.873,288.583 127.5,289.5C 125.807,290.228 124.307,291.228 123,292.5C 122.193,288.551 121.693,288.551 121.5,292.5C 119.5,292.5 117.5,292.5 115.5,292.5C 115.5,289.167 115.5,285.833 115.5,282.5C 116.833,282.5 118.167,282.5 119.5,282.5C 119.687,284.564 120.187,286.564 121,288.5C 120.198,281.377 122.032,280.711 126.5,286.5 Z"/></g>
<g><path style="opacity:1" fill="#fcfcfc" d="M 92.5,292.5 C 91.2511,290.864 89.5844,289.697 87.5,289C 88.3805,288.292 89.0472,287.458 89.5,286.5C 97.0296,282.854 105.03,281.521 113.5,282.5C 113.5,285.833 113.5,289.167 113.5,292.5C 106.5,292.5 99.5,292.5 92.5,292.5 Z"/></g>
<g><path style="opacity:1" fill="#f1f1f1" d="M 77.5,286.5 C 78.463,287.363 78.463,288.03 77.5,288.5C 70.8078,283.981 63.4745,281.481 55.5,281C 64.0432,278.859 71.3765,280.692 77.5,286.5 Z"/></g>
<g><path style="opacity:1" fill="#fdfdfd" d="M 72.5,290.5 C 64.2212,291.44 55.8878,291.773 47.5,291.5C 47.5,287.833 47.5,284.167 47.5,280.5C 56.3603,281.036 64.6936,283.37 72.5,287.5C 73.5624,288.425 73.5624,289.425 72.5,290.5 Z"/></g>
<g><path style="opacity:1" fill="#f6f6f6" d="M 42.5,280.5 C 43.8333,280.5 45.1667,280.5 46.5,280.5C 46.665,283.85 46.4983,287.183 46,290.5C 45,291.833 44,291.833 43,290.5C 42.5017,287.183 42.335,283.85 42.5,280.5 Z"/></g>
<g><path style="opacity:1" fill="#f8f8f8" d="M 36.5,280.5 C 37.5,280.5 38.5,280.5 39.5,280.5C 39.0074,282.806 38.6741,285.139 38.5,287.5C 37.5,287.5 36.5,287.5 35.5,287.5C 35.9926,285.194 36.3259,282.861 36.5,280.5 Z"/></g>
<g><path style="opacity:1" fill="#fcfcfc" d="M 88.5,272.5 C 89.0968,271.861 89.9302,271.528 91,271.5C 107.125,273.01 123.292,273.677 139.5,273.5C 139.221,276.118 138.554,278.618 137.5,281C 122.837,281.5 108.17,281.667 93.5,281.5C 93.5975,277.348 91.9308,274.348 88.5,272.5 Z"/></g>
<g><path style="opacity:1" fill="#fbfbfb" d="M 88.5,272.5 C 93.1331,276.974 93.4664,281.641 89.5,286.5C 87.3927,287.3 85.2261,287.967 83,288.5C 81.0614,288.046 79.228,287.379 77.5,286.5C 75.4121,282.641 75.0788,278.641 76.5,274.5C 80.1181,271.644 84.1181,270.977 88.5,272.5 Z"/></g>
<g><path style="opacity:1" fill="#fcfcfc" d="M 76.5,274.5 C 74.7868,275.635 74.1201,277.302 74.5,279.5C 60.4491,279.909 46.4491,279.409 32.5,278C 30.8207,275.435 30.154,272.602 30.5,269.5C 46.8021,270.289 63.1354,270.789 79.5,271C 77.5743,271.422 76.5743,272.589 76.5,274.5 Z"/></g>
<g><path style="opacity:1" fill="#ececec" d="M 55.5,295.5 C 51.6475,294.834 47.6475,294.167 43.5,293.5C 51.4792,292.335 59.4792,292.168 67.5,293C 67.0426,293.414 66.7093,293.914 66.5,294.5C 62.8927,295.489 59.226,295.823 55.5,295.5 Z"/></g>
<g><path style="opacity:1" fill="#cfcfcf" d="M 32.5,292.5 C 33.8933,291.74 35.3933,291.074 37,290.5C 38.825,290.943 40.6583,291.277 42.5,291.5C 42.5,292.5 42.5,293.5 42.5,294.5C 38.6707,295.069 35.3373,294.402 32.5,292.5 Z"/></g>
<g><path style="opacity:1" fill="#f7f7f7" d="M 76.5,293.5 C 80.3076,293.163 83.9743,293.663 87.5,295C 85.6667,295.167 83.8333,295.333 82,295.5C 79.7047,295.453 77.8714,294.787 76.5,293.5 Z"/></g>
<g><path style="opacity:1" fill="#f7f7f7" d="M 123.5,295.5 C 120.5,295.5 117.5,295.5 114.5,295.5C 108.463,295.829 102.463,295.496 96.5,294.5C 105.663,293.648 114.663,293.981 123.5,295.5 Z"/></g>
<g><path style="opacity:1" fill="#fdfdfd" d="M 55.5,295.5 C 65.9869,296.494 76.6536,296.828 87.5,296.5C 98.988,297.495 110.655,297.828 122.5,297.5C 123.826,303.568 123.826,309.734 122.5,316C 96.1781,315.637 69.8448,315.137 43.5,314.5C 43.5,308.167 43.5,301.833 43.5,295.5C 47.5,295.5 51.5,295.5 55.5,295.5 Z"/></g>
<g><path style="opacity:1" fill="#c6c6c6" d="M 114.5,295.5 C 117.5,295.5 120.5,295.5 123.5,295.5C 123.167,296.167 122.833,296.833 122.5,297.5C 110.655,297.828 98.988,297.495 87.5,296.5C 96.6822,296.827 105.682,296.493 114.5,295.5 Z"/></g>
<g><path style="opacity:1" fill="#e1e1e1" d="M 238.5,297.5 C 241.976,296.357 245.642,296.19 249.5,297C 248.4,298.023 247.067,298.523 245.5,298.5C 243.182,298.003 240.848,297.67 238.5,297.5 Z"/></g>
<g><path style="opacity:1" fill="#a5a5a5" d="M 197.5,292.5 C 195.538,297.757 193.038,302.757 190,307.5C 191.419,301.996 193.919,296.996 197.5,292.5 Z"/></g>
<g><path style="opacity:1" fill="#d8d8d8" d="M 258.5,309.5 C 253.871,310.481 249.204,310.648 244.5,310C 246.833,309.667 249.167,309.333 251.5,309C 246.223,307.173 240.89,305.506 235.5,304C 234.549,303.282 234.383,302.449 235,301.5C 235.718,302.451 236.551,302.617 237.5,302C 236.5,301 235.5,300 234.5,299C 235.025,298.308 235.692,297.808 236.5,297.5C 237.004,300.522 238.671,301.689 241.5,301C 241.167,300.667 240.833,300.333 240.5,300C 243.56,299.183 246.394,299.683 249,301.5C 250.261,301.241 251.261,300.574 252,299.5C 252.471,301.246 253.138,302.913 254,304.5C 255.156,303.007 255.99,303.174 256.5,305C 255.728,306.221 254.728,307.221 253.5,308C 255.57,308.379 257.07,307.545 258,305.5C 259.768,306.682 259.935,308.015 258.5,309.5 Z"/></g>
<g><path style="opacity:1" fill="#f8f8f8" d="M 258.5,309.5 C 259.791,310.542 259.791,311.708 258.5,313C 251.833,313.667 245.167,313.667 238.5,313C 236.22,312.767 234.22,311.934 232.5,310.5C 233,310.167 233.5,309.833 234,309.5C 241.387,311.444 248.887,311.944 256.5,311C 257.416,310.722 258.082,310.222 258.5,309.5 Z"/></g>
<g><path style="opacity:1" fill="#c1c1c1" d="M 31.5,295.5 C 31.1734,304.682 31.5067,313.682 32.5,322.5C 32.6488,325.607 32.1488,328.607 31,331.5C 30.1737,319.326 30.3403,307.326 31.5,295.5 Z"/></g>
<g><path style="opacity:1" fill="#a6a6a6" d="M 185.5,313.5 C 186.043,313.56 186.376,313.893 186.5,314.5C 183.709,320.042 181.209,325.709 179,331.5C 180.055,325.175 182.221,319.175 185.5,313.5 Z"/></g>
</svg>
