<?xml version="1.0" encoding="UTF-8"?>
<!DOCTYPE svg PUBLIC "-//W3C//DTD SVG 1.1//EN" "http://www.w3.org/Graphics/SVG/1.1/DTD/svg11.dtd">
<svg xmlns="http://www.w3.org/2000/svg" version="1.1" width="626px" height="626px" style="shape-rendering:geometricPrecision; text-rendering:geometricPrecision; image-rendering:optimizeQuality; fill-rule:evenodd; clip-rule:evenodd" xmlns:xlink="http://www.w3.org/1999/xlink">
<g><path style="opacity:1" fill="#fefefe" d="M -0.5,-0.5 C 208.167,-0.5 416.833,-0.5 625.5,-0.5C 625.5,208.167 625.5,416.833 625.5,625.5C 416.833,625.5 208.167,625.5 -0.5,625.5C -0.5,416.833 -0.5,208.167 -0.5,-0.5 Z"/></g>
<g><path style="opacity:1" fill="#2f2f2f" d="M 226.5,111.5 C 226.643,108.903 227.477,106.569 229,104.5C 229.061,107.151 228.227,109.484 226.5,111.5 Z"/></g>
<g><path style="opacity:1" fill="#343434" d="M 267.5,114.5 C 261.491,114.666 255.491,114.499 249.5,114C 255.687,111.918 261.687,112.085 267.5,114.5 Z"/></g>
<g><path style="opacity:1" fill="#6f6f6f" d="M 218.5,122.5 C 217.566,123.568 217.232,124.901 217.5,126.5C 216.086,121.234 216.252,115.901 218,110.5C 218.499,114.486 218.666,118.486 218.5,122.5 Z"/></g>
<g><path style="opacity:1" fill="#585858" d="M 267.5,114.5 C 274.204,115.004 280.87,115.837 287.5,117C 283.833,117.333 280.167,117.667 276.5,118C 277.696,118.654 277.696,119.154 276.5,119.5C 273.567,117.538 270.567,115.871 267.5,114.5 Z"/></g>
<g><path style="opacity:1" fill="#1d1d1d" d="M 241.5,115.5 C 242.873,115.343 244.207,115.51 245.5,116C 239.482,117.669 234.482,120.836 230.5,125.5C 229.718,123.671 230.384,122.171 232.5,121C 235.564,119.141 238.564,117.308 241.5,115.5 Z"/></g>
<g><path style="opacity:1" fill="#3c3c3c" d="M 226.5,111.5 C 225.38,118.189 225.214,124.856 226,131.5C 222.538,124.614 222.705,117.948 226.5,111.5 Z"/></g>
<g><path style="opacity:1" fill="#151515" d="M 218.5,122.5 C 219.074,128.887 221.407,134.554 225.5,139.5C 225.333,139.833 225.167,140.167 225,140.5C 220.711,136.808 218.211,132.141 217.5,126.5C 217.232,124.901 217.566,123.568 218.5,122.5 Z"/></g>
<g><path style="opacity:1" fill="#101010" d="M 312.5,136.5 C 311.167,136.167 309.833,135.833 308.5,135.5C 307.833,136.833 307.167,138.167 306.5,139.5C 305.168,129.655 299.834,122.821 290.5,119C 298.345,120.992 304.011,125.825 307.5,133.5C 309.598,133.957 311.264,134.957 312.5,136.5 Z"/></g>
<g><path style="opacity:1" fill="#6d6d6d" d="M 308.5,135.5 C 308.799,137.604 308.466,139.604 307.5,141.5C 306.702,141.043 306.369,140.376 306.5,139.5C 307.167,138.167 307.833,136.833 308.5,135.5 Z"/></g>
<g><path style="opacity:1" fill="#515151" d="M 208.5,139.5 C 209.334,141.263 208.834,142.93 207,144.5C 206.878,142.718 207.378,141.052 208.5,139.5 Z"/></g>
<g><path style="opacity:1" fill="#1a1a1a" d="M 312.5,136.5 C 317.543,139.05 321.043,143.05 323,148.5C 323.814,150.902 323.647,153.235 322.5,155.5C 320.992,148.149 317.659,141.816 312.5,136.5 Z"/></g>
<g><path style="opacity:1" fill="#282828" d="M 201.5,154.5 C 201.504,152.158 202.337,150.158 204,148.5C 204.008,150.821 203.175,152.821 201.5,154.5 Z"/></g>
<g><path style="opacity:1" fill="#5b5b5b" d="M 330.5,159.5 C 327.927,158.121 326.427,156.121 326,153.5C 328.127,155.114 329.627,157.114 330.5,159.5 Z"/></g>
<g><path style="opacity:1" fill="#474747" d="M 201.5,154.5 C 201.88,156.698 201.213,158.365 199.5,159.5C 199.402,157.447 200.069,155.78 201.5,154.5 Z"/></g>
<g><path style="opacity:1" fill="#212121" d="M 315.5,167.5 C 314.778,167.082 314.278,166.416 314,165.5C 313.333,162.833 313.333,160.167 314,157.5C 314.455,160.854 314.955,164.187 315.5,167.5 Z"/></g>
<g><path style="opacity:1" fill="#616161" d="M 281.5,165.5 C 282.713,166.497 282.546,167.497 281,168.5C 280.53,167.423 280.697,166.423 281.5,165.5 Z"/></g>
<g><path style="opacity:1" fill="#1f1f1f" d="M 330.5,159.5 C 331.79,160.058 332.623,161.058 333,162.5C 335.453,170.33 334.453,177.663 330,184.5C 331.229,179.821 332.062,174.988 332.5,170C 332.618,166.31 331.951,162.81 330.5,159.5 Z"/></g>
<g><path style="opacity:1" fill="#606060" d="M 287.5,173.5 C 287.685,171.804 288.519,170.471 290,169.5C 290.279,171.412 289.446,172.746 287.5,173.5 Z"/></g>
<g><path style="opacity:1" fill="#888888" d="M 304.5,179.5 C 302.983,177.538 302.316,175.205 302.5,172.5C 302.412,170.288 302.912,168.288 304,166.5C 304.499,170.821 304.666,175.154 304.5,179.5 Z"/></g>
<g><path style="opacity:1" fill="#7e7e7e" d="M 292.5,180.5 C 291.833,179.5 291.167,178.5 290.5,177.5C 290.372,175.345 290.872,173.345 292,171.5C 292.498,174.482 292.665,177.482 292.5,180.5 Z"/></g>
<g><path style="opacity:1" fill="#343434" d="M 260.5,177.5 C 263.228,175.924 266.228,175.424 269.5,176C 266.568,176.953 263.568,177.453 260.5,177.5 Z"/></g>
<g><path style="opacity:1" fill="#3a3a3a" d="M 276.5,194.5 C 274.866,187.133 275.366,179.8 278,172.5C 276.889,179.726 276.389,187.06 276.5,194.5 Z"/></g>
<g><path style="opacity:1" fill="#1f1f1f" d="M 315.5,167.5 C 318.24,171.978 320.74,176.644 323,181.5C 324.087,186.592 323.254,191.259 320.5,195.5C 319.833,195.5 319.167,195.5 318.5,195.5C 321.391,190.957 322.224,185.957 321,180.5C 318.597,176.365 316.763,172.032 315.5,167.5 Z"/></g>
<g><path style="opacity:1" fill="#3c3c3c" d="M 287.5,173.5 C 286.341,177.151 284.674,180.485 282.5,183.5C 283.127,179.58 284.793,176.247 287.5,173.5 Z"/></g>
<g><path style="opacity:1" fill="#171717" d="M 208.5,196.5 C 207.353,192.354 207.186,188.02 208,183.5C 210.353,178.574 214.186,176.74 219.5,178C 228.638,180.45 233.138,186.283 233,195.5C 230.965,183.781 224.131,178.614 212.5,180C 210.951,181.214 209.785,182.714 209,184.5C 208.501,188.486 208.334,192.486 208.5,196.5 Z"/></g>
<g><path style="opacity:1" fill="#313131" d="M 304.5,179.5 C 305.977,181.807 307.977,183.64 310.5,185C 306.828,185.167 304.828,183.334 304.5,179.5 Z"/></g>
<g><path style="opacity:1" fill="#151515" d="M 282.5,183.5 C 282.196,186.522 281.696,189.522 281,192.5C 280.219,189.183 280.719,186.183 282.5,183.5 Z"/></g>
<g><path style="opacity:1" fill="#1c1c1c" d="M 290.5,177.5 C 291.167,178.5 291.833,179.5 292.5,180.5C 293.887,190.388 299.553,196.221 309.5,198C 301.847,198.7 296.347,195.533 293,188.5C 291.438,184.986 290.605,181.319 290.5,177.5 Z"/></g>
<g><path style="opacity:1" fill="#1b1b1b" d="M 260.5,177.5 C 251.881,182.009 246.048,189.009 243,198.5C 241.421,202.725 240.254,207.059 239.5,211.5C 239.189,198.979 243.856,188.479 253.5,180C 255.65,178.589 257.984,177.755 260.5,177.5 Z"/></g>
<g><path style="opacity:1" fill="#838383" d="M 318.5,195.5 C 319.167,195.5 319.833,195.5 320.5,195.5C 319.22,196.931 317.553,197.598 315.5,197.5C 315.813,201.042 315.479,204.375 314.5,207.5C 314.167,207.5 313.833,207.5 313.5,207.5C 313.174,203.116 313.508,198.783 314.5,194.5C 315.736,195.246 317.07,195.579 318.5,195.5 Z"/></g>
<g><path style="opacity:1" fill="#0a0a0a" d="M 276.5,194.5 C 278.235,197.299 279.401,200.299 280,203.5C 277.713,200.928 276.547,197.928 276.5,194.5 Z"/></g>
<g><path style="opacity:1" fill="#1a1a1a" d="M 208.5,196.5 C 210.89,199.566 212.89,202.9 214.5,206.5C 211.272,203.931 209.272,200.598 208.5,196.5 Z"/></g>
<g><path style="opacity:1" fill="#545454" d="M 226.5,197.5 C 226.408,200.343 226.575,203.343 227,206.5C 224.021,203.782 223.854,200.782 226.5,197.5 Z"/></g>
<g><path style="opacity:1" fill="#242424" d="M 199.5,159.5 C 197.561,168.702 197.061,178.035 198,187.5C 202.824,199.148 206.491,211.148 209,223.5C 210.558,225.359 212.391,226.859 214.5,228C 210.454,228.324 207.621,226.491 206,222.5C 205.626,224.491 204.793,226.158 203.5,227.5C 204.442,222.195 204.609,216.861 204,211.5C 201.868,204.105 199.535,196.772 197,189.5C 194.85,179.753 195.183,170.086 198,160.5C 198.383,159.944 198.883,159.611 199.5,159.5 Z"/></g>
<g><path style="opacity:1" fill="#1c1c1c" d="M 214.5,206.5 C 215.79,207.058 216.623,208.058 217,209.5C 217.497,211.81 217.663,214.143 217.5,216.5C 216.511,213.274 215.511,209.94 214.5,206.5 Z"/></g>
<g><path style="opacity:1" fill="#171717" d="M 313.5,207.5 C 313.833,207.5 314.167,207.5 314.5,207.5C 313.345,211.332 311.012,214.332 307.5,216.5C 309.5,213.5 311.5,210.5 313.5,207.5 Z"/></g>
<g><path style="opacity:1" fill="#0b0b0b" d="M 227.5,216.5 C 227.238,215.022 227.571,213.689 228.5,212.5C 228.833,212.667 229.167,212.833 229.5,213C 228.915,214.302 228.249,215.469 227.5,216.5 Z"/></g>
<g><path style="opacity:1" fill="#454545" d="M 217.5,216.5 C 219.03,218.941 221.363,220.108 224.5,220C 222.289,221.839 220.123,221.672 218,219.5C 217.517,218.552 217.351,217.552 217.5,216.5 Z"/></g>
<g><path style="opacity:1" fill="#0e0e0e" d="M 227.5,216.5 C 227.5,218.833 227.5,221.167 227.5,223.5C 226.527,225.948 226.194,228.615 226.5,231.5C 225.839,229.866 225.506,228.033 225.5,226C 225.421,222.549 226.087,219.382 227.5,216.5 Z"/></g>
<g><path style="opacity:1" fill="#1a1a1a" d="M 203.5,227.5 C 202.275,233.626 199.275,238.626 194.5,242.5C 197.755,237.658 200.755,232.658 203.5,227.5 Z"/></g>
<g><path style="opacity:1" fill="#797979" d="M 187.5,251.5 C 187.167,251.5 186.833,251.5 186.5,251.5C 187.128,248.91 188.295,246.577 190,244.5C 189.78,246.963 188.946,249.296 187.5,251.5 Z"/></g>
<g><path style="opacity:1" fill="#1a1a1a" d="M 186.5,251.5 C 186.833,251.5 187.167,251.5 187.5,251.5C 187.46,256.632 187.96,261.632 189,266.5C 186.856,261.742 186.023,256.742 186.5,251.5 Z"/></g>
<g><path style="opacity:1" fill="#1d1d1d" d="M 307.5,216.5 C 308,230.5 304.166,243.166 296,254.5C 290.541,261.627 284.708,268.461 278.5,275C 263.735,285.008 250.568,283.175 239,269.5C 230.843,258.226 226.676,245.559 226.5,231.5C 226.194,228.615 226.527,225.948 227.5,223.5C 225.712,244.069 232.378,261.236 247.5,275C 256.768,280.958 266.101,280.958 275.5,275C 287.741,263.767 297.241,250.6 304,235.5C 305.124,229.897 305.79,224.231 306,218.5C 306.278,217.584 306.778,216.918 307.5,216.5 Z"/></g>
<g><path style="opacity:1" fill="#1e1e1e" d="M 193.5,273.5 C 191.584,272.335 190.751,270.668 191,268.5C 192.372,269.91 193.205,271.577 193.5,273.5 Z"/></g>
<g><path style="opacity:1" fill="#1b1b1b" d="M 194.5,242.5 C 193.489,244.402 193.322,246.402 194,248.5C 204.881,269.38 221.381,283.88 243.5,292C 249.378,293.653 254.212,292.153 258,287.5C 257.59,294.46 254.09,299.293 247.5,302C 227.247,302.292 210.414,294.792 197,279.5C 195.579,277.595 194.412,275.595 193.5,273.5C 202.839,285.66 214.839,294.16 229.5,299C 235.431,300.471 241.431,300.804 247.5,300C 250.463,298.039 253.129,295.706 255.5,293C 249.491,293.949 243.491,293.616 237.5,292C 215.274,282.444 199.941,266.444 191.5,244C 191.667,243.167 191.833,242.333 192,241.5C 192.671,242.252 193.504,242.586 194.5,242.5 Z"/></g>
<g><path style="opacity:1" fill="#3b3b3b" d="M 261.5,288.5 C 262.497,287.287 263.497,287.454 264.5,289C 263.423,289.47 262.423,289.303 261.5,288.5 Z"/></g>
<g><path style="opacity:1" fill="#2e2e2e" d="M 266.5,291.5 C 268.263,290.666 269.93,291.166 271.5,293C 269.718,293.122 268.052,292.622 266.5,291.5 Z"/></g>
<g><path style="opacity:1" fill="#484848" d="M 149.5,290.5 C 152.167,291.167 154.833,291.833 157.5,292.5C 151.799,292.616 146.132,292.782 140.5,293C 143.474,292.007 146.474,291.174 149.5,290.5 Z"/></g>
<g><path style="opacity:1" fill="#2b2b2b" d="M 278.5,297.5 C 276.577,297.205 274.91,296.372 273.5,295C 275.668,294.751 277.335,295.584 278.5,297.5 Z"/></g>
<g><path style="opacity:1" fill="#303030" d="M 278.5,297.5 C 286.068,299.732 290.401,304.732 291.5,312.5C 289.837,310.507 288.67,308.174 288,305.5C 284.855,302.696 281.688,300.03 278.5,297.5 Z"/></g>
<g><path style="opacity:1" fill="#151515" d="M 149.5,290.5 C 179.924,291.088 199.091,306.088 207,335.5C 207.942,358.342 201.109,378.508 186.5,396C 191.1,402.98 190.267,409.147 184,414.5C 185.072,418.706 185.406,423.039 185,427.5C 182.469,432.594 180.635,437.928 179.5,443.5C 178.353,441.235 178.186,438.902 179,436.5C 183.778,430.28 184.611,423.613 181.5,416.5C 181.795,413.568 183.295,411.568 186,410.5C 186.958,408.801 187.458,406.967 187.5,405C 184.372,394.067 182.539,382.9 182,371.5C 181.443,369.385 180.609,367.385 179.5,365.5C 179.846,364.304 180.346,364.304 181,365.5C 183.793,373.565 185.127,381.899 185,390.5C 185.333,391.5 185.667,392.5 186,393.5C 199.277,376.052 205.611,356.386 205,334.5C 198.569,313.736 185.069,299.902 164.5,293C 162.19,292.503 159.857,292.337 157.5,292.5C 154.833,291.833 152.167,291.167 149.5,290.5 Z"/></g>
<g><path style="opacity:1" fill="#1e1e1e" d="M 291.5,312.5 C 293.937,316.828 297.437,320.161 302,322.5C 304.421,326.851 305.588,331.517 305.5,336.5C 304.475,332.921 303.309,329.254 302,325.5C 299.297,322.462 296.297,319.795 293,317.5C 291.991,315.975 291.491,314.308 291.5,312.5 Z"/></g>
<g><path style="opacity:1" fill="#454545" d="M 262.5,335.5 C 262.167,335.5 261.833,335.5 261.5,335.5C 260.357,332.024 260.19,328.358 261,324.5C 262.108,328.086 262.608,331.753 262.5,335.5 Z"/></g>
<g><path style="opacity:1" fill="#151515" d="M 105.5,394.5 C 104.416,401.983 103.749,409.65 103.5,417.5C 101.066,451.357 101.066,485.024 103.5,518.5C 99.7823,518.633 98.7823,517.133 100.5,514C 97.2425,448.714 101.409,383.88 113,319.5C 116.98,306.849 124.146,296.349 134.5,288C 151.067,277.212 166.734,265.212 181.5,252C 182.167,251.333 182.833,251.333 183.5,252C 167.92,266.449 151.253,279.449 133.5,291C 121.2,302.097 114.034,315.931 112,332.5C 108.843,353.068 106.677,373.735 105.5,394.5 Z"/></g>
<g><path style="opacity:1" fill="#121212" d="M 261.5,335.5 C 261.833,335.5 262.167,335.5 262.5,335.5C 264.277,357.545 266.443,379.545 269,401.5C 269.667,409.5 269.667,417.5 269,425.5C 268.64,427.608 267.973,429.608 267,431.5C 266.604,399.416 264.771,367.416 261.5,335.5 Z"/></g>
<g><path style="opacity:1" fill="#191919" d="M 525.5,362.5 C 521.972,360.325 518.305,359.992 514.5,361.5C 478.476,362.677 442.476,364.343 406.5,366.5C 408.167,365.833 409.833,365.167 411.5,364.5C 447.344,362.687 483.177,360.687 519,358.5C 521.5,358.833 524,359.167 526.5,359.5C 525.873,360.417 525.539,361.417 525.5,362.5 Z"/></g>
<g><path style="opacity:1" fill="#7c7c7c" d="M 514.5,361.5 C 518.305,359.992 521.972,360.325 525.5,362.5C 524.038,369.009 523.371,368.675 523.5,361.5C 520.5,361.5 517.5,361.5 514.5,361.5 Z"/></g>
<g><path style="opacity:1" fill="#5a5a5a" d="M 411.5,364.5 C 409.833,365.167 408.167,365.833 406.5,366.5C 405.616,369.023 404.782,371.69 404,374.5C 403.454,371.101 403.787,367.768 405,364.5C 406.956,364.216 409.123,364.216 411.5,364.5 Z"/></g>
<g><path style="opacity:1" fill="#101010" d="M 521.5,371.5 C 522.139,372.097 522.472,372.93 522.5,374C 513.981,411.911 504.148,449.411 493,486.5C 492.333,484.5 492.333,482.5 493,480.5C 502.967,444.298 512.467,407.965 521.5,371.5 Z"/></g>
<g><path style="opacity:1" fill="#3b3b3b" d="M 154.5,390.5 C 150.818,390.335 147.152,390.501 143.5,391C 141.598,392.301 139.598,392.968 137.5,393C 139.001,391.748 140.668,390.748 142.5,390C 146.689,389.188 150.689,389.355 154.5,390.5 Z"/></g>
<g><path style="opacity:1" fill="#161616" d="M 154.5,390.5 C 156.927,390.523 159.26,391.023 161.5,392C 167.93,395.549 174.596,398.549 181.5,401C 179.833,401.667 178.167,401.667 176.5,401C 169.197,397.18 161.864,393.68 154.5,390.5 Z"/></g>
<g><path style="opacity:1" fill="#161616" d="M 305.5,336.5 C 308.86,351.42 313.36,366.087 319,380.5C 319.333,386.833 319.667,393.167 320,399.5C 322.374,401.539 324.374,403.872 326,406.5C 326.093,410.841 326.093,415.174 326,419.5C 326.465,420.931 327.299,422.097 328.5,423C 331.912,424.455 335.079,426.288 338,428.5C 340.963,437.131 346.463,443.631 354.5,448C 357.333,450.833 360.167,453.667 363,456.5C 363.667,457.167 363.667,457.833 363,458.5C 354.398,452.197 346.398,445.197 339,437.5C 337.628,431.126 333.795,426.959 327.5,425C 325.951,423.786 324.785,422.286 324,420.5C 324.164,415.845 324.164,411.179 324,406.5C 321.763,404.719 319.763,402.719 318,400.5C 318.18,394.176 318.18,387.843 318,381.5C 315.007,372.843 312.007,364.176 309,355.5C 307.124,349.286 305.957,342.952 305.5,336.5 Z"/></g>
<g><path style="opacity:1" fill="#121212" d="M 158.5,404.5 C 166.898,402.681 174.565,404.515 181.5,410C 176.933,408.399 172.266,406.732 167.5,405C 164.518,404.502 161.518,404.335 158.5,404.5 Z"/></g>
<g><path style="opacity:1" fill="#b5b5b5" d="M 105.5,394.5 C 105.864,402.403 105.197,410.07 103.5,417.5C 103.749,409.65 104.416,401.983 105.5,394.5 Z"/></g>
<g><path style="opacity:1" fill="#111111" d="M 295.5,331.5 C 296.963,334.203 297.796,337.203 298,340.5C 298.667,349.167 298.667,357.833 298,366.5C 294.796,385.521 291.463,404.521 288,423.5C 286.576,437.092 287.742,450.425 291.5,463.5C 289.675,464.571 288.508,463.904 288,461.5C 284.095,446.343 283.428,431.009 286,415.5C 290.082,397.921 293.748,380.254 297,362.5C 297.845,352.088 297.345,341.755 295.5,331.5 Z"/></g>
<g><path style="opacity:1" fill="#151515" d="M 295.5,431.5 C 302.568,427.434 310.235,425.934 318.5,427C 310.686,427.857 303.02,429.357 295.5,431.5 Z"/></g>
<g><path style="opacity:1" fill="#191919" d="M 452.5,414.5 C 453.552,414.351 454.552,414.517 455.5,415C 444.016,420.576 441.683,428.576 448.5,439C 457.17,442.662 463.336,440.162 467,431.5C 467.624,423.924 464.457,418.424 457.5,415C 464.181,414.664 468.347,417.83 470,424.5C 470.395,437.769 463.895,443.936 450.5,443C 442.186,437.641 440.353,430.474 445,421.5C 447.396,418.933 449.896,416.6 452.5,414.5 Z"/></g>
<g><path style="opacity:1" fill="#2d2d2d" d="M 295.5,431.5 C 293.821,433.175 291.821,434.008 289.5,434C 291.158,432.337 293.158,431.504 295.5,431.5 Z"/></g>
<g><path style="opacity:1" fill="#1a1a1a" d="M 324.5,435.5 C 321.5,436.167 318.5,436.833 315.5,437.5C 307.576,437.217 299.743,437.884 292,439.5C 291.5,439.167 291,438.833 290.5,438.5C 293.803,437.56 297.136,436.727 300.5,436C 308.493,435.5 316.493,435.334 324.5,435.5 Z"/></g>
<g><path style="opacity:1" fill="#737373" d="M 324.5,435.5 C 325.043,435.56 325.376,435.893 325.5,436.5C 322.232,437.487 318.898,437.82 315.5,437.5C 318.5,436.833 321.5,436.167 324.5,435.5 Z"/></g>
<g><path style="opacity:1" fill="#171717" d="M 150.5,437.5 C 155.844,437.334 161.177,437.501 166.5,438C 170.488,438.576 174.155,439.909 177.5,442C 156.016,435.627 137.683,440.627 122.5,457C 121.833,457.667 121.167,457.667 120.5,457C 128.316,446.996 138.316,440.496 150.5,437.5 Z"/></g>
<g><path style="opacity:1" fill="#f4f4f4" d="M 370.5,463.5 C 374.85,467.817 377.517,473.15 378.5,479.5C 377.794,485.778 376.461,491.778 374.5,497.5C 374.539,495.776 374.206,495.443 373.5,496.5C 371.86,495.68 370.193,494.847 368.5,494C 363.926,488.935 359.593,483.769 355.5,478.5C 349.65,477.704 343.65,477.037 337.5,476.5C 339.426,478.293 341.759,479.293 344.5,479.5C 348.532,479.186 351.865,480.519 354.5,483.5C 355.808,487.776 356.808,492.109 357.5,496.5C 354.309,495.908 351.309,494.741 348.5,493C 344.537,487.66 339.537,485.827 333.5,487.5C 328.714,490.445 324.048,493.612 319.5,497C 314.647,497.882 309.981,497.382 305.5,495.5C 303.37,492.685 302.37,489.351 302.5,485.5C 302.627,480.462 303.127,475.462 304,470.5C 309.193,465.118 315.026,460.785 321.5,457.5C 327.871,456.044 334.205,454.377 340.5,452.5C 346.781,455.641 353.114,458.807 359.5,462C 363.086,463.108 366.753,463.608 370.5,463.5 Z"/></g>
<g><path style="opacity:1" fill="#181818" d="M 370.5,463.5 C 366.753,463.608 363.086,463.108 359.5,462C 353.114,458.807 346.781,455.641 340.5,452.5C 334.205,454.377 327.871,456.044 321.5,457.5C 328.539,453.33 336.206,451.496 344.5,452C 352.425,457.802 361.092,461.635 370.5,463.5 Z"/></g>
<g><path style="opacity:1" fill="#121212" d="M 321.5,457.5 C 315.026,460.785 309.193,465.118 304,470.5C 303.127,475.462 302.627,480.462 302.5,485.5C 302.37,489.351 303.37,492.685 305.5,495.5C 303.888,494.548 302.388,494.214 301,494.5C 300.264,486.465 300.431,478.465 301.5,470.5C 302.434,469.432 302.768,468.099 302.5,466.5C 303.496,466.414 304.329,466.748 305,467.5C 309.403,462.221 314.903,458.888 321.5,457.5 Z"/></g>
<g><path style="opacity:1" fill="#565656" d="M 302.5,466.5 C 302.768,468.099 302.434,469.432 301.5,470.5C 301.53,469.503 301.03,468.836 300,468.5C 298.56,469.148 297.06,469.481 295.5,469.5C 294.791,468.596 293.791,468.263 292.5,468.5C 295.684,467.677 299.017,467.01 302.5,466.5 Z"/></g>
<g><path style="opacity:1" fill="#292929" d="M 367.5,473.5 C 365.704,472.207 364.037,470.707 362.5,469C 365.186,469.177 366.852,470.677 367.5,473.5 Z"/></g>
<g><path style="opacity:1" fill="#161616" d="M 292.5,468.5 C 293.791,468.263 294.791,468.596 295.5,469.5C 285.161,469.334 274.828,469.5 264.5,470C 262.912,478.035 262.079,486.201 262,494.5C 260.964,492.13 260.464,489.63 260.5,487C 261.223,481.166 261.889,475.333 262.5,469.5C 253.327,467.944 244.16,466.277 235,464.5C 230.179,465.448 225.346,465.948 220.5,466C 211.167,461.333 201.833,456.667 192.5,452C 188.371,450.051 184.037,448.884 179.5,448.5C 177.359,447.837 175.025,447.503 172.5,447.5C 168.859,447.315 165.526,447.981 162.5,449.5C 155.673,451.58 149.34,454.747 143.5,459C 135.635,465.699 128.302,472.865 121.5,480.5C 128.98,469.521 138.313,460.354 149.5,453C 160.722,446.392 172.722,444.725 185.5,448C 197.736,452.784 209.736,458.117 221.5,464C 225.637,464.336 229.637,463.836 233.5,462.5C 243.495,464.332 253.495,466.165 263.5,468C 273.161,468.5 282.828,468.666 292.5,468.5 Z"/></g>
<g><path style="opacity:1" fill="#b4b4b4" d="M 179.5,448.5 C 173.797,448.375 168.13,448.708 162.5,449.5C 165.526,447.981 168.859,447.315 172.5,447.5C 175.025,447.503 177.359,447.837 179.5,448.5 Z"/></g>
<g><path style="opacity:1" fill="#494949" d="M 337.5,476.5 C 335.804,476.315 334.471,475.481 333.5,474C 335.412,473.721 336.746,474.554 337.5,476.5 Z"/></g>
<g><path style="opacity:1" fill="#131313" d="M 374.5,497.5 C 376.461,491.778 377.794,485.778 378.5,479.5C 377.517,473.15 374.85,467.817 370.5,463.5C 372.39,463.297 373.89,463.963 375,465.5C 376.139,468.583 377.472,471.583 379,474.5C 386.66,442.526 394.327,410.526 402,378.5C 394.064,419.177 385.731,459.844 377,500.5C 376.751,501.624 376.251,502.624 375.5,503.5C 374.534,501.604 374.201,499.604 374.5,497.5 Z"/></g>
<g><path style="opacity:1" fill="#7c7c7c" d="M 337.5,476.5 C 343.65,477.037 349.65,477.704 355.5,478.5C 351.629,478.185 347.962,478.518 344.5,479.5C 341.759,479.293 339.426,478.293 337.5,476.5 Z"/></g>
<g><path style="opacity:1" fill="#202020" d="M 367.5,473.5 C 371.905,478.987 373.739,485.321 373,492.5C 372.234,485.823 370.401,479.49 367.5,473.5 Z"/></g>
<g><path style="opacity:1" fill="#313131" d="M 121.5,480.5 C 121.573,482.027 120.906,483.027 119.5,483.5C 119.427,481.973 120.094,480.973 121.5,480.5 Z"/></g>
<g><path style="opacity:1" fill="#222222" d="M 119.5,483.5 C 119.573,485.027 118.906,486.027 117.5,486.5C 117.427,484.973 118.094,483.973 119.5,483.5 Z"/></g>
<g><path style="opacity:1" fill="#e1e1e1" d="M 371.5,497.5 C 369.031,498.317 366.365,498.817 363.5,499C 354.84,499.5 346.173,499.666 337.5,499.5C 337.5,499.167 337.5,498.833 337.5,498.5C 340.833,498.5 344.167,498.5 347.5,498.5C 350.85,498.665 354.183,498.498 357.5,498C 359.837,495.407 360.004,492.574 358,489.5C 357.059,487.273 355.892,485.273 354.5,483.5C 354.489,481.983 353.823,480.816 352.5,480C 353.5,479.333 354.5,479.333 355.5,480C 359.336,487.33 364.669,493.164 371.5,497.5 Z"/></g>
<g><path style="opacity:1" fill="#f2f2f2" d="M 335.5,488.5 C 337.527,488.338 339.527,488.505 341.5,489C 344.635,492.401 348.302,495.067 352.5,497C 350.866,497.494 349.199,497.66 347.5,497.5C 339.472,497.831 331.472,497.498 323.5,496.5C 327.264,493.389 331.264,490.723 335.5,488.5 Z"/></g>
<g><path style="opacity:1" fill="#141414" d="M 344.5,479.5 C 347.962,478.518 351.629,478.185 355.5,478.5C 359.593,483.769 363.926,488.935 368.5,494C 370.193,494.847 371.86,495.68 373.5,496.5C 373.158,497.338 372.492,497.672 371.5,497.5C 364.669,493.164 359.336,487.33 355.5,480C 354.5,479.333 353.5,479.333 352.5,480C 353.823,480.816 354.489,481.983 354.5,483.5C 351.865,480.519 348.532,479.186 344.5,479.5 Z"/></g>
<g><path style="opacity:1" fill="#828282" d="M 117.5,486.5 C 117.408,488.848 116.408,490.514 114.5,491.5C 114.75,489.326 115.75,487.659 117.5,486.5 Z"/></g>
<g><path style="opacity:1" fill="#202020" d="M 483.5,491.5 C 486.247,491.187 488.914,491.52 491.5,492.5C 453.576,498.49 415.576,503.657 377.5,508C 412.926,502.325 448.26,496.825 483.5,491.5 Z"/></g>
<g><path style="opacity:1" fill="#707070" d="M 114.5,491.5 C 114.539,492.756 114.039,493.756 113,494.5C 112.415,493.002 112.915,492.002 114.5,491.5 Z"/></g>
<g><path style="opacity:1" fill="#2a2a2a" d="M 354.5,483.5 C 355.892,485.273 357.059,487.273 358,489.5C 360.004,492.574 359.837,495.407 357.5,498C 354.183,498.498 350.85,498.665 347.5,498.5C 347.5,498.167 347.5,497.833 347.5,497.5C 349.199,497.66 350.866,497.494 352.5,497C 348.302,495.067 344.635,492.401 341.5,489C 339.527,488.505 337.527,488.338 335.5,488.5C 335.158,487.662 334.492,487.328 333.5,487.5C 339.537,485.827 344.537,487.66 348.5,493C 351.309,494.741 354.309,495.908 357.5,496.5C 356.808,492.109 355.808,487.776 354.5,483.5 Z"/></g>
<g><path style="opacity:1" fill="#0d0d0d" d="M 333.5,487.5 C 334.492,487.328 335.158,487.662 335.5,488.5C 331.264,490.723 327.264,493.389 323.5,496.5C 331.472,497.498 339.472,497.831 347.5,497.5C 347.5,497.833 347.5,498.167 347.5,498.5C 344.167,498.5 340.833,498.5 337.5,498.5C 311.995,498.169 286.661,498.502 261.5,499.5C 259.896,500.287 259.229,501.62 259.5,503.5C 258.113,501.511 258.447,499.678 260.5,498C 275.867,498.154 290.867,497.321 305.5,495.5C 309.981,497.382 314.647,497.882 319.5,497C 324.048,493.612 328.714,490.445 333.5,487.5 Z"/></g>
<g><path style="opacity:1" fill="#9a9a9a" d="M 261.5,499.5 C 286.661,498.502 311.995,498.169 337.5,498.5C 337.5,498.833 337.5,499.167 337.5,499.5C 336.833,499.5 336.5,499.833 336.5,500.5C 336.167,500.5 335.833,500.5 335.5,500.5C 311.006,499.502 286.339,499.169 261.5,499.5 Z"/></g>
<g><path style="opacity:1" fill="#161616" d="M 310.5,500.5 C 312.75,500.181 314.75,500.681 316.5,502C 314.728,503.487 312.728,503.82 310.5,503C 309.402,502.23 309.402,501.397 310.5,500.5 Z"/></g>
<g><path style="opacity:1" fill="#111111" d="M 321.5,500.5 C 323.924,500.192 326.257,500.526 328.5,501.5C 327.333,501.833 326.167,502.167 325,502.5C 323.319,502.392 322.152,501.725 321.5,500.5 Z"/></g>
<g><path style="opacity:1" fill="#0d0d0d" d="M 335.5,500.5 C 335.833,500.5 336.167,500.5 336.5,500.5C 337.478,501.297 337.145,501.964 335.5,502.5C 334.227,501.743 334.227,501.077 335.5,500.5 Z"/></g>
<g><path style="opacity:1" fill="#191919" d="M 259.5,503.5 C 261.085,504.002 261.585,505.002 261,506.5C 259.961,505.756 259.461,504.756 259.5,503.5 Z"/></g>
<g><path style="opacity:1" fill="#5a5a5a" d="M 264.5,504.5 C 301.839,504.167 339.173,504.5 376.5,505.5C 357.833,505.833 339.167,506.167 320.5,506.5C 301.488,506.5 282.821,505.833 264.5,504.5 Z"/></g>
<g><path style="opacity:1" fill="#171717" d="M 205.5,514.5 C 182.333,515.94 159.333,517.607 136.5,519.5C 128.647,519.371 120.814,519.705 113,520.5C 109.549,520.579 106.382,519.913 103.5,518.5C 118.172,518.222 132.839,517.722 147.5,517C 178.714,514.897 209.88,512.397 241,509.5C 243.833,509.667 246.667,509.833 249.5,510C 234.866,511.891 220.2,513.391 205.5,514.5 Z"/></g>
<g><path style="opacity:1" fill="#c3c3c3" d="M 205.5,514.5 C 182.756,517.611 159.756,519.277 136.5,519.5C 159.333,517.607 182.333,515.94 205.5,514.5 Z"/></g>
</svg>
